STARTFONT 2.1
FONT -FontForge-Source Code Pro-Book-R-Normal--36-360-72-72-M-220-ISO10646-1
SIZE 36 72 72
FONTBOUNDINGBOX 36 54 -7 -16
COMMENT "Generated by fontforge, http://fontforge.sourceforge.net"
COMMENT "Copyright 2010, 2012 Adobe Systems Incorporated (http://www.adobe.com/), with Reserved Font Name `Source'."
STARTPROPERTIES 40
FOUNDRY "FontForge"
FAMILY_NAME "Source Code Pro"
WEIGHT_NAME "Book"
SLANT "R"
SETWIDTH_NAME "Normal"
ADD_STYLE_NAME ""
PIXEL_SIZE 36
POINT_SIZE 360
RESOLUTION_X 72
RESOLUTION_Y 72
SPACING "M"
AVERAGE_WIDTH 220
CHARSET_REGISTRY "ISO10646"
CHARSET_ENCODING "1"
FONTNAME_REGISTRY ""
CHARSET_COLLECTIONS "ASCII ISOLatin1Encoding ISO8859-2 ISO8859-5 ISO8859-7 ISO8859-9 ISO8859-4 ISO10646-1"
FONT_NAME "SourceCodePro-Regular"
FACE_NAME "Source Code Pro"
COPYRIGHT "Copyright 2010, 2012 Adobe Systems Incorporated (http://www.adobe.com/), with Reserved Font Name `Source'."
FONT_VERSION "2.030;PS 1.000;hotconv 16.6.51;makeotf.lib2.5.65220"
FONT_ASCENT 27
FONT_DESCENT 9
UNDERLINE_POSITION -4
UNDERLINE_THICKNESS 2
X_HEIGHT 17
CAP_HEIGHT 23
RAW_ASCENT 750
RAW_DESCENT 250
NORM_SPACE 22
RELATIVE_WEIGHT 40
RELATIVE_SETWIDTH 50
SUPERSCRIPT_X 0
SUPERSCRIPT_Y 12
SUPERSCRIPT_SIZE 21
SUBSCRIPT_X 0
SUBSCRIPT_Y 2
SUBSCRIPT_SIZE 21
FIGURE_WIDTH 22
AVG_LOWERCASE_WIDTH 220
AVG_UPPERCASE_WIDTH 220
ENDPROPERTIES
CHARS 1564
STARTCHAR space
ENCODING 32
SWIDTH 600 0
DWIDTH 22 0
BBX 1 1 0 0
BITMAP
00
ENDCHAR
STARTCHAR exclam
ENCODING 33
SWIDTH 600 0
DWIDTH 22 0
BBX 5 24 8 0
BITMAP
70
70
70
70
70
30
30
30
30
30
30
30
30
30
30
00
00
00
70
F8
F8
F8
F8
70
ENDCHAR
STARTCHAR quotedbl
ENCODING 34
SWIDTH 600 0
DWIDTH 22 0
BBX 12 12 5 13
BITMAP
F0F0
F0F0
F0F0
F0F0
F0F0
E0F0
E0F0
E0E0
E060
E060
6060
6060
ENDCHAR
STARTCHAR numbersign
ENCODING 35
SWIDTH 600 0
DWIDTH 22 0
BBX 16 23 3 0
BITMAP
060C
0618
0618
0C18
0C18
0C18
7C1F
7FFF
7C1F
0C30
0C30
1830
1830
F830
FFFE
FFFE
1830
1860
1860
1060
3060
3060
3060
ENDCHAR
STARTCHAR dollar
ENCODING 36
SWIDTH 600 0
DWIDTH 22 0
BBX 15 31 3 -4
BITMAP
0180
0180
0180
0180
0180
07E0
1FF8
3FFC
781E
700C
7000
7000
3800
3F00
1FC0
07F0
00FC
003E
000E
000E
000E
600E
F81E
7FFC
1FF8
07E0
0180
0180
0180
0180
0180
ENDCHAR
STARTCHAR percent
ENCODING 37
SWIDTH 600 0
DWIDTH 22 0
BBX 20 24 1 0
BITMAP
1E0000
7F8000
638040
E1C060
C0C0F0
C0C1C0
C0C380
C0C700
E1CE00
738C00
7F8000
1E0000
000F80
001FC0
0038E0
033060
063070
0C3070
183070
383070
703060
E038E0
401FC0
000F80
ENDCHAR
STARTCHAR ampersand
ENCODING 38
SWIDTH 600 0
DWIDTH 22 0
BBX 19 24 2 0
BITMAP
07C000
0FE000
1FF000
1C7000
383000
383000
387000
186000
1DC000
1FC000
0F0000
1E00E0
3F01C0
7781C0
E38180
E1C380
C0E300
C07700
E03E00
E01E00
F83F00
7FFFE0
3FF1C0
0FC040
ENDCHAR
STARTCHAR quotesingle
ENCODING 39
SWIDTH 600 0
DWIDTH 22 0
BBX 4 12 9 13
BITMAP
F0
F0
F0
F0
F0
F0
E0
E0
E0
60
60
60
ENDCHAR
STARTCHAR parenleft
ENCODING 40
SWIDTH 600 0
DWIDTH 22 0
BBX 10 33 7 -6
BITMAP
0080
01C0
0380
0700
0E00
0E00
1C00
3800
3800
3000
7000
7000
7000
6000
6000
E000
E000
E000
6000
6000
6000
7000
7000
3000
3800
3800
1C00
0C00
0E00
0700
0380
01C0
0080
ENDCHAR
STARTCHAR parenright
ENCODING 41
SWIDTH 600 0
DWIDTH 22 0
BBX 10 33 4 -6
BITMAP
6000
F000
7800
3C00
1C00
0E00
0700
0700
0380
0380
0180
01C0
01C0
01C0
01C0
01C0
01C0
01C0
01C0
01C0
01C0
01C0
0180
0380
0380
0700
0700
0E00
1C00
3C00
7800
F000
6000
ENDCHAR
STARTCHAR asterisk
ENCODING 42
SWIDTH 600 0
DWIDTH 22 0
BBX 16 17 3 4
BITMAP
0180
0180
0180
0180
0180
C182
F9BF
7FFC
1FF0
07E0
03C0
07E0
0E60
0C70
1838
3818
100C
ENDCHAR
STARTCHAR plus
ENCODING 43
SWIDTH 600 0
DWIDTH 22 0
BBX 16 17 3 3
BITMAP
0180
0180
0180
0180
0180
0180
0180
FFFF
FFFF
FFFF
0180
0180
0180
0180
0180
0180
0180
ENDCHAR
STARTCHAR comma
ENCODING 44
SWIDTH 600 0
DWIDTH 22 0
BBX 7 13 7 -8
BITMAP
3C
7E
7E
7E
3E
06
0E
0E
1C
3C
78
E0
40
ENDCHAR
STARTCHAR hyphen
ENCODING 45
SWIDTH 600 0
DWIDTH 22 0
BBX 16 3 3 10
BITMAP
FFFF
FFFF
FFFF
ENDCHAR
STARTCHAR period
ENCODING 46
SWIDTH 600 0
DWIDTH 22 0
BBX 6 6 8 0
BITMAP
70
F8
FC
FC
F8
70
ENDCHAR
STARTCHAR slash
ENCODING 47
SWIDTH 600 0
DWIDTH 22 0
BBX 14 31 4 -5
BITMAP
001C
0018
0038
0038
0030
0070
0070
00E0
00E0
00C0
01C0
01C0
0180
0380
0380
0700
0700
0600
0E00
0E00
0C00
1C00
1800
3800
3800
3000
7000
7000
E000
E000
C000
ENDCHAR
STARTCHAR zero
ENCODING 48
SWIDTH 600 0
DWIDTH 22 0
BBX 16 23 3 0
BITMAP
07E0
1FF0
3FFC
7C3C
701E
F00E
E006
E007
E187
C3C7
C3C7
C3C7
C387
C007
E007
E007
E00E
F00E
701E
7C3C
3FF8
1FF0
07E0
ENDCHAR
STARTCHAR one
ENCODING 49
SWIDTH 600 0
DWIDTH 22 0
BBX 16 23 3 0
BITMAP
01C0
1FC0
3FC0
3FC0
01C0
01C0
01C0
01C0
01C0
01C0
01C0
01C0
01C0
01C0
01C0
01C0
01C0
01C0
01C0
01C0
FFFF
FFFF
FFFF
ENDCHAR
STARTCHAR two
ENCODING 50
SWIDTH 600 0
DWIDTH 22 0
BBX 17 23 2 0
BITMAP
07E000
1FF800
3FFC00
783E00
F00E00
400E00
000700
000600
000E00
000E00
001C00
001C00
003800
007000
00E000
01C000
038000
0F0000
1E0000
3C0000
7FFF80
7FFF80
7FFF80
ENDCHAR
STARTCHAR three
ENCODING 51
SWIDTH 600 0
DWIDTH 22 0
BBX 17 23 2 0
BITMAP
07F000
1FFC00
3FFE00
7C1E00
300F00
000700
000700
000E00
003C00
07F800
07E000
07FC00
003E00
000F00
000700
000380
000380
400780
600700
F81F00
7FFE00
1FFC00
07F000
ENDCHAR
STARTCHAR four
ENCODING 52
SWIDTH 600 0
DWIDTH 22 0
BBX 19 23 1 0
BITMAP
001E00
001E00
003E00
007E00
00EE00
01CE00
01CE00
038E00
070E00
0E0E00
1E0E00
1C0E00
380E00
700E00
FFFFE0
FFFFE0
FFFFE0
000E00
000E00
000E00
000E00
000E00
000E00
ENDCHAR
STARTCHAR five
ENCODING 53
SWIDTH 600 0
DWIDTH 22 0
BBX 17 23 2 0
BITMAP
1FFF00
1FFF00
3FFF00
380000
380000
380000
380000
380000
3BF000
3FFC00
3FFE00
101F00
000700
000780
000380
000380
000380
400700
600F00
F81F00
7FFE00
1FFC00
07E000
ENDCHAR
STARTCHAR six
ENCODING 54
SWIDTH 600 0
DWIDTH 22 0
BBX 16 23 3 0
BITMAP
03F0
0FFC
1FFE
3E0F
7804
7000
7000
E000
E000
E3F0
EFFC
FFFE
FC1F
F007
E007
E007
E007
6007
700F
3C1E
3FFC
0FF8
03E0
ENDCHAR
STARTCHAR seven
ENCODING 55
SWIDTH 600 0
DWIDTH 22 0
BBX 16 23 3 0
BITMAP
FFFF
FFFF
FFFF
000E
000C
001C
0038
0070
0070
00E0
00E0
01C0
01C0
0180
0380
0380
0380
0380
0380
0700
0700
0700
0700
ENDCHAR
STARTCHAR eight
ENCODING 56
SWIDTH 600 0
DWIDTH 22 0
BBX 17 23 2 0
BITMAP
03F000
0FFC00
1FFE00
3C0F00
380700
380700
380300
380700
1C0600
0F9C00
07F800
0FF800
1C7E00
380F00
700780
600380
E00380
E00380
700380
7C0F00
3FFF00
1FFE00
07F000
ENDCHAR
STARTCHAR nine
ENCODING 57
SWIDTH 600 0
DWIDTH 22 0
BBX 17 23 2 0
BITMAP
07E000
1FF800
3FFC00
7C1E00
700F00
700700
E00300
E00380
E00380
700F80
781F80
3FFF80
1FF380
0FC380
000380
000700
000700
000F00
201E00
783C00
7FFC00
3FF000
0FC000
ENDCHAR
STARTCHAR colon
ENCODING 58
SWIDTH 600 0
DWIDTH 22 0
BBX 6 19 8 0
BITMAP
70
F8
FC
FC
F8
70
00
00
00
00
00
00
00
70
F8
FC
FC
F8
70
ENDCHAR
STARTCHAR semicolon
ENCODING 59
SWIDTH 600 0
DWIDTH 22 0
BBX 7 27 7 -8
BITMAP
38
7C
7E
7E
7C
38
00
00
00
00
00
00
00
00
3C
7E
7E
7E
3E
06
0E
0E
1C
3C
78
E0
40
ENDCHAR
STARTCHAR less
ENCODING 60
SWIDTH 600 0
DWIDTH 22 0
BBX 14 21 4 1
BITMAP
0004
001C
003C
0078
01F0
03C0
0F80
1E00
7C00
F000
E000
F000
7C00
1E00
0F80
03C0
01F0
0078
003C
001C
0004
ENDCHAR
STARTCHAR equal
ENCODING 61
SWIDTH 600 0
DWIDTH 22 0
BBX 16 11 3 6
BITMAP
FFFF
FFFF
FFFF
0000
0000
0000
0000
0000
FFFF
FFFF
FFFF
ENDCHAR
STARTCHAR greater
ENCODING 62
SWIDTH 600 0
DWIDTH 22 0
BBX 13 21 4 1
BITMAP
8000
C000
F000
7800
3E00
1F00
07C0
03E0
00F8
0078
0018
0078
00F8
03E0
07C0
1F00
3E00
7800
F000
C000
8000
ENDCHAR
STARTCHAR question
ENCODING 63
SWIDTH 600 0
DWIDTH 22 0
BBX 13 25 4 0
BITMAP
0FC0
3FE0
7FF0
F078
4038
0038
0038
0038
0070
00E0
01E0
0380
0700
0700
0600
0600
0000
0000
0000
0700
0F80
0F80
0F80
0F80
0700
ENDCHAR
STARTCHAR at
ENCODING 64
SWIDTH 600 0
DWIDTH 22 0
BBX 18 29 2 -5
BITMAP
01F800
07FE00
0FFF00
1F0700
3C0380
380180
700180
6000C0
E001C0
E01FC0
C07FC0
C0FFC0
C1E1C0
C381C0
C381C0
C301C0
C381C0
C387C0
C1FEC0
E1FCC0
6078C0
700000
700000
380000
3C0100
1F0700
0FFF00
07FE00
01F800
ENDCHAR
STARTCHAR A
ENCODING 65
SWIDTH 600 0
DWIDTH 22 0
BBX 19 24 1 0
BITMAP
00F000
00F000
01F000
01B800
01B800
039800
039C00
031C00
070C00
070E00
060E00
0E0600
0E0700
0C0700
1FFF00
1FFF80
1FFF80
380380
3801C0
3801C0
7001C0
7001E0
7000E0
E000E0
ENDCHAR
STARTCHAR B
ENCODING 66
SWIDTH 600 0
DWIDTH 22 0
BBX 16 24 4 0
BITMAP
FFC0
FFF0
FFF8
E07C
E01C
E01C
E01C
E01C
E01C
E078
FFF0
FFE0
FFF8
E03E
E00E
E007
E007
E007
E00F
E00E
E03E
FFFC
FFF8
FFE0
ENDCHAR
STARTCHAR C
ENCODING 67
SWIDTH 600 0
DWIDTH 22 0
BBX 18 24 2 0
BITMAP
00FC00
07FE00
0FFF80
1F0780
3C0100
380000
780000
700000
700000
F00000
F00000
E00000
E00000
F00000
700000
700000
700000
780000
380100
3C0180
1F07C0
0FFF80
07FE00
01FC00
ENDCHAR
STARTCHAR D
ENCODING 68
SWIDTH 600 0
DWIDTH 22 0
BBX 17 24 3 0
BITMAP
FFC000
FFF000
FFFC00
E07C00
E01E00
E00F00
E00700
E00700
E00780
E00380
E00380
E00380
E00380
E00380
E00380
E00780
E00700
E00700
E00F00
E01E00
E07C00
FFF800
FFF000
FFC000
ENDCHAR
STARTCHAR E
ENCODING 69
SWIDTH 600 0
DWIDTH 22 0
BBX 15 24 4 0
BITMAP
FFFE
FFFE
FFFE
E000
E000
E000
E000
E000
E000
E000
FFF8
FFF8
FFF8
E000
E000
E000
E000
E000
E000
E000
E000
FFFE
FFFE
FFFE
ENDCHAR
STARTCHAR F
ENCODING 70
SWIDTH 600 0
DWIDTH 22 0
BBX 14 24 5 0
BITMAP
FFFC
FFFC
FFFC
E000
E000
E000
E000
E000
E000
E000
FFF8
FFF8
FFF8
E000
E000
E000
E000
E000
E000
E000
E000
E000
E000
E000
ENDCHAR
STARTCHAR G
ENCODING 71
SWIDTH 600 0
DWIDTH 22 0
BBX 17 24 2 0
BITMAP
01F800
07FE00
0FFF00
1F0780
3C0300
780000
700000
F00000
E00000
E00000
E00000
E03F80
E03F80
E03F80
E00380
E00380
F00380
700380
780380
3C0380
3F0780
1FFF80
07FF00
01F800
ENDCHAR
STARTCHAR H
ENCODING 72
SWIDTH 600 0
DWIDTH 22 0
BBX 16 24 3 0
BITMAP
E007
E007
E007
E007
E007
E007
E007
E007
E007
E007
FFFF
FFFF
FFFF
E007
E007
E007
E007
E007
E007
E007
E007
E007
E007
E007
ENDCHAR
STARTCHAR I
ENCODING 73
SWIDTH 600 0
DWIDTH 22 0
BBX 15 24 3 0
BITMAP
FFFE
FFFE
FFFE
0380
0380
0380
0380
0380
0380
0380
0380
0380
0380
0380
0380
0380
0380
0380
0380
0380
0380
FFFE
FFFE
FFFE
ENDCHAR
STARTCHAR J
ENCODING 74
SWIDTH 600 0
DWIDTH 22 0
BBX 15 24 3 0
BITMAP
3FFE
3FFE
3FFE
000E
000E
000E
000E
000E
000E
000E
000E
000E
000E
000E
000E
000E
000E
000E
401E
E01C
F87C
7FF8
3FF0
0FC0
ENDCHAR
STARTCHAR K
ENCODING 75
SWIDTH 600 0
DWIDTH 22 0
BBX 17 24 4 0
BITMAP
E00F00
E01E00
E01C00
E03800
E07000
E0F000
E1E000
E3C000
E38000
E78000
EF8000
FFC000
FDC000
F8E000
F0F000
E07000
E07800
E03800
E01C00
E01C00
E00E00
E00E00
E00700
E00780
ENDCHAR
STARTCHAR L
ENCODING 76
SWIDTH 600 0
DWIDTH 22 0
BBX 14 24 5 0
BITMAP
E000
E000
E000
E000
E000
E000
E000
E000
E000
E000
E000
E000
E000
E000
E000
E000
E000
E000
E000
E000
E000
FFFC
FFFC
FFFC
ENDCHAR
STARTCHAR M
ENCODING 77
SWIDTH 600 0
DWIDTH 22 0
BBX 16 24 3 0
BITMAP
E00F
F00F
F00F
F01F
F81B
D81F
D83F
DC37
DC37
CC77
CE67
CE67
C6E7
C7C7
C3C7
C3C7
C387
C187
C007
C007
C007
C007
C007
C007
ENDCHAR
STARTCHAR N
ENCODING 78
SWIDTH 600 0
DWIDTH 22 0
BBX 16 24 3 0
BITMAP
F007
F007
F807
F807
DC07
FC07
EE07
EE07
E707
E707
E387
E387
E1C7
E1C7
E0E7
E0E7
E067
E077
E037
E03F
E01F
E01F
E00F
E00F
ENDCHAR
STARTCHAR O
ENCODING 79
SWIDTH 600 0
DWIDTH 22 0
BBX 18 24 2 0
BITMAP
03F000
0FFC00
1FFE00
3E1F00
780F00
700780
700380
E00380
E003C0
E003C0
E001C0
E001C0
E001C0
E001C0
E001C0
E003C0
E00380
700380
700780
780F00
3E1F00
1FFE00
0FFC00
03F000
ENDCHAR
STARTCHAR P
ENCODING 80
SWIDTH 600 0
DWIDTH 22 0
BBX 16 24 4 0
BITMAP
FFE0
FFF8
FFFC
E03E
E00E
E00E
E007
E00F
E00E
E00E
E03E
FFFC
FFF8
FFE0
E000
E000
E000
E000
E000
E000
E000
E000
E000
E000
ENDCHAR
STARTCHAR Q
ENCODING 81
SWIDTH 600 0
DWIDTH 22 0
BBX 18 30 2 -6
BITMAP
03F000
0FFC00
1FFE00
3E1F00
780F00
700780
700380
E00380
E00380
E001C0
E001C0
E001C0
E001C0
E001C0
E001C0
E00380
E00380
700380
700780
780F00
3E1F00
1FFE00
0FFC00
03F000
00E000
00F000
007800
007FC0
003FC0
000FC0
ENDCHAR
STARTCHAR R
ENCODING 82
SWIDTH 600 0
DWIDTH 22 0
BBX 16 24 4 0
BITMAP
FFE0
FFF8
FFFC
E03E
E01E
E00E
E00E
E00E
E00E
E01E
E03C
FFFC
FFF0
FFC0
E1C0
E0E0
E0F0
E070
E078
E038
E03C
E01C
E00E
E00F
ENDCHAR
STARTCHAR S
ENCODING 83
SWIDTH 600 0
DWIDTH 22 0
BBX 17 24 2 0
BITMAP
03F000
0FFC00
1FFF00
3E0F80
380300
380000
380000
380000
3C0000
1F0000
0FC000
07F800
00FE00
003F00
000F80
000380
000380
000380
200380
700780
FC0F00
3FFF00
1FFE00
03F000
ENDCHAR
STARTCHAR T
ENCODING 84
SWIDTH 600 0
DWIDTH 22 0
BBX 18 24 2 0
BITMAP
FFFFC0
FFFFC0
FFFFC0
01C000
01C000
01C000
01C000
01C000
01C000
01C000
01C000
01C000
01C000
01C000
01C000
01C000
01C000
01C000
01C000
01C000
01C000
01C000
01C000
01C000
ENDCHAR
STARTCHAR U
ENCODING 85
SWIDTH 600 0
DWIDTH 22 0
BBX 16 24 3 0
BITMAP
E007
E007
E007
E007
E007
E007
E007
E007
E007
E007
E007
E007
E007
E007
E007
E007
E007
E00F
F00E
701E
7C3C
3FFC
1FF8
07E0
ENDCHAR
STARTCHAR V
ENCODING 86
SWIDTH 600 0
DWIDTH 22 0
BBX 18 24 2 0
BITMAP
E001C0
E001C0
E00380
700380
700380
700700
380700
380700
380600
180E00
1C0E00
1C0C00
1C1C00
0E1C00
0E1C00
0E1800
063800
073800
073000
037000
03F000
03E000
01E000
01E000
ENDCHAR
STARTCHAR W
ENCODING 87
SWIDTH 600 0
DWIDTH 22 0
BBX 21 24 0 0
BITMAP
F00038
700038
700038
700038
700078
700070
707070
787870
387870
387870
38F870
38FC70
38DC60
38CC60
19CCE0
1DCEE0
1D8EE0
1D8EE0
1F86E0
1F87C0
1F07C0
0F07C0
0F03C0
0F03C0
ENDCHAR
STARTCHAR X
ENCODING 88
SWIDTH 600 0
DWIDTH 22 0
BBX 18 24 2 0
BITMAP
F00380
780700
380700
3C0E00
1C0E00
0E1C00
0E1C00
073800
073000
03F000
03E000
01E000
03E000
03F000
077000
073800
0E3800
0E1C00
1C1C00
3C0E00
380F00
700700
700380
E003C0
ENDCHAR
STARTCHAR Y
ENCODING 89
SWIDTH 600 0
DWIDTH 22 0
BBX 19 24 1 0
BITMAP
F000E0
7001C0
3801C0
380380
1C0380
1C0700
0E0700
0E0600
070E00
070C00
039C00
039800
01F800
01F000
00F000
00E000
00E000
00E000
00E000
00E000
00E000
00E000
00E000
00E000
ENDCHAR
STARTCHAR Z
ENCODING 90
SWIDTH 600 0
DWIDTH 22 0
BBX 17 24 2 0
BITMAP
7FFF80
7FFF80
7FFF80
000700
000F00
000E00
001C00
003C00
003800
007000
00E000
00E000
01C000
038000
078000
070000
0E0000
1C0000
1C0000
380000
700000
7FFF80
FFFF80
FFFF80
ENDCHAR
STARTCHAR bracketleft
ENCODING 91
SWIDTH 600 0
DWIDTH 22 0
BBX 10 32 8 -6
BITMAP
FFC0
FFC0
C000
C000
C000
C000
C000
C000
C000
C000
C000
C000
C000
C000
C000
C000
C000
C000
C000
C000
C000
C000
C000
C000
C000
C000
C000
C000
C000
C000
FFC0
FFC0
ENDCHAR
STARTCHAR backslash
ENCODING 92
SWIDTH 600 0
DWIDTH 22 0
BBX 14 31 4 -5
BITMAP
C000
E000
6000
7000
7000
3000
3800
3800
1800
1C00
0C00
0E00
0E00
0600
0700
0700
0380
0380
0180
01C0
01C0
00C0
00E0
0060
0070
0070
0030
0038
0038
0018
001C
ENDCHAR
STARTCHAR bracketright
ENCODING 93
SWIDTH 600 0
DWIDTH 22 0
BBX 10 32 4 -6
BITMAP
FFC0
FFC0
01C0
01C0
01C0
01C0
01C0
01C0
01C0
01C0
01C0
01C0
01C0
01C0
01C0
01C0
01C0
01C0
01C0
01C0
01C0
01C0
01C0
01C0
01C0
01C0
01C0
01C0
01C0
01C0
FFC0
FFC0
ENDCHAR
STARTCHAR asciicircum
ENCODING 94
SWIDTH 600 0
DWIDTH 22 0
BBX 14 14 4 10
BITMAP
0700
0780
0780
0D80
0DC0
1CC0
18E0
1860
3860
3070
7030
7038
6038
E01C
ENDCHAR
STARTCHAR underscore
ENCODING 95
SWIDTH 600 0
DWIDTH 22 0
BBX 17 3 2 -5
BITMAP
FFFF80
FFFF80
FFFF80
ENDCHAR
STARTCHAR grave
ENCODING 96
SWIDTH 600 0
DWIDTH 22 0
BBX 7 8 6 20
BITMAP
40
60
F0
78
3C
1C
0E
04
ENDCHAR
STARTCHAR a
ENCODING 97
SWIDTH 600 0
DWIDTH 22 0
BBX 16 18 3 0
BITMAP
07F0
1FF8
7FFC
783E
600E
000E
0007
00FF
0FFF
3FFF
7F07
F007
E007
E00F
F03F
7FF7
7FE7
1F87
ENDCHAR
STARTCHAR b
ENCODING 98
SWIDTH 600 0
DWIDTH 22 0
BBX 16 26 3 0
BITMAP
E000
E000
E000
E000
E000
E000
E000
E000
E1F0
E7FC
FFFE
FC1E
F80F
E007
E007
E007
E007
E007
E007
E007
E00F
F00E
FC3E
FFFC
EFF8
E3E0
ENDCHAR
STARTCHAR c
ENCODING 99
SWIDTH 600 0
DWIDTH 22 0
BBX 16 18 3 0
BITMAP
03F0
0FFC
1FFE
3E0F
7802
F000
E000
E000
E000
E000
E000
E000
F000
7803
3E0F
3FFF
0FFC
03F0
ENDCHAR
STARTCHAR d
ENCODING 100
SWIDTH 600 0
DWIDTH 22 0
BBX 16 26 2 0
BITMAP
0007
0007
0007
0007
0007
0007
0007
0007
07E7
0FF7
1FFF
3C1F
780F
7007
F007
E007
E007
E007
E007
F007
7007
780F
7C1F
3FFB
1FF3
07C3
ENDCHAR
STARTCHAR e
ENCODING 101
SWIDTH 600 0
DWIDTH 22 0
BBX 17 18 2 0
BITMAP
03F000
0FFC00
1FFE00
3E0F00
380380
700380
700180
7FFF80
FFFF80
FFFF80
700000
700000
700000
380100
3E0700
1FFF80
0FFE00
01F800
ENDCHAR
STARTCHAR f
ENCODING 102
SWIDTH 600 0
DWIDTH 22 0
BBX 17 26 4 0
BITMAP
00FE00
01FF80
03FF00
078100
070000
070000
070000
070000
FFFE00
FFFE00
FFFE00
070000
070000
070000
070000
070000
070000
070000
070000
070000
070000
070000
070000
070000
070000
070000
ENDCHAR
STARTCHAR g
ENCODING 103
SWIDTH 600 0
DWIDTH 22 0
BBX 17 25 3 -7
BITMAP
07FF80
1FFF80
3FFF80
783F80
701800
601C00
601C00
701C00
783C00
3FF800
1FF000
37C000
600000
600000
700000
7FFE00
3FFF00
7FFF80
E00380
C00380
C00380
F00F80
FFFF00
7FFC00
1FF000
ENDCHAR
STARTCHAR h
ENCODING 104
SWIDTH 600 0
DWIDTH 22 0
BBX 16 26 3 0
BITMAP
E000
E000
E000
E000
E000
E000
E000
E000
E1F8
E7FC
EFFE
FE1E
F80F
F007
E007
E007
E007
E007
E007
E007
E007
E007
E007
E007
E007
E007
ENDCHAR
STARTCHAR i
ENCODING 105
SWIDTH 600 0
DWIDTH 22 0
BBX 12 26 3 0
BITMAP
00E0
01F0
01F0
01F0
00E0
0000
0000
0000
FFE0
FFE0
FFE0
00E0
00E0
00E0
00E0
00E0
00E0
00E0
00E0
00E0
00E0
00E0
00E0
00E0
00E0
00E0
ENDCHAR
STARTCHAR j
ENCODING 106
SWIDTH 600 0
DWIDTH 22 0
BBX 13 33 2 -7
BITMAP
0070
00F8
00F8
00F8
0070
0000
0000
0000
7FF0
7FF0
7FF0
0070
0070
0070
0070
0070
0070
0070
0070
0070
0070
0070
0070
0070
0070
0070
0070
0070
0070
40F0
FFE0
FFC0
3F00
ENDCHAR
STARTCHAR k
ENCODING 107
SWIDTH 600 0
DWIDTH 22 0
BBX 17 26 4 0
BITMAP
E00000
E00000
E00000
E00000
E00000
E00000
E00000
E00000
E00F00
E01C00
E03800
E07000
E0E000
E1C000
E38000
E78000
EFC000
FDC000
F8E000
F07000
E07800
E03800
E01C00
E00E00
E00F00
E00780
ENDCHAR
STARTCHAR l
ENCODING 108
SWIDTH 600 0
DWIDTH 22 0
BBX 16 26 3 0
BITMAP
FF80
FF80
FF80
0380
0380
0380
0380
0380
0380
0380
0380
0380
0380
0380
0380
0380
0380
0380
0380
0380
0380
0380
03C1
01FF
01FF
007E
ENDCHAR
STARTCHAR m
ENCODING 109
SWIDTH 600 0
DWIDTH 22 0
BBX 18 18 2 0
BITMAP
E78F00
EF9F80
FFFFC0
F9F3C0
F0E1C0
E0E1C0
E0C1C0
E0C1C0
E0C1C0
E0C1C0
E0C1C0
E0C1C0
E0C1C0
E0C1C0
E0C1C0
E0C1C0
E0C1C0
E0C1C0
ENDCHAR
STARTCHAR n
ENCODING 110
SWIDTH 600 0
DWIDTH 22 0
BBX 16 18 3 0
BITMAP
E1F8
E7FC
EFFE
FE1E
F80F
F007
E007
E007
E007
E007
E007
E007
E007
E007
E007
E007
E007
E007
ENDCHAR
STARTCHAR o
ENCODING 111
SWIDTH 600 0
DWIDTH 22 0
BBX 17 18 2 0
BITMAP
03F000
0FFC00
1FFE00
3C1F00
780700
700780
F00380
E00380
E00380
E00380
E00380
F00380
700780
780700
3C1F00
1FFE00
0FFC00
03F000
ENDCHAR
STARTCHAR p
ENCODING 112
SWIDTH 600 0
DWIDTH 22 0
BBX 16 25 3 -7
BITMAP
E1F0
E7FC
FFFE
FC1E
F80F
E007
E007
E007
E007
E007
E007
E007
E00F
F00E
FC3E
FFFC
EFF8
E3E0
E000
E000
E000
E000
E000
E000
E000
ENDCHAR
STARTCHAR q
ENCODING 113
SWIDTH 600 0
DWIDTH 22 0
BBX 16 25 2 -7
BITMAP
07E3
0FF3
1FFF
3C1F
780F
7007
F007
E007
E007
E007
E007
F007
7007
780F
7C1F
3FFF
1FF7
07C7
0007
0007
0007
0007
0007
0007
0007
ENDCHAR
STARTCHAR r
ENCODING 114
SWIDTH 600 0
DWIDTH 22 0
BBX 14 18 5 0
BITMAP
E0FC
E3FC
E7FC
EF04
FC00
F800
F000
E000
E000
E000
E000
E000
E000
E000
E000
E000
E000
E000
ENDCHAR
STARTCHAR s
ENCODING 115
SWIDTH 600 0
DWIDTH 22 0
BBX 16 18 3 0
BITMAP
0FE0
3FF8
7FFC
781E
7004
7000
7800
3F00
1FF0
03FC
003E
000F
0007
C007
F81F
7FFE
3FFC
07F0
ENDCHAR
STARTCHAR t
ENCODING 116
SWIDTH 600 0
DWIDTH 22 0
BBX 18 24 2 0
BITMAP
030000
030000
030000
030000
030000
030000
FFFF80
FFFF80
FFFF80
070000
070000
070000
070000
070000
070000
070000
070000
070000
078000
038000
03C080
03FF80
01FFC0
007F00
ENDCHAR
STARTCHAR u
ENCODING 117
SWIDTH 600 0
DWIDTH 22 0
BBX 15 18 3 0
BITMAP
E00E
E00E
E00E
E00E
E00E
E00E
E00E
E00E
E00E
E00E
E00E
E00E
E01E
E03E
F87E
7FE6
7FC6
1F86
ENDCHAR
STARTCHAR v
ENCODING 118
SWIDTH 600 0
DWIDTH 22 0
BBX 18 18 2 0
BITMAP
E001C0
E00380
700380
700300
380700
380700
380E00
1C0E00
1C0C00
0E1C00
0E1C00
063800
073800
073000
037000
03F000
01E000
01E000
ENDCHAR
STARTCHAR w
ENCODING 119
SWIDTH 600 0
DWIDTH 22 0
BBX 21 18 0 0
BITMAP
E00038
707038
707838
707838
707830
70F870
38DC70
38DC70
38CC70
39CC60
19CCE0
1D8EE0
1D8EE0
1D86E0
1F86C0
0F87C0
0F07C0
0F03C0
ENDCHAR
STARTCHAR x
ENCODING 120
SWIDTH 600 0
DWIDTH 22 0
BBX 17 18 2 0
BITMAP
700780
380700
1C0E00
1E1C00
0E1C00
073800
07F000
03F000
01E000
03E000
03F000
077000
0E3800
0E1C00
1C1E00
380E00
780700
F00380
ENDCHAR
STARTCHAR y
ENCODING 121
SWIDTH 600 0
DWIDTH 22 0
BBX 18 25 2 -7
BITMAP
E001C0
E00380
700380
700300
380700
380700
1C0E00
1C0E00
0E0C00
0E1C00
061C00
071800
033800
03B000
03F000
01F000
01E000
00E000
00C000
01C000
038000
078000
7F0000
7E0000
F80000
ENDCHAR
STARTCHAR z
ENCODING 122
SWIDTH 600 0
DWIDTH 22 0
BBX 16 18 3 0
BITMAP
7FFF
7FFF
7FFE
001E
003C
0078
00F0
01E0
03C0
0780
0700
0E00
1C00
3800
7000
FFFF
FFFF
FFFF
ENDCHAR
STARTCHAR braceleft
ENCODING 123
SWIDTH 600 0
DWIDTH 22 0
BBX 14 32 4 -6
BITMAP
00FC
03FC
0380
0700
0700
0700
0700
0700
0700
0700
0300
0300
0700
0700
0E00
FC00
FC00
0E00
0700
0300
0300
0700
0700
0700
0700
0700
0700
0700
0700
0380
03FC
00FC
ENDCHAR
STARTCHAR bar
ENCODING 124
SWIDTH 600 0
DWIDTH 22 0
BBX 3 36 9 -9
BITMAP
E0
E0
E0
E0
E0
E0
E0
E0
E0
E0
E0
E0
E0
E0
E0
E0
E0
E0
E0
E0
E0
E0
E0
E0
E0
E0
E0
E0
E0
E0
E0
E0
E0
E0
E0
E0
ENDCHAR
STARTCHAR braceright
ENCODING 125
SWIDTH 600 0
DWIDTH 22 0
BBX 13 32 4 -6
BITMAP
FC00
FE00
0700
0300
0300
0300
0300
0300
0300
0300
0300
0300
0300
0300
03C0
00F8
01F8
03C0
0300
0300
0300
0300
0300
0300
0300
0300
0300
0300
0300
0700
FE00
FC00
ENDCHAR
STARTCHAR asciitilde
ENCODING 126
SWIDTH 600 0
DWIDTH 22 0
BBX 16 6 3 9
BITMAP
1E02
3F07
7FCE
E3FE
C1FC
C078
ENDCHAR
STARTCHAR uni00A0
ENCODING 160
SWIDTH 600 0
DWIDTH 22 0
BBX 1 1 0 0
BITMAP
00
ENDCHAR
STARTCHAR exclamdown
ENCODING 161
SWIDTH 600 0
DWIDTH 22 0
BBX 5 25 8 -7
BITMAP
70
F8
F8
F8
F8
70
00
00
00
30
30
30
30
30
30
30
30
30
30
70
70
70
70
70
70
ENDCHAR
STARTCHAR cent
ENCODING 162
SWIDTH 600 0
DWIDTH 22 0
BBX 14 26 4 -2
BITMAP
0180
0180
0180
0180
07E0
1FF8
3FFC
3D98
7990
7180
E180
E180
E180
E180
E180
E180
7180
7988
7D9C
3FFC
1FF8
07E0
0180
0180
0180
0180
ENDCHAR
STARTCHAR sterling
ENCODING 163
SWIDTH 600 0
DWIDTH 22 0
BBX 16 23 3 0
BITMAP
03F8
0FFC
1FFE
1E0F
3C02
3800
3800
3800
1800
1C00
FFF8
FFF8
FFF8
0E00
0E00
0E00
0E00
0C00
1C00
3800
FFFF
FFFF
FFFF
ENDCHAR
STARTCHAR currency
ENCODING 164
SWIDTH 600 0
DWIDTH 22 0
BBX 18 19 2 2
BITMAP
400100
E00180
73E3C0
3FFF00
1FFE00
1E1E00
3C0E00
380700
380700
380700
380700
380700
3C0E00
1E1E00
1FFE00
3FFF00
73E380
E001C0
400100
ENDCHAR
STARTCHAR yen
ENCODING 165
SWIDTH 600 0
DWIDTH 22 0
BBX 18 23 2 0
BITMAP
E003C0
700380
700700
380700
380E00
1C0E00
0C1C00
0E1800
063800
073000
037000
01E000
7FFF80
7FFF80
01C000
01C000
7FFF80
7FFF80
01C000
01C000
01C000
01C000
01C000
ENDCHAR
STARTCHAR brokenbar
ENCODING 166
SWIDTH 600 0
DWIDTH 22 0
BBX 3 36 9 -9
BITMAP
E0
E0
E0
E0
E0
E0
E0
E0
E0
E0
E0
E0
E0
E0
E0
E0
00
00
00
00
E0
E0
E0
E0
E0
E0
E0
E0
E0
E0
E0
E0
E0
E0
E0
E0
ENDCHAR
STARTCHAR section
ENCODING 167
SWIDTH 600 0
DWIDTH 22 0
BBX 15 28 3 -3
BITMAP
07C0
0FF0
1FF8
1C3C
3810
3800
1C00
1E00
1F80
7BE0
70F8
E03C
E01E
E00E
6006
7806
3C06
1F8E
07FC
00F0
0078
0038
0038
2038
7878
3FF0
1FF0
0FC0
ENDCHAR
STARTCHAR dieresis
ENCODING 168
SWIDTH 600 0
DWIDTH 22 0
BBX 11 4 5 21
BITMAP
70E0
F1E0
F1E0
70E0
ENDCHAR
STARTCHAR copyright
ENCODING 169
SWIDTH 600 0
DWIDTH 22 0
BBX 20 23 1 0
BITMAP
01F800
060600
180300
300180
2000C0
61F840
43F860
47FC60
C70820
CE0020
CE0020
CE0030
CE0020
C60820
C7DC60
43FC60
61F860
6020C0
3001C0
180380
1E0700
07FE00
01F800
ENDCHAR
STARTCHAR ordfeminine
ENCODING 170
SWIDTH 600 0
DWIDTH 22 0
BBX 10 12 6 14
BITMAP
1F00
7F80
E1C0
01C0
00C0
0FC0
78C0
C0C0
C0C0
E3C0
FFC0
7CC0
ENDCHAR
STARTCHAR guillemotleft
ENCODING 171
SWIDTH 600 0
DWIDTH 22 0
BBX 15 14 3 2
BITMAP
0404
0E0E
1C1C
3838
7078
F0F0
E0E0
E0E0
F0F0
7078
3838
1C1C
0E0E
0404
ENDCHAR
STARTCHAR logicalnot
ENCODING 172
SWIDTH 600 0
DWIDTH 22 0
BBX 16 10 3 3
BITMAP
FFFF
FFFF
FFFF
0007
0007
0007
0007
0007
0007
0007
ENDCHAR
STARTCHAR uni00AD
ENCODING 173
SWIDTH 600 0
DWIDTH 22 0
BBX 16 3 3 10
BITMAP
FFFF
FFFF
FFFF
ENDCHAR
STARTCHAR registered
ENCODING 174
SWIDTH 600 0
DWIDTH 22 0
BBX 14 14 4 12
BITMAP
0F80
3860
6030
4F98
CFC8
CCC8
8CCC
8F0C
CD88
CC88
4CD8
6030
3860
0F80
ENDCHAR
STARTCHAR macron
ENCODING 175
SWIDTH 600 0
DWIDTH 22 0
BBX 10 2 6 22
BITMAP
FFC0
FFC0
ENDCHAR
STARTCHAR degree
ENCODING 176
SWIDTH 600 0
DWIDTH 22 0
BBX 9 10 6 15
BITMAP
1E00
3F00
6380
C180
C180
C180
C180
6380
3F00
1E00
ENDCHAR
STARTCHAR plusminus
ENCODING 177
SWIDTH 600 0
DWIDTH 22 0
BBX 16 21 3 0
BITMAP
0180
0180
0180
0180
0180
0180
0180
FFFF
FFFF
FFFF
0180
0180
0180
0180
0180
0180
0000
0000
FFFF
FFFF
FFFF
ENDCHAR
STARTCHAR two.sups
ENCODING 178
SWIDTH 600 0
DWIDTH 22 0
BBX 11 14 5 15
BITMAP
1F00
3FC0
7FC0
E1C0
40C0
00C0
0080
0180
0600
0C00
3800
7FE0
7FE0
7FE0
ENDCHAR
STARTCHAR three.sups
ENCODING 179
SWIDTH 600 0
DWIDTH 22 0
BBX 11 15 5 14
BITMAP
1F00
3FC0
61C0
40C0
00C0
00C0
0180
0F00
01C0
00E0
0060
4060
E1E0
7FC0
1F00
ENDCHAR
STARTCHAR acute
ENCODING 180
SWIDTH 600 0
DWIDTH 22 0
BBX 8 8 8 20
BITMAP
04
0E
0F
1C
38
70
F0
20
ENDCHAR
STARTCHAR uni00B5
ENCODING 181
SWIDTH 600 0
DWIDTH 22 0
BBX 17 25 3 -7
BITMAP
E00E00
E00E00
E00E00
E00E00
E00E00
E00E00
E00E00
E00E00
E00E00
E00E00
E00E00
E00E00
E01E00
F03E00
F87E00
FFEF80
FFC780
EF8780
E00000
E00000
E00000
E00000
E00000
E00000
E00000
ENDCHAR
STARTCHAR paragraph
ENCODING 182
SWIDTH 600 0
DWIDTH 22 0
BBX 14 27 3 -3
BITMAP
0FCC
3FCC
7FCC
7FCC
FFCC
FFCC
FFCC
FFCC
FFCC
FFCC
FFCC
FFCC
7FCC
3FCC
1FCC
000C
000C
000C
000C
000C
000C
000C
000C
000C
000C
000C
000C
ENDCHAR
STARTCHAR periodcentered
ENCODING 183
SWIDTH 600 0
DWIDTH 22 0
BBX 6 6 8 10
BITMAP
70
F8
FC
FC
F8
70
ENDCHAR
STARTCHAR cedilla
ENCODING 184
SWIDTH 600 0
DWIDTH 22 0
BBX 7 9 7 -9
BITMAP
18
30
30
38
1C
0E
0C
1C
F0
ENDCHAR
STARTCHAR one.sups
ENCODING 185
SWIDTH 600 0
DWIDTH 22 0
BBX 11 14 6 15
BITMAP
0E00
7E00
7E00
0600
0600
0600
0600
0600
0600
0600
0600
FFE0
FFE0
FFE0
ENDCHAR
STARTCHAR ordmasculine
ENCODING 186
SWIDTH 600 0
DWIDTH 22 0
BBX 11 12 5 14
BITMAP
1F00
3FC0
70E0
60E0
E060
E060
C060
E060
60E0
70E0
3FC0
1F00
ENDCHAR
STARTCHAR guillemotright
ENCODING 187
SWIDTH 600 0
DWIDTH 22 0
BBX 16 14 3 2
BITMAP
4020
E070
3038
381C
1C1E
0E0F
0607
0607
0E0F
1C1E
381C
3038
6070
C020
ENDCHAR
STARTCHAR onequarter
ENCODING 188
SWIDTH 600 0
DWIDTH 22 0
BBX 20 23 1 0
BITMAP
0E0000
7E0040
7E0060
0E00F0
0E01C0
0E0380
0E0700
0E0E00
0E0C00
0E0000
0E0000
000000
000200
000700
030600
060CC0
0C0CC0
1818C0
3838C0
703FF0
E03FF0
4000C0
0000C0
ENDCHAR
STARTCHAR onehalf
ENCODING 189
SWIDTH 600 0
DWIDTH 22 0
BBX 20 23 1 0
BITMAP
0E0000
7E0040
7E0060
0E00F0
0E01C0
0E0380
0E0700
0E0E00
0E0C00
0E0000
0E0000
000000
000780
001FC0
0338E0
0610E0
0C00E0
1800C0
380180
700300
E00E00
401FE0
001FE0
ENDCHAR
STARTCHAR threequarters
ENCODING 190
SWIDTH 600 0
DWIDTH 22 0
BBX 21 24 1 0
BITMAP
3E0000
7F0000
630020
038070
030078
0700E0
1E01C0
038380
818700
E38600
7F8000
3E0000
000000
000200
000700
010600
038CC0
060CC0
0C18C0
1C38C0
383FF0
703FF0
2000C0
0000C0
ENDCHAR
STARTCHAR questiondown
ENCODING 191
SWIDTH 600 0
DWIDTH 22 0
BBX 14 25 4 -7
BITMAP
0380
07C0
07C0
07C0
07C0
0380
0000
0000
0000
0380
0380
0380
0700
0E00
1C00
3800
7000
7000
E000
E000
F018
783C
7FF8
3FF0
0FC0
ENDCHAR
STARTCHAR Agrave
ENCODING 192
SWIDTH 600 0
DWIDTH 22 0
BBX 19 31 1 0
BITMAP
010000
038000
07C000
01E000
007000
002000
000000
00F000
00F000
01F000
01B800
01B800
039800
039C00
031C00
070C00
070E00
060E00
0E0600
0E0700
0C0700
1FFF00
1FFF80
1FFF80
380380
3801C0
3801C0
7001C0
7001E0
7000E0
E000E0
ENDCHAR
STARTCHAR Aacute
ENCODING 193
SWIDTH 600 0
DWIDTH 22 0
BBX 19 31 1 0
BITMAP
000800
001C00
003800
007000
01E000
008000
000000
00F000
00F000
01F000
01B800
01B800
039800
039C00
031C00
070C00
070E00
060E00
0E0600
0E0700
0C0700
1FFF00
1FFF80
1FFF80
380380
3801C0
3801C0
7001C0
7001E0
7000E0
E000E0
ENDCHAR
STARTCHAR Acircumflex
ENCODING 194
SWIDTH 600 0
DWIDTH 22 0
BBX 19 30 1 0
BITMAP
00F000
01F800
039C00
070E00
0C0600
000000
00F000
00F000
01F000
01B800
01B800
039800
039C00
031C00
070C00
070E00
060E00
0E0600
0E0700
0C0700
1FFF00
1FFF80
1FFF80
380380
3801C0
3801C0
7001C0
7001E0
7000E0
E000E0
ENDCHAR
STARTCHAR Atilde
ENCODING 195
SWIDTH 600 0
DWIDTH 22 0
BBX 19 31 1 0
BITMAP
078300
0FC300
0CE700
0C7E00
181C00
000000
000000
00F000
00F000
01F000
01B800
01B800
039800
039C00
031C00
070C00
070E00
060E00
0E0600
0E0700
0C0700
1FFF00
1FFF80
1FFF80
380380
3801C0
3801C0
7001C0
7001E0
7000E0
E000E0
ENDCHAR
STARTCHAR Adieresis
ENCODING 196
SWIDTH 600 0
DWIDTH 22 0
BBX 19 30 1 0
BITMAP
070C00
071E00
071E00
070C00
000000
000000
00F000
00F000
01F000
01B800
01B800
039800
039C00
031C00
070C00
070E00
060E00
0E0600
0E0700
0C0700
1FFF00
1FFF80
1FFF80
380380
3801C0
3801C0
7001C0
7001E0
7000E0
E000E0
ENDCHAR
STARTCHAR Aring
ENCODING 197
SWIDTH 600 0
DWIDTH 22 0
BBX 19 31 1 0
BITMAP
00F000
019800
030800
030800
019800
00F000
000000
00F000
00F000
01F000
01B800
01B800
039800
039C00
031C00
070C00
070E00
060E00
0E0600
0E0700
0C0700
1FFF00
1FFF80
1FFF80
380380
3801C0
3801C0
7001C0
7001E0
7000E0
E000E0
ENDCHAR
STARTCHAR AE
ENCODING 198
SWIDTH 600 0
DWIDTH 22 0
BBX 21 24 0 0
BITMAP
007FF8
007FF8
00FFF8
00FC00
00FC00
01DC00
01DC00
039C00
039C00
039C00
071FE0
071FE0
071FE0
0E1C00
0E1C00
1FFC00
1FFC00
1FFC00
3C1C00
381C00
781C00
701FF8
701FF8
E01FF8
ENDCHAR
STARTCHAR Ccedilla
ENCODING 199
SWIDTH 600 0
DWIDTH 22 0
BBX 18 33 2 -9
BITMAP
00FC00
07FE00
0FFF80
1F0780
3C0100
380000
780000
700000
700000
F00000
F00000
E00000
E00000
F00000
700000
700000
700000
780000
380100
3C0180
1F07C0
0FFF80
07FE00
01FC00
003000
006000
006000
007000
00B800
001800
001800
003800
01E000
ENDCHAR
STARTCHAR Egrave
ENCODING 200
SWIDTH 600 0
DWIDTH 22 0
BBX 15 31 4 0
BITMAP
0400
0E00
1F00
0380
01C0
0080
0000
FFFE
FFFE
FFFE
E000
E000
E000
E000
E000
E000
E000
FFF8
FFF8
FFF8
E000
E000
E000
E000
E000
E000
E000
E000
FFFE
FFFE
FFFE
ENDCHAR
STARTCHAR Eacute
ENCODING 201
SWIDTH 600 0
DWIDTH 22 0
BBX 15 31 4 0
BITMAP
0020
0070
00F0
01C0
0380
0300
0000
FFFE
FFFE
FFFE
E000
E000
E000
E000
E000
E000
E000
FFF8
FFF8
FFF8
E000
E000
E000
E000
E000
E000
E000
E000
FFFE
FFFE
FFFE
ENDCHAR
STARTCHAR Ecircumflex
ENCODING 202
SWIDTH 600 0
DWIDTH 22 0
BBX 15 30 4 0
BITMAP
03C0
07E0
0E70
1C38
1018
0000
FFFE
FFFE
FFFE
E000
E000
E000
E000
E000
E000
E000
FFF8
FFF8
FFF8
E000
E000
E000
E000
E000
E000
E000
E000
FFFE
FFFE
FFFE
ENDCHAR
STARTCHAR Edieresis
ENCODING 203
SWIDTH 600 0
DWIDTH 22 0
BBX 15 30 4 0
BITMAP
1C30
1C78
1C78
1C30
0000
0000
FFFE
FFFE
FFFE
E000
E000
E000
E000
E000
E000
E000
FFF8
FFF8
FFF8
E000
E000
E000
E000
E000
E000
E000
E000
FFFE
FFFE
FFFE
ENDCHAR
STARTCHAR Igrave
ENCODING 204
SWIDTH 600 0
DWIDTH 22 0
BBX 15 31 3 0
BITMAP
0400
0E00
1F00
0780
01C0
0080
0000
FFFE
FFFE
FFFE
0380
0380
0380
0380
0380
0380
0380
0380
0380
0380
0380
0380
0380
0380
0380
0380
0380
0380
FFFE
FFFE
FFFE
ENDCHAR
STARTCHAR Iacute
ENCODING 205
SWIDTH 600 0
DWIDTH 22 0
BBX 15 31 3 0
BITMAP
0020
0070
00E0
01C0
0780
0200
0000
FFFE
FFFE
FFFE
0380
0380
0380
0380
0380
0380
0380
0380
0380
0380
0380
0380
0380
0380
0380
0380
0380
0380
FFFE
FFFE
FFFE
ENDCHAR
STARTCHAR Icircumflex
ENCODING 206
SWIDTH 600 0
DWIDTH 22 0
BBX 15 30 3 0
BITMAP
03C0
07E0
0E70
1C38
3018
0000
FFFE
FFFE
FFFE
0380
0380
0380
0380
0380
0380
0380
0380
0380
0380
0380
0380
0380
0380
0380
0380
0380
0380
FFFE
FFFE
FFFE
ENDCHAR
STARTCHAR Idieresis
ENCODING 207
SWIDTH 600 0
DWIDTH 22 0
BBX 15 30 3 0
BITMAP
1C30
1C78
1C78
1C30
0000
0000
FFFE
FFFE
FFFE
0380
0380
0380
0380
0380
0380
0380
0380
0380
0380
0380
0380
0380
0380
0380
0380
0380
0380
FFFE
FFFE
FFFE
ENDCHAR
STARTCHAR Eth
ENCODING 208
SWIDTH 600 0
DWIDTH 22 0
BBX 20 24 0 0
BITMAP
1FF800
1FFE00
1FFF80
1C0F80
1C03C0
1C01E0
1C00E0
1C00E0
1C00F0
1C0070
FFE070
FFE070
FFE070
1C0070
1C0070
1C00F0
1C00E0
1C00E0
1C01E0
1C03C0
1C0F80
1FFF00
1FFE00
1FF800
ENDCHAR
STARTCHAR Ntilde
ENCODING 209
SWIDTH 600 0
DWIDTH 22 0
BBX 16 31 3 0
BITMAP
0E0E
1F8C
39CC
30FC
3078
0000
0000
F007
F007
F807
F807
DC07
FC07
EE07
EE07
E707
E707
E387
E387
E1C7
E1C7
E0E7
E0E7
E067
E077
E037
E03F
E01F
E01F
E00F
E00F
ENDCHAR
STARTCHAR Ograve
ENCODING 210
SWIDTH 600 0
DWIDTH 22 0
BBX 18 31 2 0
BITMAP
020000
070000
0F8000
03C000
00E000
004000
000000
03F000
0FFC00
1FFE00
3E1F00
780F00
700780
700380
E00380
E003C0
E003C0
E001C0
E001C0
E001C0
E001C0
E001C0
E003C0
E00380
700380
700780
780F00
3E1F00
1FFE00
0FFC00
03F000
ENDCHAR
STARTCHAR Oacute
ENCODING 211
SWIDTH 600 0
DWIDTH 22 0
BBX 18 31 2 0
BITMAP
001000
003800
007000
00E000
03C000
010000
000000
03F000
0FFC00
1FFE00
3E1F00
780F00
700780
700380
E00380
E003C0
E003C0
E001C0
E001C0
E001C0
E001C0
E001C0
E003C0
E00380
700380
700780
780F00
3E1F00
1FFE00
0FFC00
03F000
ENDCHAR
STARTCHAR Ocircumflex
ENCODING 212
SWIDTH 600 0
DWIDTH 22 0
BBX 18 30 2 0
BITMAP
01E000
03F000
073800
0E1C00
180C00
000000
03F000
0FFC00
1FFE00
3E1F00
780F00
700780
700380
E00380
E003C0
E003C0
E001C0
E001C0
E001C0
E001C0
E001C0
E003C0
E00380
700380
700780
780F00
3E1F00
1FFE00
0FFC00
03F000
ENDCHAR
STARTCHAR Otilde
ENCODING 213
SWIDTH 600 0
DWIDTH 22 0
BBX 18 31 2 0
BITMAP
0F0600
1F8600
19CE00
18FC00
303800
000000
000000
03F000
0FFC00
1FFE00
3E1F00
780F00
700780
700380
E00380
E003C0
E003C0
E001C0
E001C0
E001C0
E001C0
E001C0
E003C0
E00380
700380
700780
780F00
3E1F00
1FFE00
0FFC00
03F000
ENDCHAR
STARTCHAR Odieresis
ENCODING 214
SWIDTH 600 0
DWIDTH 22 0
BBX 18 30 2 0
BITMAP
0E1800
0E3C00
0E3C00
0E1800
000000
000000
03F000
0FFC00
1FFE00
3E1F00
780F00
700780
700380
E00380
E003C0
E003C0
E001C0
E001C0
E001C0
E001C0
E001C0
E003C0
E00380
700380
700780
780F00
3E1F00
1FFE00
0FFC00
03F000
ENDCHAR
STARTCHAR multiply
ENCODING 215
SWIDTH 600 0
DWIDTH 22 0
BBX 14 15 4 4
BITMAP
4008
E01C
E038
7070
38E0
1DC0
0F80
0700
0F80
1DC0
38E0
7870
F038
E01C
4008
ENDCHAR
STARTCHAR Oslash
ENCODING 216
SWIDTH 600 0
DWIDTH 22 0
BBX 19 26 1 -1
BITMAP
000040
01F8E0
07FEE0
0FFFC0
1F0F80
3C0780
3807C0
780FC0
701DC0
701DE0
7038E0
7070E0
7070E0
70E0E0
71C0E0
7180E0
7381E0
7701C0
3E01C0
3E03C0
3C0780
3E0F80
3FFF00
77FE00
E1F800
200000
ENDCHAR
STARTCHAR Ugrave
ENCODING 217
SWIDTH 600 0
DWIDTH 22 0
BBX 16 31 3 0
BITMAP
0400
0E00
1F00
0780
01C0
0080
0000
E007
E007
E007
E007
E007
E007
E007
E007
E007
E007
E007
E007
E007
E007
E007
E007
E007
E00F
F00E
701E
7C3C
3FFC
1FF8
07E0
ENDCHAR
STARTCHAR Uacute
ENCODING 218
SWIDTH 600 0
DWIDTH 22 0
BBX 16 31 3 0
BITMAP
0020
0070
00E0
01C0
0780
0200
0000
E007
E007
E007
E007
E007
E007
E007
E007
E007
E007
E007
E007
E007
E007
E007
E007
E007
E00F
F00E
701E
7C3C
3FFC
1FF8
07E0
ENDCHAR
STARTCHAR Ucircumflex
ENCODING 219
SWIDTH 600 0
DWIDTH 22 0
BBX 16 30 3 0
BITMAP
03C0
07E0
0E70
1C38
3018
0000
E007
E007
E007
E007
E007
E007
E007
E007
E007
E007
E007
E007
E007
E007
E007
E007
E007
E00F
F00E
701E
7C3C
3FFC
1FF8
07E0
ENDCHAR
STARTCHAR Udieresis
ENCODING 220
SWIDTH 600 0
DWIDTH 22 0
BBX 16 30 3 0
BITMAP
1C30
1C78
1C78
1C30
0000
0000
E007
E007
E007
E007
E007
E007
E007
E007
E007
E007
E007
E007
E007
E007
E007
E007
E007
E00F
F00E
701E
7C3C
3FFC
1FF8
07E0
ENDCHAR
STARTCHAR Yacute
ENCODING 221
SWIDTH 600 0
DWIDTH 22 0
BBX 19 31 1 0
BITMAP
000800
001C00
003800
007000
01E000
008000
000000
F000E0
7001C0
3801C0
380380
1C0380
1C0700
0E0700
0E0600
070E00
070C00
039C00
039800
01F800
01F000
00F000
00E000
00E000
00E000
00E000
00E000
00E000
00E000
00E000
00E000
ENDCHAR
STARTCHAR Thorn
ENCODING 222
SWIDTH 600 0
DWIDTH 22 0
BBX 16 24 4 0
BITMAP
E000
E000
E000
E000
FFE0
FFF8
FFFC
E03E
E00E
E00E
E007
E007
E007
E00E
E00E
E03E
FFFC
FFF8
FFE0
E000
E000
E000
E000
E000
ENDCHAR
STARTCHAR germandbls
ENCODING 223
SWIDTH 600 0
DWIDTH 22 0
BBX 17 26 3 0
BITMAP
0FC000
1FF000
3FF800
787800
703800
F03800
E03800
E03800
E03000
E06000
E0E000
E1C000
E1C000
E1E000
E1F000
E0FC00
E07E00
E01F00
E00780
E00380
E00380
E00380
E18380
E3FF00
E1FF00
E07C00
ENDCHAR
STARTCHAR agrave
ENCODING 224
SWIDTH 600 0
DWIDTH 22 0
BBX 16 28 3 0
BITMAP
0400
0E00
0F00
0780
0380
01C0
00E0
0040
0000
0000
07F0
1FF8
7FFC
783E
600E
000E
0007
00FF
0FFF
3FFF
7F07
F007
E007
E00F
F03F
7FF7
7FE7
1F87
ENDCHAR
STARTCHAR aacute
ENCODING 225
SWIDTH 600 0
DWIDTH 22 0
BBX 16 28 3 0
BITMAP
0010
0038
0078
0070
00E0
01C0
0380
0100
0000
0000
07F0
1FF8
7FFC
783E
600E
000E
0007
00FF
0FFF
3FFF
7F07
F007
E007
E00F
F03F
7FF7
7FE7
1F87
ENDCHAR
STARTCHAR acircumflex
ENCODING 226
SWIDTH 600 0
DWIDTH 22 0
BBX 16 27 3 0
BITMAP
01C0
03E0
0770
0E38
1C1C
0808
0000
0000
0000
07F0
1FF8
7FFC
783E
600E
000E
0007
00FF
0FFF
3FFF
7F07
F007
E007
E00F
F03F
7FF7
7FE7
1F87
ENDCHAR
STARTCHAR atilde
ENCODING 227
SWIDTH 600 0
DWIDTH 22 0
BBX 16 26 3 0
BITMAP
0E06
1F86
19CC
38FC
3078
0000
0000
0000
07F0
1FF8
7FFC
783E
600E
000E
0007
00FF
0FFF
3FFF
7F07
F007
E007
E00F
F03F
7FF7
7FE7
1F87
ENDCHAR
STARTCHAR adieresis
ENCODING 228
SWIDTH 600 0
DWIDTH 22 0
BBX 16 25 3 0
BITMAP
0C18
1E3C
1E3C
0C18
0000
0000
0000
07F0
1FF8
7FFC
783E
600E
000E
0007
00FF
0FFF
3FFF
7F07
F007
E007
E00F
F03F
7FF7
7FE7
1F87
ENDCHAR
STARTCHAR aring
ENCODING 229
SWIDTH 600 0
DWIDTH 22 0
BBX 16 27 3 0
BITMAP
03E0
0630
0610
0630
0630
03E0
0000
0000
0000
07F0
1FF8
7FFC
783E
600E
000E
0007
00FF
0FFF
3FFF
7F07
F007
E007
E00F
F03F
7FF7
7FE7
1F87
ENDCHAR
STARTCHAR ae
ENCODING 230
SWIDTH 600 0
DWIDTH 22 0
BBX 20 18 1 0
BITMAP
1F0780
7F9FE0
FFDFE0
61F870
00F030
00E030
006030
03FFF0
1FFFF0
7C7FF0
F06000
E06000
C07000
C07000
E1F820
FFBFF0
7F1FE0
3E07C0
ENDCHAR
STARTCHAR ccedilla
ENCODING 231
SWIDTH 600 0
DWIDTH 22 0
BBX 16 27 3 -9
BITMAP
03F0
0FFC
1FFE
3E0F
7802
F000
E000
E000
E000
E000
E000
E000
F000
7803
3E0F
3FFF
0FFC
03F0
00C0
00C0
00C0
01E0
0070
0030
0030
0060
03C0
ENDCHAR
STARTCHAR egrave
ENCODING 232
SWIDTH 600 0
DWIDTH 22 0
BBX 17 28 2 0
BITMAP
020000
070000
0F8000
038000
01C000
00E000
007000
002000
000000
000000
03F000
0FFC00
1FFE00
3E0F00
380380
700380
700180
7FFF80
FFFF80
FFFF80
700000
700000
700000
380100
3E0700
1FFF80
0FFE00
01F800
ENDCHAR
STARTCHAR eacute
ENCODING 233
SWIDTH 600 0
DWIDTH 22 0
BBX 17 28 2 0
BITMAP
000800
001C00
003C00
007800
007000
00E000
01C000
008000
000000
000000
03F000
0FFC00
1FFE00
3E0F00
380380
700380
700180
7FFF80
FFFF80
FFFF80
700000
700000
700000
380100
3E0700
1FFF80
0FFE00
01F800
ENDCHAR
STARTCHAR ecircumflex
ENCODING 234
SWIDTH 600 0
DWIDTH 22 0
BBX 17 27 2 0
BITMAP
01E000
01F000
03B800
071C00
0E0E00
0C0400
000000
000000
000000
03F000
0FFC00
1FFE00
3E0F00
380380
700380
700180
7FFF80
FFFF80
FFFF80
700000
700000
700000
380100
3E0700
1FFF80
0FFE00
01F800
ENDCHAR
STARTCHAR edieresis
ENCODING 235
SWIDTH 600 0
DWIDTH 22 0
BBX 17 25 2 0
BITMAP
060C00
0F1E00
0F1E00
061C00
000000
000000
000000
03F000
0FFC00
1FFE00
3E0F00
380380
700380
700180
7FFF80
FFFF80
FFFF80
700000
700000
700000
380100
3E0700
1FFF80
0FFE00
01F800
ENDCHAR
STARTCHAR igrave
ENCODING 236
SWIDTH 600 0
DWIDTH 22 0
BBX 12 28 3 0
BITMAP
0200
0700
0780
0380
01C0
00E0
0070
0020
0000
0000
FFE0
FFE0
FFE0
00E0
00E0
00E0
00E0
00E0
00E0
00E0
00E0
00E0
00E0
00E0
00E0
00E0
00E0
00E0
ENDCHAR
STARTCHAR iacute
ENCODING 237
SWIDTH 600 0
DWIDTH 22 0
BBX 14 28 3 0
BITMAP
0008
001C
003C
0038
0070
00E0
01C0
0080
0000
0000
FFE0
FFE0
FFE0
00E0
00E0
00E0
00E0
00E0
00E0
00E0
00E0
00E0
00E0
00E0
00E0
00E0
00E0
00E0
ENDCHAR
STARTCHAR icircumflex
ENCODING 238
SWIDTH 600 0
DWIDTH 22 0
BBX 15 27 3 0
BITMAP
00E0
01F0
03B8
071C
0E0E
0404
0000
0000
0000
FFE0
FFE0
FFE0
00E0
00E0
00E0
00E0
00E0
00E0
00E0
00E0
00E0
00E0
00E0
00E0
00E0
00E0
00E0
ENDCHAR
STARTCHAR idieresis
ENCODING 239
SWIDTH 600 0
DWIDTH 22 0
BBX 15 25 3 0
BITMAP
060C
0F1E
0F1E
060C
0000
0000
0000
FFE0
FFE0
FFE0
00E0
00E0
00E0
00E0
00E0
00E0
00E0
00E0
00E0
00E0
00E0
00E0
00E0
00E0
00E0
ENDCHAR
STARTCHAR eth
ENCODING 240
SWIDTH 600 0
DWIDTH 22 0
BBX 17 26 2 0
BITMAP
040200
0F0700
07DF80
01FC00
01F000
07F800
1F1C00
0C0E00
000E00
000700
07E700
1FFB80
3FFF80
7C1F80
700780
F00380
E00380
E00380
E00380
E00380
700380
780700
3C1F00
3FFE00
0FFC00
03F000
ENDCHAR
STARTCHAR ntilde
ENCODING 241
SWIDTH 600 0
DWIDTH 22 0
BBX 16 26 3 0
BITMAP
0E06
1F8E
19CC
30FC
3078
0000
0000
0000
E1F8
E7FC
EFFE
FE1E
F80F
F007
E007
E007
E007
E007
E007
E007
E007
E007
E007
E007
E007
E007
ENDCHAR
STARTCHAR ograve
ENCODING 242
SWIDTH 600 0
DWIDTH 22 0
BBX 17 28 2 0
BITMAP
040000
060000
0F0000
078000
03C000
01C000
00E000
004000
000000
000000
03F000
0FFC00
1FFE00
3C1F00
780700
700780
F00380
E00380
E00380
E00380
E00380
F00380
700780
780700
3C1F00
1FFE00
0FFC00
03F000
ENDCHAR
STARTCHAR oacute
ENCODING 243
SWIDTH 600 0
DWIDTH 22 0
BBX 17 28 2 0
BITMAP
001000
003800
003C00
007000
00E000
01C000
03C000
008000
000000
000000
03F000
0FFC00
1FFE00
3C1F00
780700
700780
F00380
E00380
E00380
E00380
E00380
F00380
700780
780700
3C1F00
1FFE00
0FFC00
03F000
ENDCHAR
STARTCHAR ocircumflex
ENCODING 244
SWIDTH 600 0
DWIDTH 22 0
BBX 17 27 2 0
BITMAP
01E000
03F000
077000
0E3800
0C1C00
180400
000000
000000
000000
03F000
0FFC00
1FFE00
3C1F00
780700
700780
F00380
E00380
E00380
E00380
E00380
F00380
700780
780700
3C1F00
1FFE00
0FFC00
03F000
ENDCHAR
STARTCHAR otilde
ENCODING 245
SWIDTH 600 0
DWIDTH 22 0
BBX 17 26 2 0
BITMAP
070600
1F8600
19CE00
18FC00
183800
000000
000000
000000
03F000
0FFC00
1FFE00
3C1F00
780700
700780
F00380
E00380
E00380
E00380
E00380
F00380
700780
780700
3C1F00
1FFE00
0FFC00
03F000
ENDCHAR
STARTCHAR odieresis
ENCODING 246
SWIDTH 600 0
DWIDTH 22 0
BBX 17 25 2 0
BITMAP
0E1C00
1E3C00
1E3C00
0E1C00
000000
000000
000000
03F000
0FFC00
1FFE00
3C1F00
780700
700780
F00380
E00380
E00380
E00380
E00380
F00380
700780
780700
3C1F00
1FFE00
0FFC00
03F000
ENDCHAR
STARTCHAR divide
ENCODING 247
SWIDTH 600 0
DWIDTH 22 0
BBX 16 17 3 3
BITMAP
0380
03C0
03C0
0380
0000
0000
0000
FFFF
FFFF
FFFF
0000
0000
0000
0380
03C0
03C0
0380
ENDCHAR
STARTCHAR oslash
ENCODING 248
SWIDTH 600 0
DWIDTH 22 0
BBX 17 20 2 -1
BITMAP
000100
03F180
0FFF80
1FFF00
3C0F00
781F00
703B80
F07380
E07380
E0E380
E1C380
E38380
F70380
7E0780
7C0700
3C1F00
3FFE00
7FFC00
E3F000
400000
ENDCHAR
STARTCHAR ugrave
ENCODING 249
SWIDTH 600 0
DWIDTH 22 0
BBX 15 28 3 0
BITMAP
0800
1C00
1E00
0F00
0700
0380
01C0
0080
0000
0000
E00E
E00E
E00E
E00E
E00E
E00E
E00E
E00E
E00E
E00E
E00E
E00E
E01E
E03E
F87E
7FE6
7FC6
1F86
ENDCHAR
STARTCHAR uacute
ENCODING 250
SWIDTH 600 0
DWIDTH 22 0
BBX 15 28 3 0
BITMAP
0020
0070
00F8
00E0
01C0
0380
0700
0200
0000
0000
E00E
E00E
E00E
E00E
E00E
E00E
E00E
E00E
E00E
E00E
E00E
E00E
E01E
E03E
F87E
7FE6
7FC6
1F86
ENDCHAR
STARTCHAR ucircumflex
ENCODING 251
SWIDTH 600 0
DWIDTH 22 0
BBX 15 27 3 0
BITMAP
03C0
07C0
0EE0
1C70
3838
1018
0000
0000
0000
E00E
E00E
E00E
E00E
E00E
E00E
E00E
E00E
E00E
E00E
E00E
E00E
E01E
E03E
F87E
7FE6
7FC6
1F86
ENDCHAR
STARTCHAR udieresis
ENCODING 252
SWIDTH 600 0
DWIDTH 22 0
BBX 15 25 3 0
BITMAP
1830
3C78
3C78
1C30
0000
0000
0000
E00E
E00E
E00E
E00E
E00E
E00E
E00E
E00E
E00E
E00E
E00E
E00E
E01E
E03E
F87E
7FE6
7FC6
1F86
ENDCHAR
STARTCHAR yacute
ENCODING 253
SWIDTH 600 0
DWIDTH 22 0
BBX 18 35 2 -7
BITMAP
001000
001800
003C00
007800
00F000
01E000
01C000
008000
000000
000000
E001C0
E00380
700380
700300
380700
380700
1C0E00
1C0E00
0E0C00
0E1C00
061C00
071800
033800
03B000
03F000
01F000
01E000
00E000
00C000
01C000
038000
078000
7F0000
7E0000
F80000
ENDCHAR
STARTCHAR thorn
ENCODING 254
SWIDTH 600 0
DWIDTH 22 0
BBX 16 33 3 -7
BITMAP
E000
E000
E000
E000
E000
E000
E000
E000
E1F0
E7FC
FFFE
FC1E
F80F
E007
E007
E007
E007
E007
E007
E007
E00F
F00E
FC3E
FFFC
EFF8
E3E0
E000
E000
E000
E000
E000
E000
E000
ENDCHAR
STARTCHAR ydieresis
ENCODING 255
SWIDTH 600 0
DWIDTH 22 0
BBX 18 32 2 -7
BITMAP
0E1C00
0E3C00
1E1C00
0E1C00
000000
000000
000000
E001C0
E00380
700380
700300
380700
380700
1C0E00
1C0E00
0E0C00
0E1C00
061C00
071800
033800
03B000
03F000
01F000
01E000
00E000
00C000
01C000
038000
078000
7F0000
7E0000
F80000
ENDCHAR
STARTCHAR Amacron
ENCODING 256
SWIDTH 600 0
DWIDTH 22 0
BBX 19 28 1 0
BITMAP
07FE00
07FE00
000000
000000
00F000
00F000
01F000
01B800
01B800
039800
039C00
031C00
070C00
070E00
060E00
0E0600
0E0700
0C0700
1FFF00
1FFF80
1FFF80
380380
3801C0
3801C0
7001C0
7001E0
7000E0
E000E0
ENDCHAR
STARTCHAR amacron
ENCODING 257
SWIDTH 600 0
DWIDTH 22 0
BBX 16 24 3 0
BITMAP
0FF8
0FF8
0000
0000
0000
0000
07F0
1FF8
7FFC
783E
600E
000E
0007
00FF
0FFF
3FFF
7F07
F007
E007
E00F
F03F
7FF7
7FE7
1F87
ENDCHAR
STARTCHAR Abreve
ENCODING 258
SWIDTH 600 0
DWIDTH 22 0
BBX 19 30 1 0
BITMAP
040600
060600
070C00
03FC00
01F000
000000
00F000
00F000
01F000
01B800
01B800
039800
039C00
031C00
070C00
070E00
060E00
0E0600
0E0700
0C0700
1FFF00
1FFF80
1FFF80
380380
3801C0
3801C0
7001C0
7001E0
7000E0
E000E0
ENDCHAR
STARTCHAR abreve
ENCODING 259
SWIDTH 600 0
DWIDTH 22 0
BBX 16 26 3 0
BITMAP
180C
180C
0E38
0FF8
03E0
0000
0000
0000
07F0
1FF8
7FFC
783E
600E
000E
0007
00FF
0FFF
3FFF
7F07
F007
E007
E00F
F03F
7FF7
7FE7
1F87
ENDCHAR
STARTCHAR Aogonek
ENCODING 260
SWIDTH 600 0
DWIDTH 22 0
BBX 21 33 1 -9
BITMAP
00F000
00F000
01F000
01B800
01B800
039800
039C00
031C00
070C00
070E00
060E00
0E0600
0E0700
0C0700
1FFF00
1FFF80
1FFF80
380380
3801C0
3801C0
7001C0
7001E0
7000E0
E000E0
0000E0
000180
000180
000300
000300
000390
0003F8
0003F8
0001E0
ENDCHAR
STARTCHAR aogonek
ENCODING 261
SWIDTH 600 0
DWIDTH 22 0
BBX 17 26 3 -8
BITMAP
07F000
1FF800
7FFC00
783E00
600E00
000E00
000700
00FF00
0FFF00
3FFF00
7F0700
F00700
E00700
E00F00
F03F00
7FF700
7FC700
1F0E00
001800
001000
003000
003000
003100
003F80
003F00
001E00
ENDCHAR
STARTCHAR Cacute
ENCODING 262
SWIDTH 600 0
DWIDTH 22 0
BBX 18 31 2 0
BITMAP
000400
001E00
003C00
007800
00E000
004000
000000
00FC00
07FE00
0FFF80
1F0780
3C0100
380000
780000
700000
700000
F00000
F00000
E00000
E00000
F00000
700000
700000
700000
780000
380100
3C0180
1F07C0
0FFF80
07FE00
01FC00
ENDCHAR
STARTCHAR cacute
ENCODING 263
SWIDTH 600 0
DWIDTH 22 0
BBX 16 28 3 0
BITMAP
0008
001C
003C
0078
0070
00E0
01C0
0080
0000
0000
03F0
0FFC
1FFE
3E0F
7802
F000
E000
E000
E000
E000
E000
E000
F000
7803
3E0F
3FFF
0FFC
03F0
ENDCHAR
STARTCHAR Ccircumflex
ENCODING 264
SWIDTH 600 0
DWIDTH 22 0
BBX 18 30 2 0
BITMAP
00F000
00F800
018C00
030600
060300
000000
00FC00
07FE00
0FFF80
1F0780
3C0100
380000
780000
700000
700000
F00000
F00000
E00000
E00000
F00000
700000
700000
700000
780000
380100
3C0180
1F07C0
0FFF80
07FE00
01FC00
ENDCHAR
STARTCHAR ccircumflex
ENCODING 265
SWIDTH 600 0
DWIDTH 22 0
BBX 16 27 3 0
BITMAP
00E0
01F0
03B8
071C
0E0E
0404
0000
0000
0000
03F0
0FFC
1FFE
3E0F
7802
F000
E000
E000
E000
E000
E000
E000
F000
7803
3E0F
3FFF
0FFC
03F0
ENDCHAR
STARTCHAR Cdotaccent
ENCODING 266
SWIDTH 600 0
DWIDTH 22 0
BBX 18 30 2 0
BITMAP
007000
00F800
00F800
007000
000000
000000
00FC00
07FE00
0FFF80
1F0780
3C0100
380000
780000
700000
700000
F00000
F00000
E00000
E00000
F00000
700000
700000
700000
780000
380100
3C0180
1F07C0
0FFF80
07FE00
01FC00
ENDCHAR
STARTCHAR cdotaccent
ENCODING 267
SWIDTH 600 0
DWIDTH 22 0
BBX 16 26 3 0
BITMAP
00E0
01F0
01F0
01F0
00E0
0000
0000
0000
03F0
0FFC
1FFE
3E0F
7802
F000
E000
E000
E000
E000
E000
E000
F000
7803
3E0F
3FFF
0FFC
03F0
ENDCHAR
STARTCHAR Ccaron
ENCODING 268
SWIDTH 600 0
DWIDTH 22 0
BBX 18 30 2 0
BITMAP
020200
070700
019C00
01F800
00F000
000000
00FC00
07FE00
0FFF80
1F0780
3C0100
380000
780000
700000
700000
F00000
F00000
E00000
E00000
F00000
700000
700000
700000
780000
380100
3C0180
1F07C0
0FFF80
07FE00
01FC00
ENDCHAR
STARTCHAR ccaron
ENCODING 269
SWIDTH 600 0
DWIDTH 22 0
BBX 16 27 3 0
BITMAP
0404
0E0E
071C
03B8
01F0
00E0
0000
0000
0000
03F0
0FFC
1FFE
3E0F
7802
F000
E000
E000
E000
E000
E000
E000
F000
7803
3E0F
3FFF
0FFC
03F0
ENDCHAR
STARTCHAR Dcaron
ENCODING 270
SWIDTH 600 0
DWIDTH 22 0
BBX 17 30 3 0
BITMAP
101800
3C3800
0E7000
07E000
03C000
000000
FFC000
FFF000
FFFC00
E07C00
E01E00
E00F00
E00700
E00700
E00780
E00380
E00380
E00380
E00380
E00380
E00380
E00780
E00700
E00700
E00F00
E01E00
E07C00
FFF800
FFF000
FFC000
ENDCHAR
STARTCHAR dcaron
ENCODING 271
SWIDTH 600 0
DWIDTH 22 0
BBX 20 30 2 0
BITMAP
000030
000030
000030
000030
000E30
000E30
000E30
000E30
000E30
000E30
000E00
000E00
07CE00
1FF600
3FFE00
7C3E00
780E00
F00E00
E00E00
E00E00
E00E00
E00E00
E00E00
E00E00
F00E00
701E00
7C3E00
3FF600
1FE600
0FC600
ENDCHAR
STARTCHAR Dcroat
ENCODING 272
SWIDTH 600 0
DWIDTH 22 0
BBX 20 24 0 0
BITMAP
1FF800
1FFE00
1FFF80
1C0F80
1C03C0
1C01E0
1C00E0
1C00E0
1C00F0
1C0070
FFE070
FFE070
FFE070
1C0070
1C0070
1C00F0
1C00E0
1C00E0
1C01E0
1C03C0
1C0F80
1FFF00
1FFE00
1FF800
ENDCHAR
STARTCHAR dcroat
ENCODING 273
SWIDTH 600 0
DWIDTH 22 0
BBX 19 26 2 0
BITMAP
000700
000700
000700
01FFE0
01FFE0
01FFE0
000700
000700
000700
07E700
0FF700
3FFF00
3C1F00
780700
700700
F00700
E00700
E00700
E00700
E00700
F00700
780F00
7C1F00
3FFB00
1FF300
07C300
ENDCHAR
STARTCHAR Emacron
ENCODING 274
SWIDTH 600 0
DWIDTH 22 0
BBX 15 28 4 0
BITMAP
1FF8
1FF8
0000
0000
FFFE
FFFE
FFFE
E000
E000
E000
E000
E000
E000
E000
FFF8
FFF8
FFF8
E000
E000
E000
E000
E000
E000
E000
E000
FFFE
FFFE
FFFE
ENDCHAR
STARTCHAR emacron
ENCODING 275
SWIDTH 600 0
DWIDTH 22 0
BBX 17 24 2 0
BITMAP
07FC00
07FC00
000000
000000
000000
000000
03F000
0FFC00
1FFE00
3E0F00
380380
700380
700180
7FFF80
FFFF80
FFFF80
700000
700000
700000
380100
3E0700
1FFF80
0FFE00
01F800
ENDCHAR
STARTCHAR Ebreve
ENCODING 276
SWIDTH 600 0
DWIDTH 22 0
BBX 15 30 4 0
BITMAP
1818
1818
1C38
0FF0
07C0
0000
FFFE
FFFE
FFFE
E000
E000
E000
E000
E000
E000
E000
FFF8
FFF8
FFF8
E000
E000
E000
E000
E000
E000
E000
E000
FFFE
FFFE
FFFE
ENDCHAR
STARTCHAR ebreve
ENCODING 277
SWIDTH 600 0
DWIDTH 22 0
BBX 17 26 2 0
BITMAP
0C0600
0C0E00
0E1C00
07F800
01F000
000000
000000
000000
03F000
0FFC00
1FFE00
3E0F00
380380
700380
700180
7FFF80
FFFF80
FFFF80
700000
700000
700000
380100
3E0700
1FFF80
0FFE00
01F800
ENDCHAR
STARTCHAR Edotaccent
ENCODING 278
SWIDTH 600 0
DWIDTH 22 0
BBX 15 30 4 0
BITMAP
0380
03C0
03C0
0380
0000
0000
FFFE
FFFE
FFFE
E000
E000
E000
E000
E000
E000
E000
FFF8
FFF8
FFF8
E000
E000
E000
E000
E000
E000
E000
E000
FFFE
FFFE
FFFE
ENDCHAR
STARTCHAR edotaccent
ENCODING 279
SWIDTH 600 0
DWIDTH 22 0
BBX 17 26 2 0
BITMAP
00E000
01F000
01F000
01F000
00E000
000000
000000
000000
03F000
0FFC00
1FFE00
3E0F00
380380
700380
700180
7FFF80
FFFF80
FFFF80
700000
700000
700000
380100
3E0700
1FFF80
0FFE00
01F800
ENDCHAR
STARTCHAR Eogonek
ENCODING 280
SWIDTH 600 0
DWIDTH 22 0
BBX 16 33 4 -9
BITMAP
FFFE
FFFE
FFFE
E000
E000
E000
E000
E000
E000
E000
FFF8
FFF8
FFF8
E000
E000
E000
E000
E000
E000
E000
E000
FFFE
FFFE
FFFE
001C
0030
0030
0060
0060
0072
007F
007F
003C
ENDCHAR
STARTCHAR eogonek
ENCODING 281
SWIDTH 600 0
DWIDTH 22 0
BBX 17 26 2 -8
BITMAP
03F000
0FFC00
1FFE00
3E0F00
380380
700380
700180
7FFF80
FFFF80
FFFF80
700000
700000
700000
380100
3E0700
1FFF80
0FFE00
01FC00
001800
003000
003000
003000
007100
003F00
003F80
001E00
ENDCHAR
STARTCHAR Ecaron
ENCODING 282
SWIDTH 600 0
DWIDTH 22 0
BBX 15 30 4 0
BITMAP
1018
1C38
0E70
07E0
03C0
0000
FFFE
FFFE
FFFE
E000
E000
E000
E000
E000
E000
E000
FFF8
FFF8
FFF8
E000
E000
E000
E000
E000
E000
E000
E000
FFFE
FFFE
FFFE
ENDCHAR
STARTCHAR ecaron
ENCODING 283
SWIDTH 600 0
DWIDTH 22 0
BBX 17 27 2 0
BITMAP
0C0400
0E0E00
071C00
03B800
01F000
01E000
000000
000000
000000
03F000
0FFC00
1FFE00
3E0F00
380380
700380
700180
7FFF80
FFFF80
FFFF80
700000
700000
700000
380100
3E0700
1FFF80
0FFE00
01F800
ENDCHAR
STARTCHAR Gcircumflex
ENCODING 284
SWIDTH 600 0
DWIDTH 22 0
BBX 17 30 2 0
BITMAP
00F000
01F800
039C00
070E00
040600
000000
01F800
07FE00
0FFF00
1F0780
3C0300
780000
700000
F00000
E00000
E00000
E00000
E03F80
E03F80
E03F80
E00380
E00380
F00380
700380
780380
3C0380
3F0780
1FFF80
07FF00
01F800
ENDCHAR
STARTCHAR gcircumflex
ENCODING 285
SWIDTH 600 0
DWIDTH 22 0
BBX 17 34 3 -7
BITMAP
03C000
07E000
0F7000
0C3000
181800
300C00
000000
000000
000000
07FF80
1FFF80
3FFF80
783F80
701800
601C00
601C00
701C00
783C00
3FF800
1FF000
37C000
600000
600000
700000
7FFE00
3FFF00
7FFF80
E00380
C00380
C00380
F00F80
FFFF00
7FFC00
1FF000
ENDCHAR
STARTCHAR Gbreve
ENCODING 286
SWIDTH 600 0
DWIDTH 22 0
BBX 17 30 2 0
BITMAP
060600
060600
070C00
03FC00
01F000
000000
01F800
07FE00
0FFF00
1F0780
3C0300
780000
700000
F00000
E00000
E00000
E00000
E03F80
E03F80
E03F80
E00380
E00380
F00380
700380
780380
3C0380
3F0780
1FFF80
07FF00
01F800
ENDCHAR
STARTCHAR gbreve
ENCODING 287
SWIDTH 600 0
DWIDTH 22 0
BBX 17 33 3 -7
BITMAP
300C00
181800
1C3800
0FF000
07E000
000000
000000
000000
07FF80
1FFF80
3FFF80
783F80
701800
601C00
601C00
701C00
783C00
3FF800
1FF000
37C000
600000
600000
700000
7FFE00
3FFF00
7FFF80
E00380
C00380
C00380
F00F80
FFFF00
7FFC00
1FF000
ENDCHAR
STARTCHAR Gdotaccent
ENCODING 288
SWIDTH 600 0
DWIDTH 22 0
BBX 17 30 2 0
BITMAP
00E000
00F000
00F000
00E000
000000
000000
01F800
07FE00
0FFF00
1F0780
3C0300
780000
700000
F00000
E00000
E00000
E00000
E03F80
E03F80
E03F80
E00380
E00380
F00380
700380
780380
3C0380
3F0780
1FFF80
07FF00
01F800
ENDCHAR
STARTCHAR gdotaccent
ENCODING 289
SWIDTH 600 0
DWIDTH 22 0
BBX 17 33 3 -7
BITMAP
01C000
03C000
03C000
03C000
01C000
000000
000000
000000
07FF80
1FFF80
3FFF80
783F80
701800
601C00
601C00
701C00
783C00
3FF800
1FF000
37C000
600000
600000
700000
7FFE00
3FFF00
7FFF80
E00380
C00380
C00380
F00F80
FFFF00
7FFC00
1FF000
ENDCHAR
STARTCHAR uni0122
ENCODING 290
SWIDTH 600 0
DWIDTH 22 0
BBX 17 32 2 -8
BITMAP
01F800
07FE00
0FFF00
1F0780
3C0300
780000
700000
F00000
E00000
E00000
E00000
E03F80
E03F80
E03F80
E00380
E00380
F00380
700380
780380
3C0380
3F0780
1FFF80
07FF00
01F800
000000
000000
00E000
003000
003800
003800
007000
03C000
ENDCHAR
STARTCHAR uni0123
ENCODING 291
SWIDTH 600 0
DWIDTH 22 0
BBX 17 34 3 -7
BITMAP
00E000
038000
070000
070000
030000
01C000
000000
000000
000000
07FF80
1FFF80
3FFF80
783F80
701800
601C00
601C00
701C00
783C00
3FF800
1FF000
37C000
600000
600000
700000
7FFE00
3FFF00
7FFF80
E00380
C00380
C00380
F00F80
FFFF00
7FFC00
1FF000
ENDCHAR
STARTCHAR Hcircumflex
ENCODING 292
SWIDTH 600 0
DWIDTH 22 0
BBX 16 30 3 0
BITMAP
03C0
07E0
0E70
1C38
3018
0000
E007
E007
E007
E007
E007
E007
E007
E007
E007
E007
FFFF
FFFF
FFFF
E007
E007
E007
E007
E007
E007
E007
E007
E007
E007
E007
ENDCHAR
STARTCHAR hcircumflex
ENCODING 293
SWIDTH 600 0
DWIDTH 22 0
BBX 20 32 -1 0
BITMAP
0F0000
1F8000
39C000
70E000
C04000
000000
0E0000
0E0000
0E0000
0E0000
0E0000
0E0000
0E0000
0E0000
0E1F80
0E7FC0
0EFFE0
0FE1E0
0F80F0
0F0070
0E0070
0E0070
0E0070
0E0070
0E0070
0E0070
0E0070
0E0070
0E0070
0E0070
0E0070
0E0070
ENDCHAR
STARTCHAR Hbar
ENCODING 294
SWIDTH 600 0
DWIDTH 22 0
BBX 21 24 0 0
BITMAP
1C00E0
1C00E0
1C00E0
1C00E0
FFFFF8
FFFFF8
FFFFF8
1C00E0
1C00E0
1C00E0
1FFFE0
1FFFE0
1FFFE0
1C00E0
1C00E0
1C00E0
1C00E0
1C00E0
1C00E0
1C00E0
1C00E0
1C00E0
1C00E0
1C00E0
ENDCHAR
STARTCHAR hbar
ENCODING 295
SWIDTH 600 0
DWIDTH 22 0
BBX 18 26 1 0
BITMAP
380000
380000
380000
FFF800
FFF800
FFF800
380000
380000
380000
387E00
39FF00
3BFF80
3F8780
3E03C0
3C01C0
3801C0
3801C0
3801C0
3801C0
3801C0
3801C0
3801C0
3801C0
3801C0
3801C0
3801C0
ENDCHAR
STARTCHAR Itilde
ENCODING 296
SWIDTH 600 0
DWIDTH 22 0
BBX 15 31 3 0
BITMAP
1E0C
3F0C
339C
31F8
6070
0000
0000
FFFE
FFFE
FFFE
0380
0380
0380
0380
0380
0380
0380
0380
0380
0380
0380
0380
0380
0380
0380
0380
0380
0380
FFFE
FFFE
FFFE
ENDCHAR
STARTCHAR itilde
ENCODING 297
SWIDTH 600 0
DWIDTH 22 0
BBX 16 26 3 0
BITMAP
0703
0FC3
0CE6
1C7E
183C
0000
0000
0000
FFE0
FFE0
FFE0
00E0
00E0
00E0
00E0
00E0
00E0
00E0
00E0
00E0
00E0
00E0
00E0
00E0
00E0
00E0
ENDCHAR
STARTCHAR Imacron
ENCODING 298
SWIDTH 600 0
DWIDTH 22 0
BBX 15 28 3 0
BITMAP
1FF8
1FF8
0000
0000
FFFE
FFFE
FFFE
0380
0380
0380
0380
0380
0380
0380
0380
0380
0380
0380
0380
0380
0380
0380
0380
0380
0380
FFFE
FFFE
FFFE
ENDCHAR
STARTCHAR imacron
ENCODING 299
SWIDTH 600 0
DWIDTH 22 0
BBX 14 24 3 0
BITMAP
07FC
07FC
0000
0000
0000
0000
FFE0
FFE0
FFE0
00E0
00E0
00E0
00E0
00E0
00E0
00E0
00E0
00E0
00E0
00E0
00E0
00E0
00E0
00E0
ENDCHAR
STARTCHAR Ibreve
ENCODING 300
SWIDTH 600 0
DWIDTH 22 0
BBX 15 30 3 0
BITMAP
1018
1818
1C30
0FF0
07C0
0000
FFFE
FFFE
FFFE
0380
0380
0380
0380
0380
0380
0380
0380
0380
0380
0380
0380
0380
0380
0380
0380
0380
0380
FFFE
FFFE
FFFE
ENDCHAR
STARTCHAR ibreve
ENCODING 301
SWIDTH 600 0
DWIDTH 22 0
BBX 15 26 3 0
BITMAP
0C06
0C06
071C
07FC
01F0
0000
0000
0000
FFE0
FFE0
FFE0
00E0
00E0
00E0
00E0
00E0
00E0
00E0
00E0
00E0
00E0
00E0
00E0
00E0
00E0
00E0
ENDCHAR
STARTCHAR Iogonek
ENCODING 302
SWIDTH 600 0
DWIDTH 22 0
BBX 15 33 3 -9
BITMAP
FFFE
FFFE
FFFE
0380
0380
0380
0380
0380
0380
0380
0380
0380
0380
0380
0380
0380
0380
0380
0380
0380
0380
FFFE
FFFE
FFFE
0180
0300
0600
0600
0600
0E20
07E0
07E0
03C0
ENDCHAR
STARTCHAR iogonek
ENCODING 303
SWIDTH 600 0
DWIDTH 22 0
BBX 13 34 3 -8
BITMAP
00E0
01F0
01F0
01F0
00E0
0000
0000
0000
FFE0
FFE0
FFE0
00E0
00E0
00E0
00E0
00E0
00E0
00E0
00E0
00E0
00E0
00E0
00E0
00E0
00E0
00E0
00C0
0180
0100
0300
0390
03F8
03F8
01F0
ENDCHAR
STARTCHAR Idotaccent
ENCODING 304
SWIDTH 600 0
DWIDTH 22 0
BBX 15 30 3 0
BITMAP
0380
03C0
03C0
0380
0000
0000
FFFE
FFFE
FFFE
0380
0380
0380
0380
0380
0380
0380
0380
0380
0380
0380
0380
0380
0380
0380
0380
0380
0380
FFFE
FFFE
FFFE
ENDCHAR
STARTCHAR dotlessi
ENCODING 305
SWIDTH 600 0
DWIDTH 22 0
BBX 11 18 3 0
BITMAP
FFE0
FFE0
FFE0
00E0
00E0
00E0
00E0
00E0
00E0
00E0
00E0
00E0
00E0
00E0
00E0
00E0
00E0
00E0
ENDCHAR
STARTCHAR IJ
ENCODING 306
SWIDTH 600 0
DWIDTH 22 0
BBX 14 30 4 -6
BITMAP
E01C
E01C
E01C
E01C
E01C
E01C
E01C
E01C
E01C
E01C
E01C
E01C
E01C
E01C
E01C
E01C
E01C
E01C
E01C
E01C
E01C
E01C
E01C
E01C
001C
0038
0038
03F8
03F0
03E0
ENDCHAR
STARTCHAR ij
ENCODING 307
SWIDTH 600 0
DWIDTH 22 0
BBX 16 32 3 -7
BITMAP
700E
F80F
F80F
700E
0000
0000
0000
700E
700E
700E
700E
700E
700E
700E
700E
700E
700E
700E
700E
700E
700E
700E
700E
700E
700E
000E
000E
000E
000E
00FE
00FC
00F8
ENDCHAR
STARTCHAR Jcircumflex
ENCODING 308
SWIDTH 600 0
DWIDTH 22 0
BBX 15 30 3 0
BITMAP
01E0
03F0
0738
0C18
180C
0000
3FFE
3FFE
3FFE
000E
000E
000E
000E
000E
000E
000E
000E
000E
000E
000E
000E
000E
000E
000E
401E
E01C
F87C
7FF8
3FF0
0FC0
ENDCHAR
STARTCHAR jcircumflex
ENCODING 309
SWIDTH 600 0
DWIDTH 22 0
BBX 16 34 2 -7
BITMAP
0070
00F8
01DC
038E
0707
0202
0000
0000
0000
7FF0
7FF0
7FF0
0070
0070
0070
0070
0070
0070
0070
0070
0070
0070
0070
0070
0070
0070
0070
0070
0070
0070
40F0
FFE0
FFC0
3F00
ENDCHAR
STARTCHAR uni0136
ENCODING 310
SWIDTH 600 0
DWIDTH 22 0
BBX 17 32 4 -8
BITMAP
E00F00
E01E00
E01C00
E03800
E07000
E0F000
E1E000
E3C000
E38000
E78000
EF8000
FFC000
FDC000
F8E000
F0F000
E07000
E07800
E03800
E01C00
E01C00
E00E00
E00E00
E00700
E00780
000000
000000
038000
00E000
006000
00E000
01C000
070000
ENDCHAR
STARTCHAR uni0137
ENCODING 311
SWIDTH 600 0
DWIDTH 22 0
BBX 17 34 4 -8
BITMAP
E00000
E00000
E00000
E00000
E00000
E00000
E00000
E00000
E00F00
E01C00
E03800
E07000
E0E000
E1C000
E38000
E78000
EFC000
FDC000
F8E000
F07000
E07800
E03800
E01C00
E00E00
E00F00
E00700
000080
000000
038000
00E000
006000
00E000
01C000
070000
ENDCHAR
STARTCHAR kgreenlandic
ENCODING 312
SWIDTH 600 0
DWIDTH 22 0
BBX 17 18 4 0
BITMAP
E00F00
E01C00
E03800
E07000
E0E000
E1C000
E38000
E78000
EFC000
FFC000
FCE000
F87000
E07800
E03800
E01C00
E00E00
E00F00
E00780
ENDCHAR
STARTCHAR Lacute
ENCODING 313
SWIDTH 600 0
DWIDTH 22 0
BBX 15 31 4 0
BITMAP
0400
0E00
1E00
3800
7000
C000
0000
7000
7000
7000
7000
7000
7000
7000
7000
7000
7000
7000
7000
7000
7000
7000
7000
7000
7000
7000
7000
7000
7FFE
7FFE
7FFE
ENDCHAR
STARTCHAR lacute
ENCODING 314
SWIDTH 600 0
DWIDTH 22 0
BBX 16 33 3 0
BITMAP
0040
00E0
01F0
03C0
0700
0200
0000
FF80
FF80
FF80
0380
0380
0380
0380
0380
0380
0380
0380
0380
0380
0380
0380
0380
0380
0380
0380
0380
0380
0380
03C1
01FF
01FF
007E
ENDCHAR
STARTCHAR uni013B
ENCODING 315
SWIDTH 600 0
DWIDTH 22 0
BBX 14 32 5 -8
BITMAP
E000
E000
E000
E000
E000
E000
E000
E000
E000
E000
E000
E000
E000
E000
E000
E000
E000
E000
E000
E000
E000
FFFC
FFFC
FFFC
0000
0000
0380
01C0
00C0
00C0
01C0
0F00
ENDCHAR
STARTCHAR uni013C
ENCODING 316
SWIDTH 600 0
DWIDTH 22 0
BBX 16 34 3 -8
BITMAP
FF80
FF80
FF80
0380
0380
0380
0380
0380
0380
0380
0380
0380
0380
0380
0380
0380
0380
0380
0380
0380
0380
0380
03C1
01FF
01FF
007E
0000
0000
0070
0018
001C
001C
0038
01E0
ENDCHAR
STARTCHAR Lcaron
ENCODING 317
SWIDTH 600 0
DWIDTH 22 0
BBX 14 29 5 0
BITMAP
0060
0060
0060
0060
0060
E060
E060
E060
E060
E060
E000
E000
E000
E000
E000
E000
E000
E000
E000
E000
E000
E000
E000
E000
E000
E000
FFFC
FFFC
FFFC
ENDCHAR
STARTCHAR lcaron
ENCODING 318
SWIDTH 600 0
DWIDTH 22 0
BBX 16 30 3 0
BITMAP
001C
001C
001C
001C
FF9C
FF9C
FF8C
038C
038C
038C
0380
0380
0380
0380
0380
0380
0380
0380
0380
0380
0380
0380
0380
0380
0380
0380
03C1
01FF
01FF
007E
ENDCHAR
STARTCHAR Ldot
ENCODING 319
SWIDTH 600 0
DWIDTH 22 0
BBX 14 24 5 0
BITMAP
E000
E000
E000
E000
E000
E000
E000
E000
E000
E038
E03C
E07C
E03C
E038
E000
E000
E000
E000
E000
E000
E000
FFFC
FFFC
FFFC
ENDCHAR
STARTCHAR ldot
ENCODING 320
SWIDTH 600 0
DWIDTH 22 0
BBX 22 26 1 0
BITMAP
FF8000
FF8000
FF8000
018000
018000
018000
018000
018000
018000
018000
018000
018038
01807C
01807C
01807C
018038
018000
018000
018000
018000
01C000
01C000
01E100
01FF80
00FF80
003E00
ENDCHAR
STARTCHAR Lslash
ENCODING 321
SWIDTH 600 0
DWIDTH 22 0
BBX 19 24 0 0
BITMAP
070000
070000
070000
070000
070000
070000
070000
070200
070700
071F00
073C00
07F000
07C000
0F8000
3F0000
FF0000
670000
070000
070000
070000
070000
07FFE0
07FFE0
07FFE0
ENDCHAR
STARTCHAR lslash
ENCODING 322
SWIDTH 600 0
DWIDTH 22 0
BBX 16 26 3 0
BITMAP
FF80
FF80
FF80
0380
0380
0380
0384
038E
039E
03F8
03E0
03C0
0F80
3F80
7B80
2380
0380
0380
0380
0380
0380
0380
03C1
01FF
01FF
007E
ENDCHAR
STARTCHAR Nacute
ENCODING 323
SWIDTH 600 0
DWIDTH 22 0
BBX 16 31 3 0
BITMAP
0020
0070
00F8
01C0
0380
0100
0000
F007
F007
F807
F807
DC07
FC07
EE07
EE07
E707
E707
E387
E387
E1C7
E1C7
E0E7
E0E7
E067
E077
E037
E03F
E01F
E01F
E00F
E00F
ENDCHAR
STARTCHAR nacute
ENCODING 324
SWIDTH 600 0
DWIDTH 22 0
BBX 16 28 3 0
BITMAP
0010
0038
0078
00F0
00E0
01C0
0380
0100
0000
0000
E1F8
E7FC
EFFE
FE1E
F80F
F007
E007
E007
E007
E007
E007
E007
E007
E007
E007
E007
E007
E007
ENDCHAR
STARTCHAR uni0145
ENCODING 325
SWIDTH 600 0
DWIDTH 22 0
BBX 16 32 3 -8
BITMAP
F007
F007
F807
F807
DC07
FC07
EE07
EE07
E707
E707
E387
E387
E1C7
E1C7
E0E7
E0E7
E067
E077
E037
E03F
E01F
E01F
E00F
E00F
0000
0000
0380
00C0
00E0
00E0
01C0
0F00
ENDCHAR
STARTCHAR uni0146
ENCODING 326
SWIDTH 600 0
DWIDTH 22 0
BBX 16 26 3 -8
BITMAP
E1F8
E7FC
EFFE
FE1E
F80F
F007
E007
E007
E007
E007
E007
E007
E007
E007
E007
E007
E007
E007
0000
0000
0180
02E0
0060
0060
01C0
0780
ENDCHAR
STARTCHAR Ncaron
ENCODING 327
SWIDTH 600 0
DWIDTH 22 0
BBX 16 30 3 0
BITMAP
1808
1C38
0E70
07E0
03C0
0000
F007
F007
F807
F807
DC07
FC07
EE07
EE07
E707
E707
E387
E387
E1C7
E1C7
E0E7
E0E7
E067
E077
E037
E03F
E01F
E01F
E00F
E00F
ENDCHAR
STARTCHAR ncaron
ENCODING 328
SWIDTH 600 0
DWIDTH 22 0
BBX 16 27 3 0
BITMAP
0808
1C1C
0E38
0770
03E0
01C0
0000
0000
0000
E1F8
E7FC
EFFE
FE1E
F80F
F007
E007
E007
E007
E007
E007
E007
E007
E007
E007
E007
E007
E007
ENDCHAR
STARTCHAR napostrophe
ENCODING 329
SWIDTH 600 0
DWIDTH 22 0
BBX 23 25 -1 0
BITMAP
780000
7C0000
FC0000
7C0000
7C0000
0C0000
0C0000
1CE3F0
18E7F8
38EFFC
F0FC3C
40F81C
00F01C
00E01E
00E00E
00E00E
00E00E
00E00E
00E00E
00E00E
00E00E
00E00E
00E00E
00E00E
00E00E
ENDCHAR
STARTCHAR Eng
ENCODING 330
SWIDTH 600 0
DWIDTH 22 0
BBX 17 24 3 0
BITMAP
E1F000
E7FC00
EFFC00
FC1E00
F80F00
F00700
E00700
E00700
E00780
E00380
E00380
E00380
E00380
E00380
E00380
E00780
E00700
E00700
E00700
E00F00
E00F00
E0FE00
E0FC00
E0F800
ENDCHAR
STARTCHAR eng
ENCODING 331
SWIDTH 600 0
DWIDTH 22 0
BBX 16 25 3 -7
BITMAP
E1F8
E7FC
EFFE
FE1E
F80F
F007
E007
E007
E007
E007
E007
E007
E007
E007
E007
E007
E007
E007
0007
0007
0007
000F
007E
00FE
00F8
ENDCHAR
STARTCHAR Omacron
ENCODING 332
SWIDTH 600 0
DWIDTH 22 0
BBX 18 28 2 0
BITMAP
0FFC00
0FFC00
000000
000000
03F000
0FFC00
1FFE00
3E1F00
780F00
700780
700380
E00380
E003C0
E003C0
E001C0
E001C0
E001C0
E001C0
E001C0
E003C0
E00380
700380
700780
780F00
3E1F00
1FFE00
0FFC00
03F000
ENDCHAR
STARTCHAR omacron
ENCODING 333
SWIDTH 600 0
DWIDTH 22 0
BBX 17 24 2 0
BITMAP
0FFC00
0FFC00
000000
000000
000000
000000
03F000
0FFC00
1FFE00
3C1F00
780700
700780
F00380
E00380
E00380
E00380
E00380
F00380
700780
780700
3C1F00
1FFE00
0FFC00
03F000
ENDCHAR
STARTCHAR Obreve
ENCODING 334
SWIDTH 600 0
DWIDTH 22 0
BBX 18 30 2 0
BITMAP
080C00
0C0C00
0E1800
07F800
03E000
000000
03F000
0FFC00
1FFE00
3E1F00
780F00
700780
700380
E00380
E003C0
E003C0
E001C0
E001C0
E001C0
E001C0
E001C0
E003C0
E00380
700380
700780
780F00
3E1F00
1FFE00
0FFC00
03F000
ENDCHAR
STARTCHAR obreve
ENCODING 335
SWIDTH 600 0
DWIDTH 22 0
BBX 17 26 2 0
BITMAP
180C00
1C0C00
0E1C00
07F800
03E000
000000
000000
000000
03F000
0FFC00
1FFE00
3C1F00
780700
700780
F00380
E00380
E00380
E00380
E00380
F00380
700780
780700
3C1F00
1FFE00
0FFC00
03F000
ENDCHAR
STARTCHAR Ohungarumlaut
ENCODING 336
SWIDTH 600 0
DWIDTH 22 0
BBX 18 31 2 0
BITMAP
008600
01C700
038E00
030C00
061800
063000
000000
03F000
0FFC00
1FFE00
3E1F00
780F00
700780
700380
E00380
E003C0
E003C0
E001C0
E001C0
E001C0
E001C0
E001C0
E003C0
E00380
700380
700780
780F00
3E1F00
1FFE00
0FFC00
03F000
ENDCHAR
STARTCHAR ohungarumlaut
ENCODING 337
SWIDTH 600 0
DWIDTH 22 0
BBX 17 27 2 0
BITMAP
008600
01C700
018E00
038C00
031C00
071800
021800
000000
000000
03F000
0FFC00
1FFE00
3C1F00
780700
700780
F00380
E00380
E00380
E00380
E00380
F00380
700780
780700
3C1F00
1FFE00
0FFC00
03F000
ENDCHAR
STARTCHAR OE
ENCODING 338
SWIDTH 600 0
DWIDTH 22 0
BBX 20 24 1 0
BITMAP
01FFF0
0FFFF0
1FFFF0
3E3800
383800
783800
703800
703800
F03800
E03800
E03FC0
E03FC0
E03FC0
E03800
E03800
F03800
703800
703800
783800
383800
3E3800
1FFFF0
0FFFF0
03FFF0
ENDCHAR
STARTCHAR oe
ENCODING 339
SWIDTH 600 0
DWIDTH 22 0
BBX 21 18 0 0
BITMAP
0F83C0
1FC7F0
3FEFF0
78EC38
707818
703818
603818
E03FF8
E03FF8
E03FF8
E03800
603800
703800
707C00
78EE10
3FEFF8
1FC7F8
0F83E0
ENDCHAR
STARTCHAR Racute
ENCODING 340
SWIDTH 600 0
DWIDTH 22 0
BBX 16 31 4 0
BITMAP
0040
00E0
01E0
0380
0700
0600
0000
FFE0
FFF8
FFFC
E03E
E01E
E00E
E00E
E00E
E00E
E01E
E03C
FFFC
FFF0
FFC0
E1C0
E0E0
E0F0
E070
E078
E038
E03C
E01C
E00E
E00F
ENDCHAR
STARTCHAR racute
ENCODING 341
SWIDTH 600 0
DWIDTH 22 0
BBX 14 28 5 0
BITMAP
0020
0070
00F0
01E0
01C0
0380
0700
0200
0000
0000
E0FC
E3FC
E7FC
EF04
FC00
F800
F000
E000
E000
E000
E000
E000
E000
E000
E000
E000
E000
E000
ENDCHAR
STARTCHAR uni0156
ENCODING 342
SWIDTH 600 0
DWIDTH 22 0
BBX 16 32 4 -8
BITMAP
FFE0
FFF8
FFFC
E03E
E01E
E00E
E00E
E00E
E00E
E01E
E03C
FFFC
FFF0
FFC0
E1C0
E0E0
E0F0
E070
E078
E038
E03C
E01C
E00E
E00F
0000
0000
0380
05C0
00C0
00C0
01C0
0F00
ENDCHAR
STARTCHAR uni0157
ENCODING 343
SWIDTH 600 0
DWIDTH 22 0
BBX 15 26 4 -8
BITMAP
707E
71FE
73FE
7782
7E00
7C00
7800
7000
7000
7000
7000
7000
7000
7000
7000
7000
7000
7000
0000
0000
7000
1C00
0C00
1C00
3800
E000
ENDCHAR
STARTCHAR Rcaron
ENCODING 344
SWIDTH 600 0
DWIDTH 22 0
BBX 16 30 4 0
BITMAP
3030
3870
1CE0
0FC0
0780
0000
FFE0
FFF8
FFFC
E03E
E01E
E00E
E00E
E00E
E00E
E01E
E03C
FFFC
FFF0
FFC0
E1C0
E0E0
E0F0
E070
E078
E038
E03C
E01C
E00E
E00F
ENDCHAR
STARTCHAR rcaron
ENCODING 345
SWIDTH 600 0
DWIDTH 22 0
BBX 14 27 5 0
BITMAP
1010
3838
1C70
0EE0
07C0
0380
0000
0000
0000
E0FC
E3FC
E7FC
EF04
FC00
F800
F000
E000
E000
E000
E000
E000
E000
E000
E000
E000
E000
E000
ENDCHAR
STARTCHAR Sacute
ENCODING 346
SWIDTH 600 0
DWIDTH 22 0
BBX 17 31 2 0
BITMAP
000800
003800
007C00
00F000
01C000
008000
000000
03F000
0FFC00
1FFF00
3E0F80
380300
380000
380000
380000
3C0000
1F0000
0FC000
07F800
00FE00
003F00
000F80
000380
000380
000380
200380
700780
FC0F00
3FFF00
1FFE00
03F000
ENDCHAR
STARTCHAR sacute
ENCODING 347
SWIDTH 600 0
DWIDTH 22 0
BBX 16 28 3 0
BITMAP
0020
0030
0078
00F0
01E0
03C0
0380
0100
0000
0000
0FE0
3FF8
7FFC
781E
7004
7000
7800
3F00
1FF0
03FC
003E
000F
0007
C007
F81F
7FFE
3FFC
07F0
ENDCHAR
STARTCHAR Scircumflex
ENCODING 348
SWIDTH 600 0
DWIDTH 22 0
BBX 17 30 2 0
BITMAP
01E000
03F000
073800
060C00
0C0600
000000
03F000
0FFC00
1FFF00
3E0F80
380300
380000
380000
380000
3C0000
1F0000
0FC000
07F800
00FE00
003F00
000F80
000380
000380
000380
200380
700780
FC0F00
3FFF00
1FFE00
03F000
ENDCHAR
STARTCHAR scircumflex
ENCODING 349
SWIDTH 600 0
DWIDTH 22 0
BBX 16 27 3 0
BITMAP
03C0
07E0
0EF0
1C30
1818
3008
0000
0000
0000
0FE0
3FF8
7FFC
781E
7004
7000
7800
3F00
1FF0
03FC
003E
000F
0007
C007
F81F
7FFE
3FFC
07F0
ENDCHAR
STARTCHAR uni015E
ENCODING 350
SWIDTH 600 0
DWIDTH 22 0
BBX 17 33 2 -9
BITMAP
03F000
0FFC00
1FFF00
3E0F80
380300
380000
380000
380000
3C0000
1F0000
0FC000
07F800
00FE00
003F00
000F80
000380
000380
000380
200380
700780
FC0F00
3FFF00
1FFE00
03F000
00C000
00C000
00C000
01E000
007000
003000
003000
007000
03C000
ENDCHAR
STARTCHAR uni015F
ENCODING 351
SWIDTH 600 0
DWIDTH 22 0
BBX 16 27 3 -9
BITMAP
0FE0
3FF8
7FFC
781E
7004
7000
7800
3F00
1FF0
03FC
003E
000F
0007
C007
F81F
7FFE
3FFC
07F0
0180
0180
0180
03C0
00E0
0060
0060
01C0
0780
ENDCHAR
STARTCHAR Scaron
ENCODING 352
SWIDTH 600 0
DWIDTH 22 0
BBX 17 30 2 0
BITMAP
040400
0E0E00
073800
03F000
01E000
000000
03F000
0FFC00
1FFF00
3E0F80
380300
380000
380000
380000
3C0000
1F0000
0FC000
07F800
00FE00
003F00
000F80
000380
000380
000380
200380
700780
FC0F00
3FFF00
1FFE00
03F000
ENDCHAR
STARTCHAR scaron
ENCODING 353
SWIDTH 600 0
DWIDTH 22 0
BBX 16 27 3 0
BITMAP
1008
3818
1C30
0EE0
07E0
03C0
0000
0000
0000
0FE0
3FF8
7FFC
781E
7004
7000
7800
3F00
1FF0
03FC
003E
000F
0007
C007
F81F
7FFE
3FFC
07F0
ENDCHAR
STARTCHAR uni0162
ENCODING 354
SWIDTH 600 0
DWIDTH 22 0
BBX 18 33 2 -9
BITMAP
FFFFC0
FFFFC0
FFFFC0
01C000
01C000
01C000
01C000
01C000
01C000
01C000
01C000
01C000
01C000
01C000
01C000
01C000
01C000
01C000
01C000
01C000
01C000
01C000
01C000
01C000
00C000
018000
018000
01C000
00E000
007000
006000
00E000
078000
ENDCHAR
STARTCHAR uni0163
ENCODING 355
SWIDTH 600 0
DWIDTH 22 0
BBX 18 33 2 -9
BITMAP
030000
030000
030000
030000
030000
030000
FFFF80
FFFF80
FFFF80
070000
070000
070000
070000
070000
070000
070000
070000
070000
078000
038000
03C080
03FF80
01FFC0
007F00
001800
001800
003000
003C00
001E00
000E00
000E00
001C00
007000
ENDCHAR
STARTCHAR Tcaron
ENCODING 356
SWIDTH 600 0
DWIDTH 22 0
BBX 18 30 2 0
BITMAP
080C00
1E1C00
073800
03F000
01E000
000000
FFFFC0
FFFFC0
FFFFC0
01C000
01C000
01C000
01C000
01C000
01C000
01C000
01C000
01C000
01C000
01C000
01C000
01C000
01C000
01C000
01C000
01C000
01C000
01C000
01C000
01C000
ENDCHAR
STARTCHAR tcaron
ENCODING 357
SWIDTH 600 0
DWIDTH 22 0
BBX 18 30 2 0
BITMAP
000E00
000E00
000E00
000E00
000E00
000E00
030E00
030E00
030E00
030C00
030000
030000
FFFF80
FFFF80
FFFF80
070000
070000
070000
070000
070000
070000
070000
070000
070000
078000
038000
03C080
03FF80
01FFC0
007F00
ENDCHAR
STARTCHAR Tbar
ENCODING 358
SWIDTH 600 0
DWIDTH 22 0
BBX 18 24 2 0
BITMAP
FFFFC0
FFFFC0
FFFFC0
01C000
01C000
01C000
01C000
01C000
01C000
01C000
3FFE00
3FFE00
3FFE00
01C000
01C000
01C000
01C000
01C000
01C000
01C000
01C000
01C000
01C000
01C000
ENDCHAR
STARTCHAR tbar
ENCODING 359
SWIDTH 600 0
DWIDTH 22 0
BBX 18 24 2 0
BITMAP
030000
030000
030000
030000
030000
030000
FFFF80
FFFF80
FFFF80
070000
070000
070000
070000
7FFF00
7FFF00
7FFF00
070000
070000
078000
038000
03C080
03FF80
01FFC0
007F00
ENDCHAR
STARTCHAR Utilde
ENCODING 360
SWIDTH 600 0
DWIDTH 22 0
BBX 16 31 3 0
BITMAP
1E0C
3F0C
339C
31F8
6070
0000
0000
E007
E007
E007
E007
E007
E007
E007
E007
E007
E007
E007
E007
E007
E007
E007
E007
E007
E00F
F00E
701E
7C3C
3FFC
1FF8
07E0
ENDCHAR
STARTCHAR utilde
ENCODING 361
SWIDTH 600 0
DWIDTH 22 0
BBX 15 26 3 0
BITMAP
1C0C
3F0C
339C
31F8
60F0
0000
0000
0000
E00E
E00E
E00E
E00E
E00E
E00E
E00E
E00E
E00E
E00E
E00E
E00E
E01E
E03E
F87E
7FE6
7FC6
1F86
ENDCHAR
STARTCHAR Umacron
ENCODING 362
SWIDTH 600 0
DWIDTH 22 0
BBX 16 28 3 0
BITMAP
1FF8
1FF8
0000
0000
E007
E007
E007
E007
E007
E007
E007
E007
E007
E007
E007
E007
E007
E007
E007
E007
E007
E00F
F00E
701E
7C3C
3FFC
1FF8
07E0
ENDCHAR
STARTCHAR umacron
ENCODING 363
SWIDTH 600 0
DWIDTH 22 0
BBX 15 24 3 0
BITMAP
1FF0
1FF0
0000
0000
0000
0000
E00E
E00E
E00E
E00E
E00E
E00E
E00E
E00E
E00E
E00E
E00E
E00E
E01E
E03E
F87E
7FE6
7FC6
1F86
ENDCHAR
STARTCHAR Ubreve
ENCODING 364
SWIDTH 600 0
DWIDTH 22 0
BBX 16 30 3 0
BITMAP
1018
1818
1C30
0FF0
07C0
0000
E007
E007
E007
E007
E007
E007
E007
E007
E007
E007
E007
E007
E007
E007
E007
E007
E007
E00F
F00E
701E
7C3C
3FFC
1FF8
07E0
ENDCHAR
STARTCHAR ubreve
ENCODING 365
SWIDTH 600 0
DWIDTH 22 0
BBX 15 26 3 0
BITMAP
3018
3818
1C38
0FF0
07C0
0000
0000
0000
E00E
E00E
E00E
E00E
E00E
E00E
E00E
E00E
E00E
E00E
E00E
E00E
E01E
E03E
F87E
7FE6
7FC6
1F86
ENDCHAR
STARTCHAR Uring
ENCODING 366
SWIDTH 600 0
DWIDTH 22 0
BBX 16 31 3 0
BITMAP
03C0
0660
0C20
0C20
0660
03C0
0000
E007
E007
E007
E007
E007
E007
E007
E007
E007
E007
E007
E007
E007
E007
E007
E007
E007
E00F
F00E
701E
7C3C
3FFC
1FF8
07E0
ENDCHAR
STARTCHAR uring
ENCODING 367
SWIDTH 600 0
DWIDTH 22 0
BBX 15 27 3 0
BITMAP
07C0
0C60
0C30
0C30
0C60
07C0
0000
0000
0000
E00E
E00E
E00E
E00E
E00E
E00E
E00E
E00E
E00E
E00E
E00E
E00E
E01E
E03E
F87E
7FE6
7FC6
1F86
ENDCHAR
STARTCHAR Uhungarumlaut
ENCODING 368
SWIDTH 600 0
DWIDTH 22 0
BBX 16 31 3 0
BITMAP
010C
038E
071C
0618
0C30
0C60
0000
E007
E007
E007
E007
E007
E007
E007
E007
E007
E007
E007
E007
E007
E007
E007
E007
E007
E00F
F00E
701E
7C3C
3FFC
1FF8
07E0
ENDCHAR
STARTCHAR uhungarumlaut
ENCODING 369
SWIDTH 600 0
DWIDTH 22 0
BBX 15 27 3 0
BITMAP
010C
038E
031C
0718
0638
0E30
0C60
0000
0000
E00E
E00E
E00E
E00E
E00E
E00E
E00E
E00E
E00E
E00E
E00E
E00E
E01E
E03E
F87E
7FE6
7FC6
1F86
ENDCHAR
STARTCHAR Uogonek
ENCODING 370
SWIDTH 600 0
DWIDTH 22 0
BBX 16 33 3 -9
BITMAP
E007
E007
E007
E007
E007
E007
E007
E007
E007
E007
E007
E007
E007
E007
E007
E007
E007
E00F
F00E
701E
7C3E
3FFC
1FF8
07E0
0180
0300
0600
0600
0600
0720
07E0
07F0
03C0
ENDCHAR
STARTCHAR uogonek
ENCODING 371
SWIDTH 600 0
DWIDTH 22 0
BBX 16 26 3 -8
BITMAP
E00E
E00E
E00E
E00E
E00E
E00E
E00E
E00E
E00E
E00E
E00E
E00E
E01E
E03E
F87E
7FE6
7FC6
1F86
000C
0018
0030
0030
0071
007F
003F
001E
ENDCHAR
STARTCHAR Wcircumflex
ENCODING 372
SWIDTH 600 0
DWIDTH 22 0
BBX 21 30 0 0
BITMAP
007800
00FC00
01CE00
038700
060300
000000
F00038
700038
700038
700038
700078
700070
707070
787870
387870
387870
38F870
38FC70
38DC60
38CC60
19CCE0
1DCEE0
1D8EE0
1D8EE0
1F86E0
1F87C0
1F07C0
0F07C0
0F03C0
0F03C0
ENDCHAR
STARTCHAR wcircumflex
ENCODING 373
SWIDTH 600 0
DWIDTH 22 0
BBX 21 27 0 0
BITMAP
007800
00FC00
01DC00
038E00
030700
060100
000000
000000
000000
E00038
707038
707838
707838
707830
70F870
38DC70
38DC70
38CC70
39CC60
19CCE0
1D8EE0
1D8EE0
1D86E0
1F86C0
0F87C0
0F07C0
0F03C0
ENDCHAR
STARTCHAR Ycircumflex
ENCODING 374
SWIDTH 600 0
DWIDTH 22 0
BBX 19 30 1 0
BITMAP
00F000
01F800
039C00
070E00
0C0600
000000
F000E0
7001C0
3801C0
380380
1C0380
1C0700
0E0700
0E0600
070E00
070C00
039C00
039800
01F800
01F000
00F000
00E000
00E000
00E000
00E000
00E000
00E000
00E000
00E000
00E000
ENDCHAR
STARTCHAR ycircumflex
ENCODING 375
SWIDTH 600 0
DWIDTH 22 0
BBX 18 34 2 -7
BITMAP
01E000
03F000
077800
061800
0C0C00
180600
000000
000000
000000
E001C0
E00380
700380
700300
380700
380700
1C0E00
1C0E00
0E0C00
0E1C00
061C00
071800
033800
03B000
03F000
01F000
01E000
00E000
00C000
01C000
038000
078000
7F0000
7E0000
F80000
ENDCHAR
STARTCHAR Ydieresis
ENCODING 376
SWIDTH 600 0
DWIDTH 22 0
BBX 19 30 1 0
BITMAP
070C00
071E00
071E00
070C00
000000
000000
F000E0
7001C0
3801C0
380380
1C0380
1C0700
0E0700
0E0600
070E00
070C00
039C00
039800
01F800
01F000
00F000
00E000
00E000
00E000
00E000
00E000
00E000
00E000
00E000
00E000
ENDCHAR
STARTCHAR Zacute
ENCODING 377
SWIDTH 600 0
DWIDTH 22 0
BBX 17 31 2 0
BITMAP
000800
003800
007C00
00F000
01C000
008000
000000
7FFF80
7FFF80
7FFF80
000700
000F00
000E00
001C00
003C00
003800
007000
00E000
00E000
01C000
038000
078000
070000
0E0000
1C0000
1C0000
380000
700000
7FFF80
FFFF80
FFFF80
ENDCHAR
STARTCHAR zacute
ENCODING 378
SWIDTH 600 0
DWIDTH 22 0
BBX 16 28 3 0
BITMAP
0010
0038
007C
0070
00E0
01C0
0380
0100
0000
0000
7FFF
7FFF
7FFE
001E
003C
0078
00F0
01E0
03C0
0780
0700
0E00
1C00
3800
7000
FFFF
FFFF
FFFF
ENDCHAR
STARTCHAR Zdotaccent
ENCODING 379
SWIDTH 600 0
DWIDTH 22 0
BBX 17 30 2 0
BITMAP
00E000
01E000
01F000
00E000
000000
000000
7FFF80
7FFF80
7FFF80
000700
000F00
000E00
001C00
003C00
003800
007000
00E000
00E000
01C000
038000
078000
070000
0E0000
1C0000
1C0000
380000
700000
7FFF80
FFFF80
FFFF80
ENDCHAR
STARTCHAR zdotaccent
ENCODING 380
SWIDTH 600 0
DWIDTH 22 0
BBX 16 26 3 0
BITMAP
01C0
03E0
03E0
03E0
01C0
0000
0000
0000
7FFF
7FFF
7FFE
001E
003C
0078
00F0
01E0
03C0
0780
0700
0E00
1C00
3800
7000
FFFF
FFFF
FFFF
ENDCHAR
STARTCHAR Zcaron
ENCODING 381
SWIDTH 600 0
DWIDTH 22 0
BBX 17 30 2 0
BITMAP
040400
0E0E00
033800
03F000
01E000
000000
7FFF80
7FFF80
7FFF80
000700
000F00
000E00
001C00
003C00
003800
007000
00E000
00E000
01C000
038000
078000
070000
0E0000
1C0000
1C0000
380000
700000
7FFF80
FFFF80
FFFF80
ENDCHAR
STARTCHAR zcaron
ENCODING 382
SWIDTH 600 0
DWIDTH 22 0
BBX 16 27 3 0
BITMAP
0808
1C1C
0E38
0770
03E0
01E0
0000
0000
0000
7FFF
7FFF
7FFE
001E
003C
0078
00F0
01E0
03C0
0780
0700
0E00
1C00
3800
7000
FFFF
FFFF
FFFF
ENDCHAR
STARTCHAR longs
ENCODING 383
SWIDTH 600 0
DWIDTH 22 0
BBX 17 26 4 0
BITMAP
00FE00
01FF80
03FF00
07C100
070000
070000
070000
070000
FF0000
FF0000
FF0000
070000
070000
070000
070000
070000
070000
070000
070000
070000
070000
070000
070000
070000
070000
070000
ENDCHAR
STARTCHAR uni0180
ENCODING 384
SWIDTH 600 0
DWIDTH 22 0
BBX 18 26 1 0
BITMAP
380000
380000
380000
FFF800
FFF800
FFF800
380000
380000
380000
387C00
39FF00
3FFF80
3F0780
3E03C0
3801C0
3801C0
3801C0
3801C0
3801C0
3801C0
3801C0
3C03C0
3F0F80
3FFF00
3BFE00
38F800
ENDCHAR
STARTCHAR uni018A
ENCODING 394
SWIDTH 600 0
DWIDTH 22 0
BBX 19 24 1 0
BITMAP
07F800
1FFE00
3FFF00
79CF80
71C3C0
E1C1C0
E1C1E0
C1C0E0
C1C0E0
E1C0E0
E1C0E0
E1C0E0
71C0E0
79C0E0
11C0E0
01C0E0
01C0E0
01C1E0
01C1C0
01C3C0
01C780
01FF00
01FE00
01F800
ENDCHAR
STARTCHAR uni018F
ENCODING 399
SWIDTH 600 0
DWIDTH 22 0
BBX 18 24 2 0
BITMAP
03F000
0FFC00
1FFE00
3C1F00
080700
000380
000380
000380
0001C0
0001C0
FFFFC0
FFFFC0
FFFFC0
E001C0
E001C0
600380
700380
700380
700780
380F00
1E1E00
1FFE00
0FF800
03F000
ENDCHAR
STARTCHAR uni0192
ENCODING 402
SWIDTH 600 0
DWIDTH 22 0
BBX 17 28 2 -4
BITMAP
001F00
003F80
007F80
007080
00E000
00E000
00E000
00C000
01C000
1FFE00
1FFE00
1FFE00
01C000
01C000
01C000
01C000
01C000
018000
038000
038000
038000
038000
038000
070000
0F0000
FF0000
FE0000
F80000
ENDCHAR
STARTCHAR uni0193
ENCODING 403
SWIDTH 600 0
DWIDTH 22 0
BBX 19 29 2 0
BITMAP
0001E0
0003E0
0007E0
000700
000700
01FE00
07FF00
0FFF00
1F0780
3C0300
780000
700000
F00000
E00000
E00000
E00000
E03F80
E03F80
E03F80
E00380
E00380
F00380
700380
780380
3C0380
3F0780
1FFF80
07FF00
01F800
ENDCHAR
STARTCHAR Ohorn
ENCODING 416
SWIDTH 600 0
DWIDTH 22 0
BBX 18 29 2 0
BITMAP
0000C0
0001C0
0000C0
0000C0
0001C0
03F3C0
0FFF80
1FFE00
3E1E00
780F00
700780
700380
E00380
E003C0
E003C0
E001C0
E001C0
E001C0
E001C0
E001C0
E003C0
E00380
700380
700780
780F00
3E1F00
1FFE00
0FFC00
03F000
ENDCHAR
STARTCHAR ohorn
ENCODING 417
SWIDTH 600 0
DWIDTH 22 0
BBX 18 24 2 0
BITMAP
0000C0
0001C0
0001C0
0000C0
0001C0
0001C0
03F780
0FFF00
1FFC00
3C1E00
780700
700780
F00380
E00380
E00380
E00380
E00380
F00380
700780
780700
3C1F00
1FFE00
0FFC00
03F000
ENDCHAR
STARTCHAR Uhorn
ENCODING 431
SWIDTH 600 0
DWIDTH 22 0
BBX 20 30 3 0
BITMAP
000020
000070
000070
000070
000060
0000E0
E00780
E00700
E00700
E00700
E00700
E00700
E00700
E00700
E00700
E00700
E00700
E00700
E00700
E00700
E00700
E00700
E00700
E00F00
F00E00
701E00
7C3C00
3FFC00
1FF800
07E000
ENDCHAR
STARTCHAR uhorn
ENCODING 432
SWIDTH 600 0
DWIDTH 22 0
BBX 19 25 3 0
BITMAP
000040
0001C0
0000C0
0000E0
0000C0
0001C0
000380
E00F00
E00E00
E00E00
E00E00
E00E00
E00E00
E00E00
E00E00
E00E00
E00E00
E00E00
E00E00
E01E00
E03E00
F87E00
7FE600
7FC600
1F8600
ENDCHAR
STARTCHAR uni01C2
ENCODING 450
SWIDTH 600 0
DWIDTH 22 0
BBX 16 33 3 -7
BITMAP
0380
0380
0380
0380
0380
0380
0380
0380
0380
0380
0380
0380
FFFF
FFFF
FFFF
0380
0380
0380
0380
FFFF
FFFF
FFFF
0380
0380
0380
0380
0380
0380
0380
0380
0380
0380
0380
ENDCHAR
STARTCHAR uni01CD
ENCODING 461
SWIDTH 600 0
DWIDTH 22 0
BBX 19 30 1 0
BITMAP
040600
0F0E00
039C00
01F800
00F000
000000
00F000
00F000
01F000
01B800
01B800
039800
039C00
031C00
070C00
070E00
060E00
0E0600
0E0700
0C0700
1FFF00
1FFF80
1FFF80
380380
3801C0
3801C0
7001C0
7001E0
7000E0
E000E0
ENDCHAR
STARTCHAR uni01CE
ENCODING 462
SWIDTH 600 0
DWIDTH 22 0
BBX 16 27 3 0
BITMAP
0808
1C1C
0E38
0770
03E0
01C0
0000
0000
0000
07F0
1FF8
7FFC
783E
600E
000E
0007
00FF
0FFF
3FFF
7F07
F007
E007
E00F
F03F
7FF7
7FE7
1F87
ENDCHAR
STARTCHAR uni01CF
ENCODING 463
SWIDTH 600 0
DWIDTH 22 0
BBX 15 30 3 0
BITMAP
1018
3C38
0E70
07E0
03C0
0000
FFFE
FFFE
FFFE
0380
0380
0380
0380
0380
0380
0380
0380
0380
0380
0380
0380
0380
0380
0380
0380
0380
0380
FFFE
FFFE
FFFE
ENDCHAR
STARTCHAR uni01D0
ENCODING 464
SWIDTH 600 0
DWIDTH 22 0
BBX 15 27 3 0
BITMAP
0404
0E0E
071C
03B8
01F0
00E0
0000
0000
0000
FFE0
FFE0
FFE0
00E0
00E0
00E0
00E0
00E0
00E0
00E0
00E0
00E0
00E0
00E0
00E0
00E0
00E0
00E0
ENDCHAR
STARTCHAR uni01D1
ENCODING 465
SWIDTH 600 0
DWIDTH 22 0
BBX 18 30 2 0
BITMAP
080C00
1E1C00
073800
03F000
01E000
000000
03F000
0FFC00
1FFE00
3E1F00
780F00
700780
700380
E00380
E003C0
E003C0
E001C0
E001C0
E001C0
E001C0
E001C0
E003C0
E00380
700380
700780
780F00
3E1F00
1FFE00
0FFC00
03F000
ENDCHAR
STARTCHAR uni01D2
ENCODING 466
SWIDTH 600 0
DWIDTH 22 0
BBX 17 27 2 0
BITMAP
080400
1C1C00
0E3800
077000
03F000
01E000
000000
000000
000000
03F000
0FFC00
1FFE00
3C1F00
780700
700780
F00380
E00380
E00380
E00380
E00380
F00380
700780
780700
3C1F00
1FFE00
0FFC00
03F000
ENDCHAR
STARTCHAR uni01D3
ENCODING 467
SWIDTH 600 0
DWIDTH 22 0
BBX 16 30 3 0
BITMAP
1018
3C38
0E70
07E0
03C0
0000
E007
E007
E007
E007
E007
E007
E007
E007
E007
E007
E007
E007
E007
E007
E007
E007
E007
E00F
F00E
701E
7C3C
3FFC
1FF8
07E0
ENDCHAR
STARTCHAR uni01D4
ENCODING 468
SWIDTH 600 0
DWIDTH 22 0
BBX 15 27 3 0
BITMAP
1018
3838
1C70
0EE0
07C0
03C0
0000
0000
0000
E00E
E00E
E00E
E00E
E00E
E00E
E00E
E00E
E00E
E00E
E00E
E00E
E01E
E03E
F87E
7FE6
7FC6
1F86
ENDCHAR
STARTCHAR uni01D5
ENCODING 469
SWIDTH 600 0
DWIDTH 22 0
BBX 16 33 3 0
BITMAP
1FF8
1FF8
0000
0000
1838
3C38
1838
0000
0000
E007
E007
E007
E007
E007
E007
E007
E007
E007
E007
E007
E007
E007
E007
E007
E007
E007
E00F
F00E
701E
7C3C
3FFC
1FF8
07E0
ENDCHAR
STARTCHAR uni01D6
ENCODING 470
SWIDTH 600 0
DWIDTH 22 0
BBX 15 29 3 0
BITMAP
1FF0
1FF0
0000
0000
0000
1830
1C78
1830
0000
0000
0000
E00E
E00E
E00E
E00E
E00E
E00E
E00E
E00E
E00E
E00E
E00E
E00E
E01E
E03E
F87E
7FE6
7FC6
1F86
ENDCHAR
STARTCHAR uni01D7
ENCODING 471
SWIDTH 600 0
DWIDTH 22 0
BBX 16 35 3 0
BITMAP
0060
0070
00C0
0180
0300
0000
1838
3C38
1838
0000
0000
E007
E007
E007
E007
E007
E007
E007
E007
E007
E007
E007
E007
E007
E007
E007
E007
E007
E00F
F00E
701E
7C3C
3FFC
1FF8
07E0
ENDCHAR
STARTCHAR uni01D8
ENCODING 472
SWIDTH 600 0
DWIDTH 22 0
BBX 15 30 3 0
BITMAP
0040
00E0
01C0
0180
0300
0000
1830
1C78
1830
0000
0000
0000
E00E
E00E
E00E
E00E
E00E
E00E
E00E
E00E
E00E
E00E
E00E
E00E
E01E
E03E
F87E
7FE6
7FC6
1F86
ENDCHAR
STARTCHAR uni01D9
ENCODING 473
SWIDTH 600 0
DWIDTH 22 0
BBX 16 34 3 0
BITMAP
1810
0C78
07E0
03C0
0000
1838
3C38
1838
0000
0000
E007
E007
E007
E007
E007
E007
E007
E007
E007
E007
E007
E007
E007
E007
E007
E007
E007
E00F
F00E
701E
7C3C
3FFC
1FF8
07E0
ENDCHAR
STARTCHAR uni01DA
ENCODING 474
SWIDTH 600 0
DWIDTH 22 0
BBX 15 30 3 0
BITMAP
0830
1C70
07E0
0380
0000
0000
1830
1C78
1830
0000
0000
0000
E00E
E00E
E00E
E00E
E00E
E00E
E00E
E00E
E00E
E00E
E00E
E00E
E01E
E03E
F87E
7FE6
7FC6
1F86
ENDCHAR
STARTCHAR uni01DB
ENCODING 475
SWIDTH 600 0
DWIDTH 22 0
BBX 16 35 3 0
BITMAP
0400
0E00
0700
0380
0180
0000
1838
3C38
1838
0000
0000
E007
E007
E007
E007
E007
E007
E007
E007
E007
E007
E007
E007
E007
E007
E007
E007
E007
E00F
F00E
701E
7C3C
3FFC
1FF8
07E0
ENDCHAR
STARTCHAR uni01DC
ENCODING 476
SWIDTH 600 0
DWIDTH 22 0
BBX 15 30 3 0
BITMAP
0600
0E00
0300
0180
0180
0000
1830
1C78
1830
0000
0000
0000
E00E
E00E
E00E
E00E
E00E
E00E
E00E
E00E
E00E
E00E
E00E
E00E
E01E
E03E
F87E
7FE6
7FC6
1F86
ENDCHAR
STARTCHAR uni01E2
ENCODING 482
SWIDTH 600 0
DWIDTH 22 0
BBX 21 28 0 0
BITMAP
003FF0
003FF0
000000
000000
007FF8
007FF8
00FFF8
00FC00
00FC00
01DC00
01DC00
039C00
039C00
039C00
071FE0
071FE0
071FE0
0E1C00
0E1C00
1FFC00
1FFC00
1FFC00
3C1C00
381C00
781C00
701FF8
701FF8
E01FF8
ENDCHAR
STARTCHAR uni01E3
ENCODING 483
SWIDTH 600 0
DWIDTH 22 0
BBX 20 24 1 0
BITMAP
03FE00
03FE00
000000
000000
000000
000000
1F0780
7F9FE0
FFDFE0
61F870
00F030
00E030
006030
03FFF0
1FFFF0
7C7FF0
F06000
E06000
C07000
C07000
E1F820
FFBFF0
7F1FE0
3E07C0
ENDCHAR
STARTCHAR Gcaron
ENCODING 486
SWIDTH 600 0
DWIDTH 22 0
BBX 17 30 2 0
BITMAP
040600
070E00
039C00
01F800
00F000
000000
01F800
07FE00
0FFF00
1F0780
3C0300
780000
700000
F00000
E00000
E00000
E00000
E03F80
E03F80
E03F80
E00380
E00380
F00380
700380
780380
3C0380
3F0780
1FFF80
07FF00
01F800
ENDCHAR
STARTCHAR gcaron
ENCODING 487
SWIDTH 600 0
DWIDTH 22 0
BBX 17 34 3 -7
BITMAP
100800
381C00
0C3000
0F7000
07E000
03C000
000000
000000
000000
07FF80
1FFF80
3FFF80
783F80
701800
601C00
601C00
701C00
783C00
3FF800
1FF000
37C000
600000
600000
700000
7FFE00
3FFF00
7FFF80
E00380
C00380
C00380
F00F80
FFFF00
7FFC00
1FF000
ENDCHAR
STARTCHAR uni01EA
ENCODING 490
SWIDTH 600 0
DWIDTH 22 0
BBX 18 33 2 -9
BITMAP
03F000
0FFC00
1FFE00
3E1F00
780F00
700780
700380
E00380
E003C0
E001C0
E001C0
E001C0
E001C0
E001C0
E001C0
E003C0
E00380
700380
700780
780F00
3E1E00
1FFE00
0FF800
03F000
00C000
018000
030000
030000
030000
039000
03F000
03F800
01E000
ENDCHAR
STARTCHAR uni01EB
ENCODING 491
SWIDTH 600 0
DWIDTH 22 0
BBX 17 26 2 -8
BITMAP
03F000
0FFC00
1FFE00
3C1F00
780700
700780
F00380
E00380
E00380
E00380
E00380
F00380
700780
780700
3C1F00
1FFE00
0FFC00
03F000
00C000
018000
030000
030000
039000
03F800
03F800
00F000
ENDCHAR
STARTCHAR uni01F4
ENCODING 500
SWIDTH 600 0
DWIDTH 22 0
BBX 17 31 2 0
BITMAP
000800
001C00
003C00
007000
00E000
00C000
000000
01F800
07FE00
0FFF00
1F0780
3C0300
780000
700000
F00000
E00000
E00000
E00000
E03F80
E03F80
E03F80
E00380
E00380
F00380
700380
780380
3C0380
3F0780
1FFF80
07FF00
01F800
ENDCHAR
STARTCHAR uni01F5
ENCODING 501
SWIDTH 600 0
DWIDTH 22 0
BBX 17 35 3 -7
BITMAP
002000
003000
007800
00F000
01E000
03C000
038000
010000
000000
000000
07FF80
1FFF80
3FFF80
783F80
701800
601C00
601C00
701C00
783C00
3FF800
1FF000
37C000
600000
600000
700000
7FFE00
3FFF00
7FFF80
E00380
C00380
C00380
F00F80
FFFF00
7FFC00
1FF000
ENDCHAR
STARTCHAR uni01F8
ENCODING 504
SWIDTH 600 0
DWIDTH 22 0
BBX 16 31 3 0
BITMAP
0400
0E00
0F00
0380
01E0
0040
0000
F007
F007
F807
F807
DC07
FC07
EE07
EE07
E707
E707
E387
E387
E1C7
E1C7
E0E7
E0E7
E067
E077
E037
E03F
E01F
E01F
E00F
E00F
ENDCHAR
STARTCHAR uni01F9
ENCODING 505
SWIDTH 600 0
DWIDTH 22 0
BBX 16 28 3 0
BITMAP
0400
0E00
0F00
0700
0380
01C0
00E0
0040
0000
0000
E1F8
E7FC
EFFE
FE1E
F80F
F007
E007
E007
E007
E007
E007
E007
E007
E007
E007
E007
E007
E007
ENDCHAR
STARTCHAR Aringacute
ENCODING 506
SWIDTH 600 0
DWIDTH 22 0
BBX 19 35 1 0
BITMAP
000800
001800
003C00
00E000
01F000
019800
030800
030800
011800
00F000
000000
00F000
00F000
01F000
01F800
01B800
039800
039C00
031C00
071C00
070E00
060E00
0E0E00
0E0700
0C0700
1FFF00
1FFF80
1FFF80
380380
3801C0
3801C0
7001C0
7001E0
7000E0
E000E0
ENDCHAR
STARTCHAR aringacute
ENCODING 507
SWIDTH 600 0
DWIDTH 22 0
BBX 16 31 3 0
BITMAP
0020
0070
00E0
03C0
07F0
0630
0610
0630
0630
03E0
0000
0000
0000
07F0
1FF8
7FFC
783E
600E
000E
0007
007F
0F87
3807
6007
E007
E00F
E01F
F07F
FFF7
7FE7
1F87
ENDCHAR
STARTCHAR AEacute
ENCODING 508
SWIDTH 600 0
DWIDTH 22 0
BBX 21 31 0 0
BITMAP
000040
0000E0
0001F0
000380
000700
000200
000000
007FF8
007FF8
00FFF8
00FC00
00FC00
01DC00
01DC00
039C00
039C00
039C00
071FE0
071FE0
071FE0
0E1C00
0E1C00
1FFC00
1FFC00
1FFC00
3C1C00
381C00
781C00
701FF8
701FF8
E01FF8
ENDCHAR
STARTCHAR aeacute
ENCODING 509
SWIDTH 600 0
DWIDTH 22 0
BBX 20 28 1 0
BITMAP
000400
000E00
001E00
003C00
003800
007000
00E000
004000
000000
000000
1F0780
7F9FE0
FFDFE0
61F870
00F030
00E030
006030
03FFF0
1FFFF0
7C7FF0
F06000
E06000
C07000
C07000
E1F820
FFBFF0
7F1FE0
3E07C0
ENDCHAR
STARTCHAR Oslashacute
ENCODING 510
SWIDTH 600 0
DWIDTH 22 0
BBX 19 32 1 -1
BITMAP
000800
001C00
003800
007000
01E000
008000
000040
01F8E0
07FEE0
0FFFC0
1F0F80
3C0780
3807C0
780FC0
701DC0
701DE0
7038E0
7070E0
7070E0
70E0E0
71C0E0
7180E0
7381E0
7701C0
3E01C0
3E03C0
3C0780
3E0F80
3FFF00
77FE00
E1F800
200000
ENDCHAR
STARTCHAR oslashacute
ENCODING 511
SWIDTH 600 0
DWIDTH 22 0
BBX 17 29 2 -1
BITMAP
001000
003800
003C00
007000
00E000
01C000
03C000
008000
000000
000100
03F180
0FFF80
1FFF00
3C0F00
781F00
703B80
F07380
E07380
E0E380
E1C380
E38380
F70380
7E0780
7C0700
3C1F00
3FFE00
7FFC00
E3F000
400000
ENDCHAR
STARTCHAR uni0218
ENCODING 536
SWIDTH 600 0
DWIDTH 22 0
BBX 17 32 2 -8
BITMAP
03F000
0FFC00
1FFF00
3E0F80
380300
380000
380000
380000
3C0000
1F0000
0FC000
07F800
00FE00
003F00
000F80
000380
000380
000380
200380
700780
FC0F00
3FFF00
1FFE00
03F000
000000
000000
00C000
017000
003000
003000
00E000
03C000
ENDCHAR
STARTCHAR uni0219
ENCODING 537
SWIDTH 600 0
DWIDTH 22 0
BBX 16 26 3 -8
BITMAP
0FE0
3FF8
7FFC
781E
7004
7000
7800
3F00
1FF0
03FC
003E
000F
0007
C007
F81F
7FFE
3FFC
07F0
0000
0000
0380
00E0
0060
00E0
01C0
0700
ENDCHAR
STARTCHAR uni021A
ENCODING 538
SWIDTH 600 0
DWIDTH 22 0
BBX 18 32 2 -8
BITMAP
FFFFC0
FFFFC0
FFFFC0
01C000
01C000
01C000
01C000
01C000
01C000
01C000
01C000
01C000
01C000
01C000
01C000
01C000
01C000
01C000
01C000
01C000
01C000
01C000
01C000
01C000
000000
000000
01C000
006000
007000
007000
00E000
078000
ENDCHAR
STARTCHAR uni021B
ENCODING 539
SWIDTH 600 0
DWIDTH 22 0
BBX 18 32 2 -8
BITMAP
030000
030000
030000
030000
030000
030000
FFFF80
FFFF80
FFFF80
070000
070000
070000
070000
070000
070000
070000
070000
070000
078000
038000
03C080
03FF80
01FFC0
007F00
000000
000000
003800
001C00
000C00
000C00
001C00
00F000
ENDCHAR
STARTCHAR uni0237
ENCODING 567
SWIDTH 600 0
DWIDTH 22 0
BBX 12 25 2 -7
BITMAP
7FF0
7FF0
7FF0
0070
0070
0070
0070
0070
0070
0070
0070
0070
0070
0070
0070
0070
0070
0070
0070
0070
0070
40F0
FFE0
FFC0
3F00
ENDCHAR
STARTCHAR uni0243
ENCODING 579
SWIDTH 600 0
DWIDTH 22 0
BBX 19 24 1 0
BITMAP
1FFC00
1FFF00
1FFF80
1C0780
1C03C0
1C01C0
1C0180
1C0380
1C0700
1FFE00
1FFC00
1FFF80
1C07C0
1C01C0
1C00E0
FFE0E0
FFE0E0
FFE0E0
1C01E0
1C01C0
1C07C0
1FFF80
1FFF00
1FFC00
ENDCHAR
STARTCHAR uni0250
ENCODING 592
SWIDTH 600 0
DWIDTH 22 0
BBX 16 18 3 0
BITMAP
E1F8
E7FE
EFFE
FE0F
F807
F007
E007
E01E
E0FC
FFF0
FF00
E000
7000
7004
7C1E
3FFE
1FF8
0FE0
ENDCHAR
STARTCHAR uni0251
ENCODING 593
SWIDTH 600 0
DWIDTH 22 0
BBX 16 18 2 0
BITMAP
07E3
0FF3
3FFF
3C1F
780F
7007
F007
E007
E007
E007
E007
F007
7007
780F
7C1F
3FFB
1FF3
07C3
ENDCHAR
STARTCHAR uni0252
ENCODING 594
SWIDTH 600 0
DWIDTH 22 0
BBX 16 18 3 0
BITMAP
E3F0
E7FC
FFFE
FC1E
F80F
E007
E007
E007
E007
E007
E007
E007
E00F
F00E
FC3E
FFFC
EFF8
E3E0
ENDCHAR
STARTCHAR uni0253
ENCODING 595
SWIDTH 600 0
DWIDTH 22 0
BBX 16 26 3 0
BITMAP
0F80
3FC0
7FC0
7840
7000
E000
E000
E000
E1F0
E7FC
FFFE
FC1E
F80F
E007
E007
E007
E007
E007
E007
E007
E00F
F00E
FC3E
FFFC
EFF8
E3E0
ENDCHAR
STARTCHAR uni0254
ENCODING 596
SWIDTH 600 0
DWIDTH 22 0
BBX 17 18 2 0
BITMAP
0FE000
3FF800
7FFC00
783E00
200F00
000700
000700
000780
000380
000380
000780
000700
000700
400F00
F03E00
7FFC00
3FF800
0FE000
ENDCHAR
STARTCHAR uni0255
ENCODING 597
SWIDTH 600 0
DWIDTH 22 0
BBX 16 21 3 -3
BITMAP
03F0
0FFC
1FFE
3E0F
7802
F000
E000
E000
E000
E03C
E0FF
E1FF
73C3
7F83
3E07
1FFF
1FFE
3BF8
3800
7000
3000
ENDCHAR
STARTCHAR uni0256
ENCODING 598
SWIDTH 600 0
DWIDTH 22 0
BBX 20 33 2 -7
BITMAP
000700
000700
000700
000700
000700
000700
000700
000700
03E700
0FF700
1FFF00
3C1F00
780F00
700700
F00700
E00700
E00700
E00700
E00700
F00700
700700
780F00
7C3F00
3FFF00
1FF700
07C700
000700
000700
000700
000780
0003E0
0003F0
0001F0
ENDCHAR
STARTCHAR uni0257
ENCODING 599
SWIDTH 600 0
DWIDTH 22 0
BBX 20 26 2 0
BITMAP
0000F0
0003F0
0003F0
000780
000700
000700
000700
000700
07E700
0FF700
3FFF00
3C1F00
780F00
700700
F00700
E00700
E00700
E00700
E00700
F00700
700700
780F00
7C3F00
3FFF00
1FF300
07C300
ENDCHAR
STARTCHAR uni0258
ENCODING 600
SWIDTH 600 0
DWIDTH 22 0
BBX 17 18 2 0
BITMAP
07E000
1FFC00
3FFE00
3C1E00
700700
600380
E00380
FFFF80
FFFF80
FFFF80
000380
000380
000780
400F00
703E00
7FFE00
1FF800
07E000
ENDCHAR
STARTCHAR uni0259
ENCODING 601
SWIDTH 600 0
DWIDTH 22 0
BBX 17 18 2 0
BITMAP
07F000
1FFC00
3FFE00
381F00
200700
000380
000380
000380
7FFF80
FFFF80
7FFF80
600380
700380
700700
3C0F00
3FFE00
0FFC00
03F000
ENDCHAR
STARTCHAR uni025A
ENCODING 602
SWIDTH 600 0
DWIDTH 22 0
BBX 21 18 1 0
BITMAP
0F8000
3FE000
7FF000
707800
003BC0
001FC0
003EC0
01FCC8
07DC78
3F1C38
F81C00
E01C00
E01C00
E03800
707800
7FF000
3FE000
0F8000
ENDCHAR
STARTCHAR uni025B
ENCODING 603
SWIDTH 600 0
DWIDTH 22 0
BBX 16 18 3 0
BITMAP
07F0
1FFC
3FFE
780F
7002
7000
3800
1FE0
0FE0
3FE0
7800
E000
E000
F002
780F
7FFF
3FFC
0FF0
ENDCHAR
STARTCHAR uni025C
ENCODING 604
SWIDTH 600 0
DWIDTH 22 0
BBX 16 18 2 0
BITMAP
07F0
1FFC
7FFE
781E
2007
000E
001E
07FC
07F8
07FE
000F
0007
0007
4007
F80F
7FFE
3FFC
07F0
ENDCHAR
STARTCHAR uni025E
ENCODING 606
SWIDTH 600 0
DWIDTH 22 0
BBX 17 18 2 0
BITMAP
03F800
0FFE00
1FFF00
3E0F00
780700
700700
F00F00
E07E00
E07C00
E07F00
E00780
F00380
700380
780380
3E0780
1FFF00
0FFE00
03F800
ENDCHAR
STARTCHAR uni025F
ENCODING 607
SWIDTH 600 0
DWIDTH 22 0
BBX 18 25 2 -7
BITMAP
7FF000
7FF000
7FF000
007000
007000
007000
007000
007000
3FFFC0
3FFFC0
3FFFC0
007000
007000
007000
007000
007000
007000
007000
007000
007000
007000
40F000
FFE000
FFC000
3F8000
ENDCHAR
STARTCHAR uni0260
ENCODING 608
SWIDTH 600 0
DWIDTH 22 0
BBX 20 30 2 -7
BITMAP
0000F0
0003F0
0003F0
000780
000700
07E700
0FF700
3FFF00
3C1F00
780F00
700700
F00700
E00700
E00700
E00700
E00700
F00700
700F00
7C1F00
3FFF00
1FF700
0FE700
000700
000700
000700
200F00
381E00
7FFE00
1FFC00
07F000
ENDCHAR
STARTCHAR uni0261
ENCODING 609
SWIDTH 600 0
DWIDTH 22 0
BBX 16 25 2 -7
BITMAP
07E3
0FFB
3FFF
3C1F
780F
7007
F007
E007
E007
E007
E007
F007
780F
7C1F
3FFF
1FF7
07C7
0007
0007
0007
200F
381E
7FFE
1FFC
07F0
ENDCHAR
STARTCHAR uni0262
ENCODING 610
SWIDTH 600 0
DWIDTH 22 0
BBX 16 18 3 0
BITMAP
03F0
0FFC
1FFE
3E0F
7802
F000
E000
E000
E07F
E07F
E07F
E007
F007
7807
7E0F
3FFF
0FFE
03F0
ENDCHAR
STARTCHAR uni0263
ENCODING 611
SWIDTH 600 0
DWIDTH 22 0
BBX 18 25 2 -7
BITMAP
E001C0
700380
700380
700700
380700
380600
1C0E00
1C0C00
0E1C00
0E1800
063800
073800
037000
03F000
01E000
01E000
03E000
037000
073000
063800
063800
073800
07F800
07F000
01E000
ENDCHAR
STARTCHAR uni0264
ENCODING 612
SWIDTH 600 0
DWIDTH 22 0
BBX 17 18 2 0
BITMAP
780F80
FE1F80
7F7F80
87F880
03F000
03E000
077000
0E3800
0C1C00
1C0E00
380E00
380600
380700
3C0E00
3E1E00
1FFE00
0FFC00
03F000
ENDCHAR
STARTCHAR uni0265
ENCODING 613
SWIDTH 600 0
DWIDTH 22 0
BBX 15 25 3 -7
BITMAP
E00E
E00E
E00E
E00E
E00E
E00E
E00E
E00E
E00E
E00E
E00E
E00E
E01E
E03E
F87E
7FEE
7FCE
1F8E
000E
000E
000E
000E
000E
000E
000E
ENDCHAR
STARTCHAR uni0266
ENCODING 614
SWIDTH 600 0
DWIDTH 22 0
BBX 16 26 3 0
BITMAP
0F80
3FC0
7FC0
7840
7000
E000
E000
E000
E1F8
E7FC
EFFE
FE1E
F80F
F007
E007
E007
E007
E007
E007
E007
E007
E007
E007
E007
E007
E007
ENDCHAR
STARTCHAR uni0267
ENCODING 615
SWIDTH 600 0
DWIDTH 22 0
BBX 16 33 3 -7
BITMAP
0F80
3FC0
7FC0
7840
7000
E000
E000
E000
E1F8
E7FC
EFFE
FE1E
F80F
F007
E007
E007
E007
E007
E007
E007
E007
E007
E007
E007
E007
E007
0007
0007
0007
000E
00FE
00FE
00F8
ENDCHAR
STARTCHAR uni0268
ENCODING 616
SWIDTH 600 0
DWIDTH 22 0
BBX 17 26 3 0
BITMAP
00E000
01F000
01F000
01F000
00E000
000000
000000
000000
FFE000
FFE000
FFE000
00E000
00E000
00E000
00E000
3FFF80
3FFF80
3FFF80
00E000
00E000
00E000
00E000
00E000
00E000
00E000
00E000
ENDCHAR
STARTCHAR uni026A
ENCODING 618
SWIDTH 600 0
DWIDTH 22 0
BBX 16 18 3 0
BITMAP
FFFF
FFFF
FFFF
0380
0380
0380
0380
0380
0380
0380
0380
0380
0380
0380
0380
FFFF
FFFF
FFFF
ENDCHAR
STARTCHAR uni026B
ENCODING 619
SWIDTH 600 0
DWIDTH 22 0
BBX 16 26 3 0
BITMAP
FF80
FF80
FF80
0380
0380
0380
0380
0380
0380
0380
3F88
7F8C
678C
63FC
63F8
0380
0380
0380
0380
0380
0380
0380
03C1
01FF
01FF
007E
ENDCHAR
STARTCHAR uni026C
ENCODING 620
SWIDTH 600 0
DWIDTH 22 0
BBX 16 26 3 0
BITMAP
FF80
FF80
FF80
0380
0380
0380
7B80
FF80
FF80
C780
C380
E380
FFFC
7FFC
3FFC
0380
0380
0380
0380
0380
0380
0380
03C1
01FF
01FF
007E
ENDCHAR
STARTCHAR uni026D
ENCODING 621
SWIDTH 600 0
DWIDTH 22 0
BBX 16 33 3 -7
BITMAP
FF80
FF80
FF80
0380
0380
0380
0380
0380
0380
0380
0380
0380
0380
0380
0380
0380
0380
0380
0380
0380
0380
0380
0380
0380
0380
0380
0380
0380
0380
03C1
01FF
01FF
007E
ENDCHAR
STARTCHAR uni026E
ENCODING 622
SWIDTH 600 0
DWIDTH 22 0
BBX 18 33 3 -7
BITMAP
E00000
E00000
E00000
E00000
E00000
E00000
E00000
E00000
FFFF80
FFFF80
FFFF00
E00600
E00C00
E01C00
E03800
E03000
E06000
E0C000
E1FC00
E3FE00
E3FF00
E20F80
E00380
E00380
E003C0
E001C0
000380
000380
180780
1E0F00
1FFF00
07FE00
01F800
ENDCHAR
STARTCHAR uni026F
ENCODING 623
SWIDTH 600 0
DWIDTH 22 0
BBX 18 18 2 0
BITMAP
C1C1C0
C1C1C0
C1C1C0
C1C1C0
C1C1C0
C1C1C0
C1C1C0
C1C1C0
C1C1C0
C1C1C0
C1C1C0
C1C1C0
C1C3C0
E3C3C0
E3C7C0
FEFFC0
FEFDC0
3879C0
ENDCHAR
STARTCHAR uni0270
ENCODING 624
SWIDTH 600 0
DWIDTH 22 0
BBX 18 25 2 -7
BITMAP
C1C1C0
C1C1C0
C1C1C0
C1C1C0
C1C1C0
C1C1C0
C1C1C0
C1C1C0
C1C1C0
C1C1C0
C1C1C0
C1C1C0
C1C3C0
E3C3C0
E3C7C0
FEFFC0
FCFDC0
3879C0
0001C0
0001C0
0001C0
0001C0
0001C0
0001C0
0001C0
ENDCHAR
STARTCHAR uni0271
ENCODING 625
SWIDTH 600 0
DWIDTH 22 0
BBX 18 25 2 -7
BITMAP
E78F00
EF9F80
FFFFC0
F9F3C0
F0E1C0
E0E1C0
E0C1C0
E0C1C0
E0C1C0
E0C1C0
E0C1C0
E0C1C0
E0C1C0
E0C1C0
E0C1C0
E0C1C0
E0C1C0
E0C1C0
0001C0
0001C0
0001C0
0001C0
000FC0
001F80
001F00
ENDCHAR
STARTCHAR uni0272
ENCODING 626
SWIDTH 600 0
DWIDTH 22 0
BBX 19 25 0 -7
BITMAP
1C3F00
1CFF80
1DFFC0
1FC3C0
1F01E0
1E00E0
1C00E0
1C00E0
1C00E0
1C00E0
1C00E0
1C00E0
1C00E0
1C00E0
1C00E0
1C00E0
1C00E0
1C00E0
1C0000
1C0000
1C0000
1C0000
FC0000
FC0000
F00000
ENDCHAR
STARTCHAR uni0273
ENCODING 627
SWIDTH 600 0
DWIDTH 22 0
BBX 19 25 3 -7
BITMAP
E1F000
E7FC00
EFFE00
FE1E00
F80E00
F00F00
E00700
E00700
E00700
E00700
E00700
E00700
E00700
E00700
E00700
E00700
E00700
E00700
000700
000700
000700
000700
0007E0
0003E0
0001E0
ENDCHAR
STARTCHAR uni0274
ENCODING 628
SWIDTH 600 0
DWIDTH 22 0
BBX 15 18 3 0
BITMAP
F00E
F00E
F80E
FC0E
FC0E
EE0E
E70E
E70E
E38E
E1CE
E1CE
E0EE
E066
E076
E03E
E01E
E01E
E00E
ENDCHAR
STARTCHAR uni0275
ENCODING 629
SWIDTH 600 0
DWIDTH 22 0
BBX 17 18 2 0
BITMAP
03F000
0FFC00
1FFE00
3C0F00
700700
700380
E00380
FFFF80
FFFF80
FFFF80
E00180
E00380
700380
780700
3C1F00
3FFE00
0FFC00
03F000
ENDCHAR
STARTCHAR uni0276
ENCODING 630
SWIDTH 600 0
DWIDTH 22 0
BBX 20 18 1 0
BITMAP
07FFF0
1FFFF0
3FFFF0
7C3800
783800
703800
F03800
E03FC0
E03FC0
E03FC0
E03800
F03800
703800
783800
7C3800
3FFFF0
1FFFF0
07FFF0
ENDCHAR
STARTCHAR uni0278
ENCODING 632
SWIDTH 600 0
DWIDTH 22 0
BBX 18 33 2 -7
BITMAP
01C000
01C000
01C000
01C000
01C000
01C000
01C000
01C000
07F800
1FFE00
3FFF00
79CF00
71C780
E1C380
E1C1C0
E1C1C0
E1C1C0
E1C1C0
E1C1C0
E1C1C0
E1C380
71C780
7DCF00
3FFF00
1FFE00
07F800
01C000
01C000
01C000
01C000
01C000
01C000
01C000
ENDCHAR
STARTCHAR uni0279
ENCODING 633
SWIDTH 600 0
DWIDTH 22 0
BBX 14 18 2 0
BITMAP
001C
001C
001C
001C
001C
001C
001C
001C
001C
001C
001C
001C
003C
006C
81EC
7FCC
FF8C
7E0C
ENDCHAR
STARTCHAR uni027A
ENCODING 634
SWIDTH 600 0
DWIDTH 22 0
BBX 14 26 2 0
BITMAP
001C
001C
001C
001C
001C
001C
001C
001C
001C
001C
001C
001C
001C
001C
001C
001C
001C
001C
001C
001C
003C
006C
81EC
7FCC
FF8C
7E0C
ENDCHAR
STARTCHAR uni027B
ENCODING 635
SWIDTH 600 0
DWIDTH 22 0
BBX 17 25 2 -7
BITMAP
007000
007000
007000
007000
007000
007000
007000
007000
007000
007000
007000
00F000
00F000
01F000
83F000
7F7000
FE7000
7C7000
007000
007000
007000
007100
007F00
003F80
001F00
ENDCHAR
STARTCHAR uni027D
ENCODING 637
SWIDTH 600 0
DWIDTH 22 0
BBX 14 25 5 -7
BITMAP
E0FC
E3FC
E7FC
EF04
FC00
F800
F000
E000
E000
E000
E000
E000
E000
E000
E000
E000
E000
E000
E000
E000
7000
7810
7FF0
3FF0
0FC0
ENDCHAR
STARTCHAR uni027E
ENCODING 638
SWIDTH 600 0
DWIDTH 22 0
BBX 14 18 5 0
BITMAP
03F8
0FFC
1FFC
3E04
7800
7000
F000
E000
E000
E000
E000
E000
E000
E000
E000
E000
E000
E000
ENDCHAR
STARTCHAR uni0280
ENCODING 640
SWIDTH 600 0
DWIDTH 22 0
BBX 16 18 4 0
BITMAP
FFF0
FFF8
FFFC
E01E
E00E
E00E
E00E
E03C
FFFC
FFF8
FFE0
E0E0
E0F0
E070
E038
E03C
E01E
E00F
ENDCHAR
STARTCHAR uni0281
ENCODING 641
SWIDTH 600 0
DWIDTH 22 0
BBX 16 18 2 0
BITMAP
F007
7807
3807
1C07
0E07
0707
07FF
1FFF
3FFF
7807
7007
7007
7007
7007
7807
3FFF
3FFF
0FFF
ENDCHAR
STARTCHAR uni0282
ENCODING 642
SWIDTH 600 0
DWIDTH 22 0
BBX 16 25 3 -7
BITMAP
0FE0
3FF8
7FFC
781E
7004
7000
7800
3F00
1FF0
03FC
003E
000F
0007
C007
F81F
FFFE
FFFC
CFF0
C000
C000
C000
E000
FC00
7C00
3E00
ENDCHAR
STARTCHAR uni0283
ENCODING 643
SWIDTH 600 0
DWIDTH 22 0
BBX 17 33 2 -7
BITMAP
003F00
007F80
00FF80
00F080
01E000
01C000
01C000
01C000
01C000
01C000
01C000
01C000
01C000
01C000
01C000
01C000
01C000
01C000
01C000
01C000
01C000
01C000
01C000
01C000
01C000
01C000
01C000
01C000
01C000
43C000
FFC000
FF8000
3F0000
ENDCHAR
STARTCHAR uni0284
ENCODING 644
SWIDTH 600 0
DWIDTH 22 0
BBX 17 33 2 -7
BITMAP
003F00
007F80
00FF80
00F080
01E000
01C000
01C000
01C000
01C000
01C000
01C000
01C000
01C000
01C000
01C000
7FFF80
7FFF80
7FFF80
01C000
01C000
01C000
01C000
01C000
01C000
01C000
01C000
01C000
01C000
01C000
43C000
FFC000
FF8000
3F0000
ENDCHAR
STARTCHAR uni0287
ENCODING 647
SWIDTH 600 0
DWIDTH 22 0
BBX 17 24 2 -6
BITMAP
3F8000
FFC000
FFE000
C1F000
007000
007000
007000
007000
007000
007000
007000
007000
007000
007000
007000
7FFF80
7FFF80
7FFF80
007000
007000
007000
007000
007000
007000
ENDCHAR
STARTCHAR uni0288
ENCODING 648
SWIDTH 600 0
DWIDTH 22 0
BBX 18 31 2 -7
BITMAP
030000
030000
030000
030000
030000
030000
FFFF80
FFFF80
FFFF80
070000
070000
070000
070000
070000
070000
070000
070000
070000
070000
070000
070000
070000
070000
070000
070000
038000
038000
03C080
01FF80
01FFC0
007E00
ENDCHAR
STARTCHAR uni0289
ENCODING 649
SWIDTH 600 0
DWIDTH 22 0
BBX 21 18 0 0
BITMAP
0C0380
0C0380
0C0380
0C0380
0C0380
FFFFF8
FFFFF8
FFFFF8
0C0380
0C0380
0C0380
0E0380
0E0380
0E0780
0F0F80
0FFD80
07F980
03F180
ENDCHAR
STARTCHAR uni028A
ENCODING 650
SWIDTH 600 0
DWIDTH 22 0
BBX 18 18 2 0
BITMAP
FE1FC0
FE1FC0
FE1FC0
1C0C00
380600
300700
700380
600380
E00380
E00380
E00380
F00380
700380
780780
3C1F00
3FFE00
0FFC00
07F000
ENDCHAR
STARTCHAR uni028B
ENCODING 651
SWIDTH 600 0
DWIDTH 22 0
BBX 16 18 3 0
BITMAP
E0F8
E07E
E07E
E00F
E007
E007
E007
E007
E007
E007
E007
E007
E00F
F01E
783E
7FFC
3FF8
0FE0
ENDCHAR
STARTCHAR uni028C
ENCODING 652
SWIDTH 600 0
DWIDTH 22 0
BBX 18 18 2 0
BITMAP
01E000
03E000
03E000
037000
077000
073800
0E3800
0E1800
0C1C00
1C1C00
1C0E00
380E00
380700
300700
700700
700380
E00380
E001C0
ENDCHAR
STARTCHAR uni028D
ENCODING 653
SWIDTH 600 0
DWIDTH 22 0
BBX 21 18 0 0
BITMAP
0F03C0
0F07C0
0F07C0
1F86C0
1F86C0
198EE0
198EE0
39CCE0
39CCE0
38CC70
38DC70
30D870
70F870
70F870
707838
707838
607038
E00038
ENDCHAR
STARTCHAR uni028E
ENCODING 654
SWIDTH 600 0
DWIDTH 22 0
BBX 18 26 2 0
BITMAP
000F80
001F80
003F80
007800
007000
00E000
00E000
01C000
01C000
01C000
03E000
03E000
077000
067000
0E3800
0E3800
0C1800
1C1C00
1C0C00
380E00
380E00
300700
700700
700380
E00380
E001C0
ENDCHAR
STARTCHAR uni028F
ENCODING 655
SWIDTH 600 0
DWIDTH 22 0
BBX 18 18 2 0
BITMAP
F003C0
700380
380700
380E00
1C0E00
1E1C00
0E1C00
073800
073000
03F000
03E000
01E000
01C000
01C000
01C000
01C000
01C000
01C000
ENDCHAR
STARTCHAR uni0290
ENCODING 656
SWIDTH 600 0
DWIDTH 22 0
BBX 19 25 3 -7
BITMAP
7FFF00
7FFF00
7FFE00
001C00
003800
007800
00F000
01E000
03C000
078000
0F0000
0E0000
1C0000
380000
700000
FFFF00
FFFF00
FFFF00
000700
000700
000700
000700
0007E0
0003E0
0001E0
ENDCHAR
STARTCHAR uni0291
ENCODING 657
SWIDTH 600 0
DWIDTH 22 0
BBX 18 22 3 -4
BITMAP
7FFE00
7FFE00
7FFE00
001C00
003800
007000
00E000
01C000
038000
070700
0F0F80
1E1FC0
1C38C0
3830C0
7071C0
FFFF80
FFFF80
FFFE00
00E000
00C000
00C000
00C000
ENDCHAR
STARTCHAR uni0292
ENCODING 658
SWIDTH 600 0
DWIDTH 22 0
BBX 17 25 2 -7
BITMAP
3FFF00
3FFF00
3FFF00
000E00
003800
007000
00E000
01C000
038000
0FF000
1FFC00
0FFE00
081F00
000700
000780
000380
000380
000380
000380
400700
600F00
F81E00
3FFE00
1FF800
07E000
ENDCHAR
STARTCHAR uni0294
ENCODING 660
SWIDTH 600 0
DWIDTH 22 0
BBX 15 26 3 0
BITMAP
0FE0
3FF8
7FFC
F03C
E01E
800E
000E
000E
000E
000E
000E
001C
0038
00F0
01E0
03C0
0380
0380
0380
0380
0380
0380
0380
0380
0380
0380
ENDCHAR
STARTCHAR uni0295
ENCODING 661
SWIDTH 600 0
DWIDTH 22 0
BBX 16 26 3 0
BITMAP
07E0
1FF8
3FFE
7C1F
7007
F002
E000
E000
E000
6000
7000
3800
3C00
1E00
0780
03C0
01C0
01C0
01C0
01C0
01C0
01C0
01C0
01C0
01C0
01C0
ENDCHAR
STARTCHAR uni0298
ENCODING 664
SWIDTH 600 0
DWIDTH 22 0
BBX 17 26 2 0
BITMAP
03F000
0FF800
1FFE00
3E1E00
380F00
780700
700780
700380
E00380
E00380
E00380
E1E180
E1E180
E1E180
E1C180
E00380
E00380
E00380
700380
700380
700700
380F00
3E1E00
1FFE00
0FFC00
03F000
ENDCHAR
STARTCHAR uni0299
ENCODING 665
SWIDTH 600 0
DWIDTH 22 0
BBX 16 18 4 0
BITMAP
FFF0
FFFC
FFFE
E01E
E00E
E00E
E01C
FFF8
FFF8
FFFC
E01E
E007
E007
E007
E01F
FFFE
FFFC
FFF0
ENDCHAR
STARTCHAR uni029C
ENCODING 668
SWIDTH 600 0
DWIDTH 22 0
BBX 15 18 3 0
BITMAP
E00E
E00E
E00E
E00E
E00E
E00E
E00E
FFFE
FFFE
FFFE
E00E
E00E
E00E
E00E
E00E
E00E
E00E
E00E
ENDCHAR
STARTCHAR uni029D
ENCODING 669
SWIDTH 600 0
DWIDTH 22 0
BBX 15 34 2 -8
BITMAP
0070
00F8
00F8
00F8
0070
0000
0000
0000
7FF0
7FF0
7FF0
0070
0070
0070
0070
0070
0070
0070
0070
0070
0070
0070
0070
0070
3E70
7FF0
FFF0
E1F0
C078
E1F8
7FFC
7FCE
1F0E
0004
ENDCHAR
STARTCHAR uni029E
ENCODING 670
SWIDTH 600 0
DWIDTH 22 0
BBX 17 25 1 -7
BITMAP
700380
380380
1C0380
1C0380
0E0380
070780
070F80
039F80
03FF80
01FB80
00F380
01E380
038380
070380
0E0380
1C0380
380380
700380
800380
000380
000380
000380
000380
000380
000380
ENDCHAR
STARTCHAR uni029F
ENCODING 671
SWIDTH 600 0
DWIDTH 22 0
BBX 14 18 5 0
BITMAP
E000
E000
E000
E000
E000
E000
E000
E000
E000
E000
E000
E000
E000
E000
E000
FFFC
FFFC
FFFC
ENDCHAR
STARTCHAR uni02A1
ENCODING 673
SWIDTH 600 0
DWIDTH 22 0
BBX 16 26 3 0
BITMAP
0FE0
3FF8
7FFC
F03E
E01E
400E
000E
000E
000E
000E
001C
0038
0070
01E0
FFFF
FFFF
FFFF
0380
0380
0380
0380
0380
0380
0380
0380
0380
ENDCHAR
STARTCHAR uni02A2
ENCODING 674
SWIDTH 600 0
DWIDTH 22 0
BBX 16 26 3 0
BITMAP
07E0
1FF8
3FFE
7C1F
7007
F002
E000
E000
E000
7000
7800
3C00
1E00
0780
FFFF
FFFF
FFFF
01C0
01C0
01C0
01C0
01C0
01C0
01C0
01C0
01C0
ENDCHAR
STARTCHAR uni02A4
ENCODING 676
SWIDTH 600 0
DWIDTH 22 0
BBX 22 33 0 -7
BITMAP
007000
007000
007000
007000
007000
007000
007000
007000
0F7FF8
1FFFF8
3FFFF8
78F038
707070
F07060
E070E0
E071C0
E07180
E07380
E077E0
E077F0
E073F8
70F43C
78F01C
7FF01C
3FB01C
0E301C
00001C
00001C
00081C
000C38
001FF8
000FF0
0003E0
ENDCHAR
STARTCHAR uni02A6
ENCODING 678
SWIDTH 600 0
DWIDTH 22 0
BBX 20 23 1 0
BITMAP
180000
180000
180000
180000
180000
FFFF80
FFFFC0
FFFFE0
183860
183800
183800
183C00
181F00
180780
1801C0
1800E0
1C0060
1C0060
1C0070
1E01E0
0FFFE0
07FFC0
01FF00
ENDCHAR
STARTCHAR uni02A7
ENCODING 679
SWIDTH 600 0
DWIDTH 22 0
BBX 20 33 2 -7
BITMAP
0001F0
0003F0
1807E0
180700
180F00
180E00
180E00
380E00
FFFE00
FFFE00
FFFE00
380E00
380E00
380E00
380E00
380E00
380E00
380E00
380E00
380E00
380E00
3C0E00
1C0E00
1FCE00
1FCE00
07CE00
000E00
000E00
000E00
000E00
007E00
00FC00
00F800
ENDCHAR
STARTCHAR h.sups
ENCODING 688
SWIDTH 600 0
DWIDTH 22 0
BBX 11 18 6 13
BITMAP
E000
E000
E000
E000
E000
E780
EF80
DFC0
F1C0
E0C0
E0E0
E0E0
E0E0
E0E0
E0E0
E0E0
E0E0
E0E0
ENDCHAR
STARTCHAR j.sups
ENCODING 690
SWIDTH 600 0
DWIDTH 22 0
BBX 9 22 5 9
BITMAP
0300
0780
0300
0000
0000
7F00
7F00
0300
0300
0300
0300
0300
0300
0300
0300
0300
0300
0300
0300
8700
FE00
7C00
ENDCHAR
STARTCHAR r.sups
ENCODING 691
SWIDTH 600 0
DWIDTH 22 0
BBX 9 13 9 13
BITMAP
CF80
DF80
FF80
F000
E000
C000
C000
C000
C000
C000
C000
C000
C000
ENDCHAR
STARTCHAR w.sups
ENCODING 695
SWIDTH 600 0
DWIDTH 22 0
BBX 16 12 2 14
BITMAP
C183
E1C3
63C3
63C6
6346
6266
3666
366C
362C
343C
1C3C
1C38
ENDCHAR
STARTCHAR y.sups
ENCODING 696
SWIDTH 600 0
DWIDTH 22 0
BBX 12 17 5 9
BITMAP
E070
6060
60E0
30C0
30C0
39C0
1980
1980
0F00
0F00
0F00
0600
0600
0E00
1C00
7800
7000
ENDCHAR
STARTCHAR uni02B9
ENCODING 697
SWIDTH 600 0
DWIDTH 22 0
BBX 4 9 9 16
BITMAP
70
70
70
60
60
60
E0
E0
C0
ENDCHAR
STARTCHAR uni02BB
ENCODING 699
SWIDTH 600 0
DWIDTH 22 0
BBX 6 12 8 13
BITMAP
08
3C
70
60
E0
C0
C0
F8
F8
F8
F8
70
ENDCHAR
STARTCHAR uni02BC
ENCODING 700
SWIDTH 600 0
DWIDTH 22 0
BBX 6 12 8 13
BITMAP
70
F8
FC
FC
7C
1C
1C
18
38
70
E0
C0
ENDCHAR
STARTCHAR uni02BE
ENCODING 702
SWIDTH 600 0
DWIDTH 22 0
BBX 7 11 8 19
BITMAP
F0
F8
1C
0C
0E
0E
0E
0C
1C
F8
F0
ENDCHAR
STARTCHAR uni02BF
ENCODING 703
SWIDTH 600 0
DWIDTH 22 0
BBX 6 11 7 19
BITMAP
1C
7C
70
E0
C0
C0
C0
E0
70
7C
1C
ENDCHAR
STARTCHAR uni02C1
ENCODING 705
SWIDTH 600 0
DWIDTH 22 0
BBX 10 14 6 16
BITMAP
1F00
7FC0
E0C0
C080
C000
C000
C000
E000
7000
3C00
0C00
0C00
0C00
0C00
ENDCHAR
STARTCHAR circumflex
ENCODING 710
SWIDTH 600 0
DWIDTH 22 0
BBX 11 6 5 21
BITMAP
0F00
1F80
3B80
71C0
60E0
C020
ENDCHAR
STARTCHAR caron
ENCODING 711
SWIDTH 600 0
DWIDTH 22 0
BBX 11 6 5 21
BITMAP
4020
E0E0
71C0
3B80
1F80
0F00
ENDCHAR
STARTCHAR uni02C8
ENCODING 712
SWIDTH 600 0
DWIDTH 22 0
BBX 4 11 9 15
BITMAP
F0
F0
E0
E0
E0
E0
E0
60
60
60
60
ENDCHAR
STARTCHAR uni02C9
ENCODING 713
SWIDTH 600 0
DWIDTH 22 0
BBX 10 2 6 22
BITMAP
FFC0
FFC0
ENDCHAR
STARTCHAR uni02CA
ENCODING 714
SWIDTH 600 0
DWIDTH 22 0
BBX 8 8 8 20
BITMAP
04
0E
0F
1C
38
70
F0
20
ENDCHAR
STARTCHAR uni02CB
ENCODING 715
SWIDTH 600 0
DWIDTH 22 0
BBX 7 8 6 20
BITMAP
40
60
F0
78
3C
1C
0E
04
ENDCHAR
STARTCHAR uni02CC
ENCODING 716
SWIDTH 600 0
DWIDTH 22 0
BBX 4 12 9 -9
BITMAP
60
60
60
60
E0
E0
E0
E0
E0
E0
F0
F0
ENDCHAR
STARTCHAR uni02D0
ENCODING 720
SWIDTH 600 0
DWIDTH 22 0
BBX 7 18 7 0
BITMAP
FE
7E
3C
38
18
10
00
00
00
00
00
00
10
18
38
3C
7E
FE
ENDCHAR
STARTCHAR uni02D1
ENCODING 721
SWIDTH 600 0
DWIDTH 22 0
BBX 7 6 7 12
BITMAP
FE
7E
3C
38
18
10
ENDCHAR
STARTCHAR breve
ENCODING 728
SWIDTH 600 0
DWIDTH 22 0
BBX 11 5 5 21
BITMAP
C060
E060
70E0
3FC0
1F00
ENDCHAR
STARTCHAR dotaccent
ENCODING 729
SWIDTH 600 0
DWIDTH 22 0
BBX 5 5 8 21
BITMAP
70
78
F8
78
70
ENDCHAR
STARTCHAR ring
ENCODING 730
SWIDTH 600 0
DWIDTH 22 0
BBX 8 6 7 21
BITMAP
7C
C6
C3
C3
C6
7C
ENDCHAR
STARTCHAR ogonek
ENCODING 731
SWIDTH 600 0
DWIDTH 22 0
BBX 7 8 8 -8
BITMAP
38
60
C0
C0
C0
C4
FE
78
ENDCHAR
STARTCHAR tilde
ENCODING 732
SWIDTH 600 0
DWIDTH 22 0
BBX 12 5 5 21
BITMAP
3830
FC30
CE70
C7E0
C1C0
ENDCHAR
STARTCHAR hungarumlaut
ENCODING 733
SWIDTH 600 0
DWIDTH 22 0
BBX 11 7 7 20
BITMAP
10C0
38E0
31C0
7180
6380
E300
4300
ENDCHAR
STARTCHAR uni02DE
ENCODING 734
SWIDTH 600 0
DWIDTH 22 0
BBX 9 6 5 8
BITMAP
1800
F800
F800
8D00
0F80
0780
ENDCHAR
STARTCHAR uni02E0
ENCODING 736
SWIDTH 600 0
DWIDTH 22 0
BBX 11 17 5 9
BITMAP
E060
6060
60C0
30C0
31C0
3980
1980
1B00
0F00
0F00
0E00
0B00
1900
1980
1980
1F00
0F00
ENDCHAR
STARTCHAR l.sups
ENCODING 737
SWIDTH 600 0
DWIDTH 22 0
BBX 9 17 7 14
BITMAP
F800
F800
1800
1800
1800
1800
1800
1800
1800
1800
1800
1800
1800
1800
1C00
0F80
0F80
ENDCHAR
STARTCHAR s.sups
ENCODING 738
SWIDTH 600 0
DWIDTH 22 0
BBX 10 12 6 14
BITMAP
1F00
7FC0
6080
E000
7000
3E00
0780
01C0
00C0
E1C0
FF80
3F00
ENDCHAR
STARTCHAR x.sups
ENCODING 739
SWIDTH 600 0
DWIDTH 22 0
BBX 11 12 6 14
BITMAP
E0C0
6180
3380
3B00
1E00
0E00
1E00
3F00
3300
6180
E1C0
C0E0
ENDCHAR
STARTCHAR uni02E4
ENCODING 740
SWIDTH 600 0
DWIDTH 22 0
BBX 10 17 6 14
BITMAP
1F00
7FC0
E1C0
C080
C000
C000
C000
6000
7000
3C00
0C00
0C00
0C00
0C00
0C00
0C00
0C00
ENDCHAR
STARTCHAR uni0300
ENCODING 768
SWIDTH 600 0
DWIDTH 22 0
BBX 7 8 6 20
BITMAP
40
60
F0
78
3C
1C
0E
04
ENDCHAR
STARTCHAR uni0301
ENCODING 769
SWIDTH 600 0
DWIDTH 22 0
BBX 8 8 8 20
BITMAP
04
0E
0F
1C
38
70
F0
20
ENDCHAR
STARTCHAR uni0302
ENCODING 770
SWIDTH 600 0
DWIDTH 22 0
BBX 11 6 5 21
BITMAP
0F00
1F80
3B80
71C0
60E0
C020
ENDCHAR
STARTCHAR uni0303
ENCODING 771
SWIDTH 600 0
DWIDTH 22 0
BBX 12 5 5 21
BITMAP
3830
FC30
CE70
C7E0
C1C0
ENDCHAR
STARTCHAR uni0304
ENCODING 772
SWIDTH 600 0
DWIDTH 22 0
BBX 10 2 6 22
BITMAP
FFC0
FFC0
ENDCHAR
STARTCHAR uni0305
ENCODING 773
SWIDTH 600 0
DWIDTH 22 0
BBX 10 2 6 22
BITMAP
FFC0
FFC0
ENDCHAR
STARTCHAR uni0306
ENCODING 774
SWIDTH 600 0
DWIDTH 22 0
BBX 11 5 5 21
BITMAP
C060
E060
70E0
3FC0
1F00
ENDCHAR
STARTCHAR uni0307
ENCODING 775
SWIDTH 600 0
DWIDTH 22 0
BBX 5 5 8 21
BITMAP
70
78
F8
78
70
ENDCHAR
STARTCHAR uni0308
ENCODING 776
SWIDTH 600 0
DWIDTH 22 0
BBX 11 4 5 21
BITMAP
70E0
F1E0
F1E0
70E0
ENDCHAR
STARTCHAR uni0309
ENCODING 777
SWIDTH 600 0
DWIDTH 22 0
BBX 6 6 8 21
BITMAP
F0
F8
1C
1C
18
70
ENDCHAR
STARTCHAR uni030A
ENCODING 778
SWIDTH 600 0
DWIDTH 22 0
BBX 8 6 7 21
BITMAP
7C
C6
C3
C3
C6
7C
ENDCHAR
STARTCHAR uni030B
ENCODING 779
SWIDTH 600 0
DWIDTH 22 0
BBX 11 7 7 20
BITMAP
10C0
38E0
31C0
7180
6380
E300
4300
ENDCHAR
STARTCHAR uni030C
ENCODING 780
SWIDTH 600 0
DWIDTH 22 0
BBX 11 6 5 21
BITMAP
4020
E0E0
71C0
3B80
1F80
0F00
ENDCHAR
STARTCHAR uni030F
ENCODING 783
SWIDTH 600 0
DWIDTH 22 0
BBX 11 7 4 20
BITMAP
4300
E700
6380
7180
31C0
18C0
1860
ENDCHAR
STARTCHAR uni0310
ENCODING 784
SWIDTH 600 0
DWIDTH 22 0
BBX 12 9 5 20
BITMAP
0E00
0F00
0F00
C630
C060
6060
70E0
3FC0
1F00
ENDCHAR
STARTCHAR uni0311
ENCODING 785
SWIDTH 600 0
DWIDTH 22 0
BBX 11 5 5 21
BITMAP
1F00
3FC0
70E0
E060
C060
ENDCHAR
STARTCHAR uni0312
ENCODING 786
SWIDTH 600 0
DWIDTH 22 0
BBX 4 7 9 20
BITMAP
20
70
C0
C0
E0
F0
60
ENDCHAR
STARTCHAR uni0313
ENCODING 787
SWIDTH 600 0
DWIDTH 22 0
BBX 4 7 9 20
BITMAP
E0
F0
F0
30
60
E0
C0
ENDCHAR
STARTCHAR uni0318
ENCODING 792
SWIDTH 600 0
DWIDTH 22 0
BBX 6 8 8 -10
BITMAP
0C
0C
0C
FC
FC
0C
0C
0C
ENDCHAR
STARTCHAR uni0319
ENCODING 793
SWIDTH 600 0
DWIDTH 22 0
BBX 7 8 7 -10
BITMAP
C0
C0
C0
FE
FE
C0
C0
C0
ENDCHAR
STARTCHAR uni031A
ENCODING 794
SWIDTH 600 0
DWIDTH 22 0
BBX 6 5 8 21
BITMAP
FC
FC
0C
0C
0C
ENDCHAR
STARTCHAR uni031B
ENCODING 795
SWIDTH 600 0
DWIDTH 22 0
BBX 6 8 10 16
BITMAP
0C
1C
1C
1C
1C
18
F8
60
ENDCHAR
STARTCHAR uni031C
ENCODING 796
SWIDTH 600 0
DWIDTH 22 0
BBX 5 6 8 -9
BITMAP
38
E0
C0
C0
E0
38
ENDCHAR
STARTCHAR uni031D
ENCODING 797
SWIDTH 600 0
DWIDTH 22 0
BBX 8 6 7 -7
BITMAP
18
18
18
18
FF
FF
ENDCHAR
STARTCHAR uni031E
ENCODING 798
SWIDTH 600 0
DWIDTH 22 0
BBX 8 6 7 -9
BITMAP
FF
FF
18
18
18
18
ENDCHAR
STARTCHAR uni031F
ENCODING 799
SWIDTH 600 0
DWIDTH 22 0
BBX 8 8 7 -10
BITMAP
18
18
18
FF
FF
18
18
18
ENDCHAR
STARTCHAR uni0320
ENCODING 800
SWIDTH 600 0
DWIDTH 22 0
BBX 8 2 7 -6
BITMAP
FF
FF
ENDCHAR
STARTCHAR uni0323
ENCODING 803
SWIDTH 600 0
DWIDTH 22 0
BBX 5 5 8 -8
BITMAP
70
78
F8
78
70
ENDCHAR
STARTCHAR uni0324
ENCODING 804
SWIDTH 600 0
DWIDTH 22 0
BBX 11 4 5 -8
BITMAP
70E0
F1E0
F1E0
70E0
ENDCHAR
STARTCHAR uni0325
ENCODING 805
SWIDTH 600 0
DWIDTH 22 0
BBX 8 6 7 -8
BITMAP
7C
C6
C3
C3
C6
7C
ENDCHAR
STARTCHAR uni0326
ENCODING 806
SWIDTH 600 0
DWIDTH 22 0
BBX 7 6 7 -8
BITMAP
38
0C
0E
0E
1C
F0
ENDCHAR
STARTCHAR uni0327
ENCODING 807
SWIDTH 600 0
DWIDTH 22 0
BBX 7 9 7 -9
BITMAP
18
30
30
38
1C
0E
0C
1C
F0
ENDCHAR
STARTCHAR uni0328
ENCODING 808
SWIDTH 600 0
DWIDTH 22 0
BBX 7 8 8 -8
BITMAP
38
60
C0
C0
C0
C4
FE
78
ENDCHAR
STARTCHAR uni0329
ENCODING 809
SWIDTH 600 0
DWIDTH 22 0
BBX 2 7 10 -10
BITMAP
C0
C0
C0
C0
C0
C0
C0
ENDCHAR
STARTCHAR uni032A
ENCODING 810
SWIDTH 600 0
DWIDTH 22 0
BBX 9 6 6 -9
BITMAP
FF80
FF80
C180
C180
C180
C180
ENDCHAR
STARTCHAR uni032C
ENCODING 812
SWIDTH 600 0
DWIDTH 22 0
BBX 11 6 5 -8
BITMAP
4020
E0E0
71C0
3B80
1F80
0F00
ENDCHAR
STARTCHAR uni032E
ENCODING 814
SWIDTH 600 0
DWIDTH 22 0
BBX 11 5 5 -8
BITMAP
C060
E060
70E0
3FC0
1F00
ENDCHAR
STARTCHAR uni032F
ENCODING 815
SWIDTH 600 0
DWIDTH 22 0
BBX 11 5 5 -8
BITMAP
1F00
3FC0
70E0
E060
C060
ENDCHAR
STARTCHAR uni0330
ENCODING 816
SWIDTH 600 0
DWIDTH 22 0
BBX 12 5 5 -8
BITMAP
3830
FC30
CE70
C7E0
C1C0
ENDCHAR
STARTCHAR uni0331
ENCODING 817
SWIDTH 600 0
DWIDTH 22 0
BBX 10 2 6 -6
BITMAP
FFC0
FFC0
ENDCHAR
STARTCHAR uni0334
ENCODING 820
SWIDTH 600 0
DWIDTH 22 0
BBX 14 5 4 6
BITMAP
3810
7E1C
E718
C3F8
C0F0
ENDCHAR
STARTCHAR uni0339
ENCODING 825
SWIDTH 600 0
DWIDTH 22 0
BBX 5 6 9 -9
BITMAP
E0
30
30
38
30
E0
ENDCHAR
STARTCHAR uni033A
ENCODING 826
SWIDTH 600 0
DWIDTH 22 0
BBX 9 5 6 -8
BITMAP
C180
C180
C180
FF80
FF80
ENDCHAR
STARTCHAR uni033B
ENCODING 827
SWIDTH 600 0
DWIDTH 22 0
BBX 9 5 6 -8
BITMAP
FF80
C180
C180
C180
FF80
ENDCHAR
STARTCHAR uni033C
ENCODING 828
SWIDTH 600 0
DWIDTH 22 0
BBX 12 6 5 -8
BITMAP
79C0
FBE0
FFF0
CE70
C630
C630
ENDCHAR
STARTCHAR uni033D
ENCODING 829
SWIDTH 600 0
DWIDTH 22 0
BBX 7 6 7 20
BITMAP
46
EE
3C
3C
6E
C6
ENDCHAR
STARTCHAR uni0342
ENCODING 834
SWIDTH 600 0
DWIDTH 22 0
BBX 12 5 5 21
BITMAP
3830
FC30
CE70
C7E0
C1C0
ENDCHAR
STARTCHAR uni0345
ENCODING 837
SWIDTH 600 0
DWIDTH 22 0
BBX 4 5 10 -7
BITMAP
C0
C0
F0
F0
70
ENDCHAR
STARTCHAR uni035F
ENCODING 863
SWIDTH 600 0
DWIDTH 22 0
BBX 36 3 -7 -7
BITMAP
FFFFFFFFF0
FFFFFFFFF0
FFFFFFFFF0
ENDCHAR
STARTCHAR uni0361
ENCODING 865
SWIDTH 600 0
DWIDTH 22 0
BBX 33 7 -6 21
BITMAP
001FFC0000
00FFFFC000
07FFFFF000
1FE003FC00
3E00001F00
F000000780
4000000180
ENDCHAR
STARTCHAR uni0374
ENCODING 884
SWIDTH 600 0
DWIDTH 22 0
BBX 4 9 9 16
BITMAP
70
70
70
60
60
60
E0
E0
C0
ENDCHAR
STARTCHAR uni0375
ENCODING 885
SWIDTH 600 0
DWIDTH 22 0
BBX 3 9 9 0
BITMAP
60
60
60
60
E0
E0
E0
E0
E0
ENDCHAR
STARTCHAR uni037A
ENCODING 890
SWIDTH 600 0
DWIDTH 22 0
BBX 4 5 10 -7
BITMAP
C0
C0
F0
F0
70
ENDCHAR
STARTCHAR uni037E
ENCODING 894
SWIDTH 600 0
DWIDTH 22 0
BBX 7 27 7 -8
BITMAP
38
7C
7E
7E
7C
38
00
00
00
00
00
00
00
00
3C
7E
7E
7E
3E
06
0E
0E
1C
3C
78
E0
40
ENDCHAR
STARTCHAR tonos
ENCODING 900
SWIDTH 600 0
DWIDTH 22 0
BBX 4 9 10 20
BITMAP
70
70
70
60
E0
E0
C0
C0
C0
ENDCHAR
STARTCHAR dieresistonos
ENCODING 901
SWIDTH 600 0
DWIDTH 22 0
BBX 12 8 5 21
BITMAP
0380
0300
0700
0600
E660
E6F0
E460
0C00
ENDCHAR
STARTCHAR Alphatonos
ENCODING 902
SWIDTH 600 0
DWIDTH 22 0
BBX 19 25 1 0
BITMAP
300000
70F000
70F000
70F800
71F800
61D800
619C00
639C00
638C00
E30E00
C70E00
070E00
070700
060700
0E0700
0FFF00
0FFF80
1FFF80
1C0380
1C01C0
3801C0
3801C0
3800E0
7000E0
7000E0
ENDCHAR
STARTCHAR anoteleia
ENCODING 903
SWIDTH 600 0
DWIDTH 22 0
BBX 6 6 8 13
BITMAP
70
F8
FC
FC
F8
70
ENDCHAR
STARTCHAR Epsilontonos
ENCODING 904
SWIDTH 600 0
DWIDTH 22 0
BBX 18 25 1 0
BITMAP
700000
73FFC0
73FFC0
63FFC0
638000
E38000
E38000
E38000
C38000
C38000
C38000
03FF00
03FF00
03FF00
038000
038000
038000
038000
038000
038000
038000
038000
03FFC0
03FFC0
03FFC0
ENDCHAR
STARTCHAR Etatonos
ENCODING 905
SWIDTH 600 0
DWIDTH 22 0
BBX 18 25 1 0
BITMAP
700000
7381C0
7381C0
6381C0
6381C0
E381C0
E381C0
E381C0
C381C0
C381C0
C381C0
03FFC0
03FFC0
03FFC0
0381C0
0381C0
0381C0
0381C0
0381C0
0381C0
0381C0
0381C0
0381C0
0381C0
0381C0
ENDCHAR
STARTCHAR Iotatonos
ENCODING 906
SWIDTH 600 0
DWIDTH 22 0
BBX 17 25 1 0
BITMAP
700000
73FF80
73FF80
63FF80
603800
E03800
E03800
E03800
C03800
C03800
C03800
003800
003800
003800
003800
003800
003800
003800
003800
003800
003800
003800
03FF80
03FF80
03FF80
ENDCHAR
STARTCHAR Omicrontonos
ENCODING 908
SWIDTH 600 0
DWIDTH 22 0
BBX 19 25 1 0
BITMAP
700000
707C00
70FF00
61FF00
63C780
E783C0
E701C0
E701C0
C700C0
CE00E0
CE00E0
0E00E0
0E00E0
0E00E0
0E00E0
0E00E0
0E00E0
0700C0
0701C0
0701C0
0383C0
03C780
01FF00
00FE00
007C00
ENDCHAR
STARTCHAR Upsilontonos
ENCODING 910
SWIDTH 600 0
DWIDTH 22 0
BBX 21 25 1 0
BITMAP
380000
338038
738070
718070
71C060
70C0E0
60E0E0
60E0C0
6061C0
607180
E03380
003380
003B00
001F00
001E00
001E00
000E00
000E00
000E00
000E00
000E00
000E00
000E00
000E00
000E00
ENDCHAR
STARTCHAR Omegatonos
ENCODING 911
SWIDTH 600 0
DWIDTH 22 0
BBX 19 25 1 0
BITMAP
700000
707C00
71FE00
61FF00
63C780
E783C0
E701C0
E701C0
CF01C0
CE00E0
CE00E0
0E00E0
0E00E0
0E00E0
0E00E0
0600C0
0701C0
0701C0
070180
030380
038300
01C700
0FC7E0
0FC7E0
0FC7E0
ENDCHAR
STARTCHAR iotadieresistonos
ENCODING 912
SWIDTH 600 0
DWIDTH 22 0
BBX 16 29 3 0
BITMAP
01C0
01C0
0180
0180
3338
7B38
3338
0200
0000
0000
0000
FF80
FF80
FF80
0380
0380
0380
0380
0380
0380
0380
0380
0380
0380
0380
03C2
01FF
01FF
007C
ENDCHAR
STARTCHAR Alpha
ENCODING 913
SWIDTH 600 0
DWIDTH 22 0
BBX 19 24 1 0
BITMAP
00F000
00F000
01F000
01B800
01B800
039800
039C00
031C00
070C00
070E00
060E00
0E0600
0E0700
0C0700
1FFF00
1FFF80
1FFF80
380380
3801C0
3801C0
7001C0
7001E0
7000E0
E000E0
ENDCHAR
STARTCHAR Beta
ENCODING 914
SWIDTH 600 0
DWIDTH 22 0
BBX 16 24 4 0
BITMAP
FFC0
FFF0
FFF8
E07C
E01C
E01C
E01C
E01C
E01C
E078
FFF0
FFE0
FFF8
E03E
E00E
E007
E007
E007
E00F
E00E
E03E
FFFC
FFF8
FFE0
ENDCHAR
STARTCHAR Gamma
ENCODING 915
SWIDTH 600 0
DWIDTH 22 0
BBX 14 24 5 0
BITMAP
FFFC
FFFC
FFFC
E000
E000
E000
E000
E000
E000
E000
E000
E000
E000
E000
E000
E000
E000
E000
E000
E000
E000
E000
E000
E000
ENDCHAR
STARTCHAR uni0394
ENCODING 916
SWIDTH 600 0
DWIDTH 22 0
BBX 18 24 2 0
BITMAP
01E000
01E000
03E000
037000
037000
073000
073800
063800
0E1800
0E1C00
0C1C00
1C0C00
1C0E00
380E00
380600
380700
700700
700300
700380
E00380
E00180
FFFFC0
FFFFC0
FFFFC0
ENDCHAR
STARTCHAR Epsilon
ENCODING 917
SWIDTH 600 0
DWIDTH 22 0
BBX 15 24 4 0
BITMAP
FFFE
FFFE
FFFE
E000
E000
E000
E000
E000
E000
E000
FFF8
FFF8
FFF8
E000
E000
E000
E000
E000
E000
E000
E000
FFFE
FFFE
FFFE
ENDCHAR
STARTCHAR Zeta
ENCODING 918
SWIDTH 600 0
DWIDTH 22 0
BBX 17 24 2 0
BITMAP
7FFF80
7FFF80
7FFF80
000700
000F00
000E00
001C00
003C00
003800
007000
00E000
00E000
01C000
038000
078000
070000
0E0000
1C0000
1C0000
380000
700000
7FFF80
FFFF80
FFFF80
ENDCHAR
STARTCHAR Eta
ENCODING 919
SWIDTH 600 0
DWIDTH 22 0
BBX 16 24 3 0
BITMAP
E007
E007
E007
E007
E007
E007
E007
E007
E007
E007
FFFF
FFFF
FFFF
E007
E007
E007
E007
E007
E007
E007
E007
E007
E007
E007
ENDCHAR
STARTCHAR Theta
ENCODING 920
SWIDTH 600 0
DWIDTH 22 0
BBX 18 24 2 0
BITMAP
03F000
0FFC00
1FFE00
3E1F00
780F00
700780
700380
E00380
E003C0
E001C0
E7F1C0
E7F1C0
E7F1C0
E001C0
E001C0
E003C0
F00380
700380
700780
780F00
3E1F00
1FFE00
0FFC00
03F000
ENDCHAR
STARTCHAR Iota
ENCODING 921
SWIDTH 600 0
DWIDTH 22 0
BBX 15 24 3 0
BITMAP
FFFE
FFFE
FFFE
0380
0380
0380
0380
0380
0380
0380
0380
0380
0380
0380
0380
0380
0380
0380
0380
0380
0380
FFFE
FFFE
FFFE
ENDCHAR
STARTCHAR Kappa
ENCODING 922
SWIDTH 600 0
DWIDTH 22 0
BBX 17 24 4 0
BITMAP
E00F00
E01E00
E01C00
E03800
E07000
E0F000
E1E000
E3C000
E38000
E78000
EF8000
FFC000
FDC000
F8E000
F0F000
E07000
E07800
E03800
E01C00
E01C00
E00E00
E00E00
E00700
E00780
ENDCHAR
STARTCHAR Lambda
ENCODING 923
SWIDTH 600 0
DWIDTH 22 0
BBX 18 24 2 0
BITMAP
01E000
01E000
03E000
03F000
037000
073000
073800
063800
0E3800
0E1C00
0E1C00
1C1C00
1C1C00
1C0E00
380E00
380E00
380700
380700
700700
700380
700380
E00380
E003C0
E001C0
ENDCHAR
STARTCHAR Mu
ENCODING 924
SWIDTH 600 0
DWIDTH 22 0
BBX 16 24 3 0
BITMAP
E00F
F00F
F00F
F01F
F81B
D81F
D83F
DC37
DC37
CC77
CE67
CE67
C6E7
C7C7
C3C7
C3C7
C387
C187
C007
C007
C007
C007
C007
C007
ENDCHAR
STARTCHAR Nu
ENCODING 925
SWIDTH 600 0
DWIDTH 22 0
BBX 16 24 3 0
BITMAP
F007
F007
F807
F807
DC07
FC07
EE07
EE07
E707
E707
E387
E387
E1C7
E1C7
E0E7
E0E7
E067
E077
E037
E03F
E01F
E01F
E00F
E00F
ENDCHAR
STARTCHAR Xi
ENCODING 926
SWIDTH 600 0
DWIDTH 22 0
BBX 16 24 3 0
BITMAP
FFFF
FFFF
FFFF
0000
0000
0000
0000
0000
0000
0000
3FF8
3FF8
3FF8
0000
0000
0000
0000
0000
0000
0000
0000
FFFF
FFFF
FFFF
ENDCHAR
STARTCHAR Omicron
ENCODING 927
SWIDTH 600 0
DWIDTH 22 0
BBX 18 24 2 0
BITMAP
03F000
0FFC00
1FFE00
3E1F00
780F00
700780
700380
E00380
E003C0
E003C0
E001C0
E001C0
E001C0
E001C0
E001C0
E003C0
E00380
700380
700780
780F00
3E1F00
1FFE00
0FFC00
03F000
ENDCHAR
STARTCHAR Pi
ENCODING 928
SWIDTH 600 0
DWIDTH 22 0
BBX 16 24 3 0
BITMAP
FFFF
FFFF
FFFF
E007
E007
E007
E007
E007
E007
E007
E007
E007
E007
E007
E007
E007
E007
E007
E007
E007
E007
E007
E007
E007
ENDCHAR
STARTCHAR Rho
ENCODING 929
SWIDTH 600 0
DWIDTH 22 0
BBX 16 24 4 0
BITMAP
FFE0
FFF8
FFFC
E03E
E00E
E00E
E007
E00F
E00E
E00E
E03E
FFFC
FFF8
FFE0
E000
E000
E000
E000
E000
E000
E000
E000
E000
E000
ENDCHAR
STARTCHAR Sigma
ENCODING 931
SWIDTH 600 0
DWIDTH 22 0
BBX 16 24 3 0
BITMAP
FFFE
FFFE
FFFE
7000
3800
1C00
1E00
0E00
0700
0380
01C0
00E0
01C0
03C0
0380
0700
0E00
1C00
3C00
3800
7000
FFFF
FFFF
FFFF
ENDCHAR
STARTCHAR Tau
ENCODING 932
SWIDTH 600 0
DWIDTH 22 0
BBX 18 24 2 0
BITMAP
FFFFC0
FFFFC0
FFFFC0
01C000
01C000
01C000
01C000
01C000
01C000
01C000
01C000
01C000
01C000
01C000
01C000
01C000
01C000
01C000
01C000
01C000
01C000
01C000
01C000
01C000
ENDCHAR
STARTCHAR Upsilon
ENCODING 933
SWIDTH 600 0
DWIDTH 22 0
BBX 19 24 1 0
BITMAP
F000E0
7001C0
3801C0
380380
1C0380
1C0700
0E0700
0E0600
070E00
070C00
039C00
039800
01F800
01F000
00F000
00E000
00E000
00E000
00E000
00E000
00E000
00E000
00E000
00E000
ENDCHAR
STARTCHAR Phi
ENCODING 934
SWIDTH 600 0
DWIDTH 22 0
BBX 20 24 1 0
BITMAP
00E000
00E000
00E000
03FC00
0FFF00
3FFF80
7CE7C0
78E1E0
F0E0E0
E0E0E0
E0E070
E0E070
E0E070
E0E070
E0E0E0
70E0E0
78E1E0
3CE7C0
3FFF80
0FFF00
03FC00
00E000
00E000
00E000
ENDCHAR
STARTCHAR Chi
ENCODING 935
SWIDTH 600 0
DWIDTH 22 0
BBX 18 24 2 0
BITMAP
F00380
780700
380700
3C0E00
1C0E00
0E1C00
0E1C00
073800
073000
03F000
03E000
01E000
03E000
03F000
077000
073800
0E3800
0E1C00
1C1C00
3C0E00
380F00
700700
700380
E003C0
ENDCHAR
STARTCHAR Psi
ENCODING 936
SWIDTH 600 0
DWIDTH 22 0
BBX 18 24 2 0
BITMAP
C1C1C0
C1C1C0
C1C1C0
C1C1C0
C1C1C0
C1C1C0
C1C1C0
C1C1C0
E1C1C0
E1C1C0
E1C3C0
F1C380
79CF80
3FFF00
1FFE00
07F800
01C000
01C000
01C000
01C000
01C000
01C000
01C000
01C000
ENDCHAR
STARTCHAR uni03A9
ENCODING 937
SWIDTH 600 0
DWIDTH 22 0
BBX 19 24 1 0
BITMAP
01F800
07FE00
0FFF00
1F0F80
3C0780
3803C0
7801C0
7001C0
7001E0
7000E0
7000E0
7000E0
7000E0
7000E0
7001C0
7001C0
3801C0
380380
1C0380
1C0700
0E0E00
FF0FE0
FF0FE0
FF0FE0
ENDCHAR
STARTCHAR Iotadieresis
ENCODING 938
SWIDTH 600 0
DWIDTH 22 0
BBX 15 30 3 0
BITMAP
1C30
1C78
1C78
1C30
0000
0000
FFFE
FFFE
FFFE
0380
0380
0380
0380
0380
0380
0380
0380
0380
0380
0380
0380
0380
0380
0380
0380
0380
0380
FFFE
FFFE
FFFE
ENDCHAR
STARTCHAR Upsilondieresis
ENCODING 939
SWIDTH 600 0
DWIDTH 22 0
BBX 19 30 1 0
BITMAP
070C00
071E00
071E00
070C00
000000
000000
F000E0
7001C0
3801C0
380380
1C0380
1C0700
0E0700
0E0600
070E00
070C00
039C00
039800
01F800
01F000
00F000
00E000
00E000
00E000
00E000
00E000
00E000
00E000
00E000
00E000
ENDCHAR
STARTCHAR alphatonos
ENCODING 940
SWIDTH 600 0
DWIDTH 22 0
BBX 19 29 2 0
BITMAP
003800
003800
003800
007000
007000
007000
006000
006000
00E000
000000
000000
07C3C0
1FF380
3FFB80
3C3B80
780F80
700F00
F00700
E00700
E00700
E00700
E00700
E00600
F00E00
701E00
7C3F00
3FF7C0
1FE7E0
0FC3E0
ENDCHAR
STARTCHAR epsilontonos
ENCODING 941
SWIDTH 600 0
DWIDTH 22 0
BBX 16 29 3 0
BITMAP
0070
0078
0070
0070
0060
00E0
00E0
00C0
00C0
0000
0000
07F0
1FFC
3FFE
780F
7002
7000
3800
1FE0
0FE0
3FE0
7800
E000
E000
F002
780F
7FFF
3FFC
07F0
ENDCHAR
STARTCHAR etatonos
ENCODING 942
SWIDTH 600 0
DWIDTH 22 0
BBX 16 36 3 -7
BITMAP
0070
0070
0070
00E0
00E0
00E0
00C0
00C0
00C0
0100
0000
E1F8
E3FC
67FE
6E1E
7C0E
7806
7006
7007
7007
7007
7007
7007
7007
7007
7007
7007
7007
7007
0007
0007
0007
0007
0007
0007
0007
ENDCHAR
STARTCHAR iotatonos
ENCODING 943
SWIDTH 600 0
DWIDTH 22 0
BBX 16 29 3 0
BITMAP
00C0
01E0
01C0
01C0
0180
0180
0380
0300
0300
0000
0000
FF80
FF80
FF80
0380
0380
0380
0380
0380
0380
0380
0380
0380
0380
0380
03C2
01FF
01FF
007C
ENDCHAR
STARTCHAR upsilondieresistonos
ENCODING 944
SWIDTH 600 0
DWIDTH 22 0
BBX 16 29 3 0
BITMAP
00C0
00C0
01C0
0180
3998
39B8
3B18
0300
0000
0000
0000
E00E
E00E
E00E
E00E
E007
E007
E007
E007
E007
E007
E007
E00F
E00E
F01E
783C
7FFC
3FF8
0FE0
ENDCHAR
STARTCHAR alpha
ENCODING 945
SWIDTH 600 0
DWIDTH 22 0
BBX 19 18 2 0
BITMAP
07C3C0
1FF380
3FFB80
3C3B80
780F80
700F00
F00700
E00700
E00700
E00700
E00700
E00600
F00E00
701E00
7C3F00
3FF7C0
1FE7E0
0FC3E0
ENDCHAR
STARTCHAR beta
ENCODING 946
SWIDTH 600 0
DWIDTH 22 0
BBX 17 33 3 -7
BITMAP
07E000
1FF000
3FF800
7C3C00
701C00
701C00
E00C00
E01C00
E01C00
E03800
E0F000
E3E000
E3F800
E1FE00
E01E00
E00700
E00700
E00380
E00380
E00780
E00700
F00700
FC1F00
FFFE00
EFFC00
E3F000
E00000
E00000
E00000
E00000
E00000
E00000
E00000
ENDCHAR
STARTCHAR gamma
ENCODING 947
SWIDTH 600 0
DWIDTH 22 0
BBX 17 26 2 -7
BITMAP
200000
F00380
700380
780380
380380
1C0700
1C0700
0E0700
0E0E00
0E0E00
070C00
071C00
031800
03B800
03B000
03F000
01E000
01C000
01C000
01C000
01C000
01C000
01C000
01C000
01C000
01C000
ENDCHAR
STARTCHAR delta
ENCODING 948
SWIDTH 600 0
DWIDTH 22 0
BBX 17 26 2 0
BITMAP
07F000
1FFF00
1FFF80
3C0F00
380100
180000
1C0000
0E0000
078000
01C000
03F000
0FFC00
1E1E00
380F00
700700
700380
E00380
E00380
E00380
E00380
700380
780780
3C0F00
3FFE00
0FFC00
03F000
ENDCHAR
STARTCHAR epsilon
ENCODING 949
SWIDTH 600 0
DWIDTH 22 0
BBX 16 18 3 0
BITMAP
07F0
1FFC
3FFE
780F
7002
7000
3800
1FE0
0FE0
3FE0
7800
E000
E000
F002
780F
7FFF
3FFC
07F0
ENDCHAR
STARTCHAR zeta
ENCODING 950
SWIDTH 600 0
DWIDTH 22 0
BBX 15 33 4 -7
BITMAP
7FFE
7FFE
7FFE
001C
0078
00E0
01C0
0380
0700
0E00
1C00
3800
3800
7000
7000
E000
E000
E000
E000
F000
F000
7800
7E00
3FE0
1FF8
03FC
007E
000E
000E
000C
001C
001C
0028
ENDCHAR
STARTCHAR eta
ENCODING 951
SWIDTH 600 0
DWIDTH 22 0
BBX 16 25 3 -7
BITMAP
E1F8
E3FC
67FE
6E1E
7C0E
7806
7006
7007
7007
7007
7007
7007
7007
7007
7007
7007
7007
7007
0007
0007
0007
0007
0007
0007
0007
ENDCHAR
STARTCHAR theta
ENCODING 952
SWIDTH 600 0
DWIDTH 22 0
BBX 16 26 3 0
BITMAP
07E0
1FF0
3FF8
3C3C
701E
700E
E00E
E006
E007
E007
E007
FFFF
FFFF
FFFF
E007
E007
E007
E007
E00F
E00E
700E
701E
3C3C
3FF8
1FF0
07E0
ENDCHAR
STARTCHAR iota
ENCODING 953
SWIDTH 600 0
DWIDTH 22 0
BBX 16 18 3 0
BITMAP
FF80
FF80
FF80
0380
0380
0380
0380
0380
0380
0380
0380
0380
0380
0380
03C2
01FF
01FF
007C
ENDCHAR
STARTCHAR kappa
ENCODING 954
SWIDTH 600 0
DWIDTH 22 0
BBX 17 18 4 0
BITMAP
E00200
E01E00
E03E00
E0FD00
E1F000
E3C000
E78000
E78000
EFC000
FDC000
F8E000
F0F000
F07000
E03800
E03C00
E01E00
E00E00
E00780
ENDCHAR
STARTCHAR lambda
ENCODING 955
SWIDTH 600 0
DWIDTH 22 0
BBX 18 26 2 0
BITMAP
7C0000
FF0000
7F0000
878000
03C000
01C000
01C000
00E000
00E000
01F000
01F000
01F000
03B800
03B800
071C00
071C00
0E1C00
0E0E00
1C0E00
1C0E00
3C0700
380700
380780
700380
700380
F001C0
ENDCHAR
STARTCHAR uni03BC
ENCODING 956
SWIDTH 600 0
DWIDTH 22 0
BBX 17 25 3 -7
BITMAP
E00E00
E00E00
E00E00
E00E00
E00E00
E00E00
E00E00
E00E00
E00E00
E00E00
E00E00
E00E00
E01E00
F03E00
F87E00
FFEF80
FFC780
EF8780
E00000
E00000
E00000
E00000
E00000
E00000
E00000
ENDCHAR
STARTCHAR nu
ENCODING 957
SWIDTH 600 0
DWIDTH 22 0
BBX 17 19 2 0
BITMAP
200000
E00380
700380
780380
380380
3C0300
1C0700
1E0700
0E0600
0E0E00
070E00
071C00
031C00
03B800
03B800
03F000
01F000
01E000
01C000
ENDCHAR
STARTCHAR xi
ENCODING 958
SWIDTH 600 0
DWIDTH 22 0
BBX 16 33 3 -7
BITMAP
FFFF
FFFF
FFFF
0700
0E00
1C00
1C00
1C00
1E00
0F00
07FC
03FC
0FFC
1F00
3C00
3800
7000
7000
7000
7000
7800
3C00
3F00
1FF0
0FFE
01FF
001F
0007
0007
0007
0006
000E
0004
ENDCHAR
STARTCHAR omicron
ENCODING 959
SWIDTH 600 0
DWIDTH 22 0
BBX 17 18 2 0
BITMAP
03F000
0FFC00
1FFE00
3C1F00
780700
700780
700380
F00380
E00380
E00380
E00380
700380
700780
780700
3C1F00
1FFE00
0FFC00
03F000
ENDCHAR
STARTCHAR pi
ENCODING 960
SWIDTH 600 0
DWIDTH 22 0
BBX 20 18 1 0
BITMAP
FFFFF0
FFFFF0
FFFFF0
0C0700
0C0700
0C0700
0C0700
0C0700
1C0700
1C0700
1C0700
1C0700
1C0700
1C0700
1C0700
1C07E0
1C03E0
1C01E0
ENDCHAR
STARTCHAR rho
ENCODING 961
SWIDTH 600 0
DWIDTH 22 0
BBX 16 25 3 -7
BITMAP
03F0
0FFC
1FFE
3C1E
780F
7007
6007
E007
E007
E007
E007
E007
E00F
F00E
FC3E
FFFC
EFF8
E3E0
E000
E000
E000
E000
E000
E000
E000
ENDCHAR
STARTCHAR uni03C2
ENCODING 962
SWIDTH 600 0
DWIDTH 22 0
BBX 16 25 3 -7
BITMAP
03F0
0FFC
1FFE
3E0F
7802
7000
7000
E000
E000
E000
E000
F000
7000
7C00
3F00
1FF0
0FFC
01FE
003E
000E
000E
000E
000C
001C
0038
ENDCHAR
STARTCHAR sigma
ENCODING 963
SWIDTH 600 0
DWIDTH 22 0
BBX 19 18 2 0
BITMAP
03FFE0
0FFFE0
3FFFE0
3C1C00
780E00
700700
F00700
E00700
E00300
E00300
E00780
F00700
700700
780F00
3C1E00
3FFC00
0FF800
03E000
ENDCHAR
STARTCHAR tau
ENCODING 964
SWIDTH 600 0
DWIDTH 22 0
BBX 17 18 2 0
BITMAP
FFFF80
FFFF80
FFFF80
01C000
01C000
01C000
01C000
01C000
01C000
01C000
01C000
01C000
01C000
01C000
01E000
00FE00
00FE00
007C00
ENDCHAR
STARTCHAR upsilon
ENCODING 965
SWIDTH 600 0
DWIDTH 22 0
BBX 16 18 3 0
BITMAP
E00E
E00E
E00E
E00E
E007
E007
E007
E007
E007
E007
E007
E00F
E00E
F01E
783C
7FFC
3FF8
0FE0
ENDCHAR
STARTCHAR phi
ENCODING 966
SWIDTH 600 0
DWIDTH 22 0
BBX 18 30 2 -7
BITMAP
01C000
01C000
01C000
01C000
01C000
07F800
1FFE00
3FFF00
79CF00
71C780
E1C380
E1C1C0
E1C1C0
E1C1C0
E1C1C0
E1C1C0
E1C1C0
E1C380
71C780
7DCF00
3FFF00
1FFE00
07F800
01C000
01C000
01C000
01C000
01C000
01C000
01C000
ENDCHAR
STARTCHAR chi
ENCODING 967
SWIDTH 600 0
DWIDTH 22 0
BBX 18 25 2 -7
BITMAP
F00380
700700
380F00
3C0E00
1C1E00
1E1C00
0E3800
073800
07F000
03F000
03E000
01E000
01E000
01E000
03F000
07F000
073800
0F3C00
0E1C00
1C0E00
1C0E00
380700
780780
700380
F001C0
ENDCHAR
STARTCHAR psi
ENCODING 968
SWIDTH 600 0
DWIDTH 22 0
BBX 18 30 2 -7
BITMAP
01C000
01C000
01C000
01C000
01C000
E1C380
E1C380
E1C380
E1C380
E1C1C0
E1C1C0
E1C1C0
E1C1C0
E1C1C0
E1C1C0
E1C1C0
E1C1C0
E1C380
71C380
79CF00
3FFF00
1FFE00
0FF800
01C000
01C000
01C000
01C000
01C000
01C000
01C000
ENDCHAR
STARTCHAR omega
ENCODING 969
SWIDTH 600 0
DWIDTH 22 0
BBX 19 18 1 0
BITMAP
180180
1C0380
3801C0
3801C0
7000E0
7000E0
E0E0E0
E0E0E0
E0E0E0
E0E0E0
E0E0E0
E0E0E0
E0E0E0
70E0E0
79F1E0
3FFFC0
3F9F80
0F0F00
ENDCHAR
STARTCHAR iotadieresis
ENCODING 970
SWIDTH 600 0
DWIDTH 22 0
BBX 16 25 3 0
BITMAP
3870
3C78
3C78
3870
0000
0000
0000
FF80
FF80
FF80
0380
0380
0380
0380
0380
0380
0380
0380
0380
0380
0380
03C2
01FF
01FF
007C
ENDCHAR
STARTCHAR upsilondieresis
ENCODING 971
SWIDTH 600 0
DWIDTH 22 0
BBX 16 25 3 0
BITMAP
1C38
3C78
3C78
1C38
0000
0000
0000
E00E
E00E
E00E
E00E
E007
E007
E007
E007
E007
E007
E007
E00F
E00E
F01E
783C
7FFC
3FF8
0FE0
ENDCHAR
STARTCHAR omicrontonos
ENCODING 972
SWIDTH 600 0
DWIDTH 22 0
BBX 17 29 2 0
BITMAP
007000
007000
007000
006000
00E000
00E000
00C000
00C000
00C000
000000
000000
03F000
0FFC00
1FFE00
3C1F00
780700
700780
700380
F00380
E00380
E00380
E00380
700380
700780
780700
3C1F00
1FFE00
0FFC00
03F000
ENDCHAR
STARTCHAR upsilontonos
ENCODING 973
SWIDTH 600 0
DWIDTH 22 0
BBX 16 29 3 0
BITMAP
00E0
00E0
00E0
01C0
01C0
01C0
0180
0180
0380
0000
0000
E00E
E00E
E00E
E00E
E007
E007
E007
E007
E007
E007
E007
E00F
E00E
F01E
783C
7FFC
3FF8
0FE0
ENDCHAR
STARTCHAR omegatonos
ENCODING 974
SWIDTH 600 0
DWIDTH 22 0
BBX 19 29 1 0
BITMAP
003800
003800
003800
003000
007000
007000
006000
006000
006000
000000
000000
180180
1C0380
3801C0
3801C0
7000E0
7000E0
E0E0E0
E0E0E0
E0E0E0
E0E0E0
E0E0E0
E0E0E0
E0E0E0
70E0E0
79F1E0
3FFFC0
3F9F80
0F0F00
ENDCHAR
STARTCHAR uni03D0
ENCODING 976
SWIDTH 600 0
DWIDTH 22 0
BBX 17 26 3 0
BITMAP
07E000
1FF000
3FF800
7C3C00
701C00
701C00
F00C00
E01C00
E01C00
E01C00
E03800
E0F000
EFE000
FFFC00
F81E00
E00700
E00700
E00300
E00380
E00380
700700
780F00
3C1F00
3FFE00
0FFC00
03F000
ENDCHAR
STARTCHAR uni03D1
ENCODING 977
SWIDTH 600 0
DWIDTH 22 0
BBX 16 26 3 0
BITMAP
0FC0
3FF0
7FF8
783C
E01C
E00E
E00E
E006
E007
F007
7C07
3FFF
1FFF
07FF
0007
0007
E007
6007
6007
600E
700E
701E
783C
3FF8
1FF0
0FE0
ENDCHAR
STARTCHAR uni03D5
ENCODING 981
SWIDTH 600 0
DWIDTH 22 0
BBX 18 30 2 -7
BITMAP
01C000
01C000
01C000
01C000
01C000
07F800
1FFE00
3FFF00
79CF00
71C780
E1C380
E1C1C0
E1C1C0
E1C1C0
E1C1C0
E1C1C0
E1C1C0
E1C380
71C780
7DCF00
3FFF00
1FFE00
07F800
01C000
01C000
01C000
01C000
01C000
01C000
01C000
ENDCHAR
STARTCHAR uni03D7
ENCODING 983
SWIDTH 600 0
DWIDTH 22 0
BBX 17 24 4 -6
BITMAP
E00200
E01E00
E03E00
E0FD00
E1F000
E3C000
E78000
E78000
EFC000
FDC000
F8E000
F0F000
F07000
E03800
E03C00
E01E00
E00F00
E00780
000700
000F00
001E00
001C00
003800
00F000
ENDCHAR
STARTCHAR uni03D9
ENCODING 985
SWIDTH 600 0
DWIDTH 22 0
BBX 17 25 2 -7
BITMAP
03F000
0FFC00
1FFE00
3C1F00
780700
700780
F00380
E00380
E00380
E00380
E00380
F00380
700780
780700
3C1F00
3FFE00
0FFC00
07F000
01C000
01C000
01C000
01C000
01C000
01C000
01C000
ENDCHAR
STARTCHAR uni03DB
ENCODING 987
SWIDTH 600 0
DWIDTH 22 0
BBX 15 25 3 -7
BITMAP
03FE
0FFE
1FFE
3E00
7800
7000
7000
E000
E000
E000
E000
F000
7000
7C00
3F00
1FF0
0FFC
01FE
003E
000E
000E
000E
000C
001C
0038
ENDCHAR
STARTCHAR uni03DD
ENCODING 989
SWIDTH 600 0
DWIDTH 22 0
BBX 14 25 5 -7
BITMAP
FFFC
FFFC
FFFC
E000
E000
E000
E000
E000
E000
E000
FFF8
FFF8
E000
E000
E000
E000
E000
E000
E000
E000
E000
E000
E000
E000
E000
ENDCHAR
STARTCHAR uni03E1
ENCODING 993
SWIDTH 600 0
DWIDTH 22 0
BBX 17 31 2 -6
BITMAP
180000
1C0000
3E0000
0F0000
078000
03C000
01E000
00F000
007800
003800
003C00
00FC00
03FE00
0FCE00
3F0E00
FC0700
700700
000F00
003F00
00FF80
07F380
1F8380
0E0380
080380
000380
000380
000380
000380
000380
000380
000700
ENDCHAR
STARTCHAR uni0400
ENCODING 1024
SWIDTH 600 0
DWIDTH 22 0
BBX 15 31 4 0
BITMAP
0400
0E00
1F00
0380
01C0
0080
0000
FFFE
FFFE
FFFE
E000
E000
E000
E000
E000
E000
E000
FFF8
FFF8
FFF8
E000
E000
E000
E000
E000
E000
E000
E000
FFFE
FFFE
FFFE
ENDCHAR
STARTCHAR uni0401
ENCODING 1025
SWIDTH 600 0
DWIDTH 22 0
BBX 15 30 4 0
BITMAP
1C30
1C78
1C78
1C30
0000
0000
FFFE
FFFE
FFFE
E000
E000
E000
E000
E000
E000
E000
FFF8
FFF8
FFF8
E000
E000
E000
E000
E000
E000
E000
E000
FFFE
FFFE
FFFE
ENDCHAR
STARTCHAR uni0402
ENCODING 1026
SWIDTH 600 0
DWIDTH 22 0
BBX 21 24 0 0
BITMAP
FFFF80
FFFF80
FFFF80
038000
038000
038000
038000
038000
038000
03FF00
03FFC0
03FFE0
0381F0
038070
038078
038038
038038
038038
038038
038070
0380F0
0387F0
0387E0
038F80
ENDCHAR
STARTCHAR uni0403
ENCODING 1027
SWIDTH 600 0
DWIDTH 22 0
BBX 14 31 5 0
BITMAP
0080
01C0
0380
0700
1E00
0800
0000
FFFC
FFFC
FFFC
E000
E000
E000
E000
E000
E000
E000
E000
E000
E000
E000
E000
E000
E000
E000
E000
E000
E000
E000
E000
E000
ENDCHAR
STARTCHAR uni0404
ENCODING 1028
SWIDTH 600 0
DWIDTH 22 0
BBX 18 24 2 0
BITMAP
01FC00
07FE00
0FFF80
1F0780
3C0100
380000
700000
700000
700000
700000
FFF800
FFF800
FFF800
E00000
700000
700000
700000
700000
380100
3C0180
1F07C0
0FFF80
07FE00
01FC00
ENDCHAR
STARTCHAR uni0405
ENCODING 1029
SWIDTH 600 0
DWIDTH 22 0
BBX 17 24 2 0
BITMAP
03F000
0FFC00
1FFF00
3E0F80
380300
380000
380000
380000
3C0000
1F0000
0FC000
07F800
00FE00
003F00
000F80
000380
000380
000380
200380
700780
FC0F00
3FFF00
1FFE00
03F000
ENDCHAR
STARTCHAR uni0406
ENCODING 1030
SWIDTH 600 0
DWIDTH 22 0
BBX 15 24 3 0
BITMAP
FFFE
FFFE
FFFE
0380
0380
0380
0380
0380
0380
0380
0380
0380
0380
0380
0380
0380
0380
0380
0380
0380
0380
FFFE
FFFE
FFFE
ENDCHAR
STARTCHAR uni0407
ENCODING 1031
SWIDTH 600 0
DWIDTH 22 0
BBX 15 30 3 0
BITMAP
1C30
1C78
1C78
1C30
0000
0000
FFFE
FFFE
FFFE
0380
0380
0380
0380
0380
0380
0380
0380
0380
0380
0380
0380
0380
0380
0380
0380
0380
0380
FFFE
FFFE
FFFE
ENDCHAR
STARTCHAR uni0408
ENCODING 1032
SWIDTH 600 0
DWIDTH 22 0
BBX 15 24 3 0
BITMAP
3FFE
3FFE
3FFE
000E
000E
000E
000E
000E
000E
000E
000E
000E
000E
000E
000E
000E
000E
000E
401E
E01C
F87C
7FF8
3FF0
0FC0
ENDCHAR
STARTCHAR uni0409
ENCODING 1033
SWIDTH 600 0
DWIDTH 22 0
BBX 21 24 0 0
BITMAP
0FF800
0FF800
0FF800
0E3800
0E3800
0E3800
0E3800
0E3800
0C3800
0C3F80
0C3FC0
0C3FE0
1C38F0
1C3870
1C3838
1C3838
1C3838
1C3838
183830
383870
3838F0
F83FE0
F03FC0
E03F80
ENDCHAR
STARTCHAR uni040A
ENCODING 1034
SWIDTH 600 0
DWIDTH 22 0
BBX 20 24 1 0
BITMAP
E06000
E06000
E06000
E06000
E06000
E06000
E06000
E06000
E06000
FFFF00
FFFF80
FFFFC0
E061E0
E060E0
E06070
E06070
E06070
E06070
E06060
E060E0
E061E0
E07FC0
E07F80
E07F00
ENDCHAR
STARTCHAR uni040B
ENCODING 1035
SWIDTH 600 0
DWIDTH 22 0
BBX 20 24 0 0
BITMAP
FFFF80
FFFF80
FFFF80
038000
038000
038000
038000
038000
038000
03FF00
03FFC0
03FFE0
0381F0
038070
038070
038070
038070
038070
038070
038070
038070
038070
038070
038070
ENDCHAR
STARTCHAR uni040C
ENCODING 1036
SWIDTH 600 0
DWIDTH 22 0
BBX 17 31 4 0
BITMAP
002000
00E000
01F000
03C000
070000
020000
000000
E00700
E01F00
E01F00
E03C00
E03800
E07000
E0F000
E0E000
E1C000
E1C000
FF8000
FF8000
FFC000
E1C000
E1E000
E0F000
E07000
E07800
E03800
E01C00
E01E00
E00E00
E00700
E00780
ENDCHAR
STARTCHAR uni040D
ENCODING 1037
SWIDTH 600 0
DWIDTH 22 0
BBX 16 31 3 0
BITMAP
0400
0E00
0F00
0380
01C0
0080
0000
E00F
E00F
E01F
E01F
E03F
E03F
E077
E077
E0E7
E0E7
E1C7
E3C7
E387
E787
E707
EF07
EE07
CE07
DC07
D807
F807
F007
F007
E007
ENDCHAR
STARTCHAR uni040E
ENCODING 1038
SWIDTH 600 0
DWIDTH 22 0
BBX 18 30 2 0
BITMAP
1C0C00
0C1C00
0E1C00
07F800
03F000
000000
E001C0
F00380
700380
700380
380700
380700
1C0E00
1C0E00
1C0E00
0E1C00
0E1C00
071800
073800
033800
03F000
01F000
01E000
00E000
00E000
01C000
03C000
1F8000
3F0000
3E0000
ENDCHAR
STARTCHAR uni040F
ENCODING 1039
SWIDTH 600 0
DWIDTH 22 0
BBX 16 31 3 -7
BITMAP
E007
E007
E007
E007
E007
E007
E007
E007
E007
E007
E007
E007
E007
E007
E007
E007
E007
E007
E007
E007
E007
FFFF
FFFF
FFFF
0180
0180
0180
0180
0180
0180
0180
ENDCHAR
STARTCHAR uni0410
ENCODING 1040
SWIDTH 600 0
DWIDTH 22 0
BBX 19 24 1 0
BITMAP
00F000
00F000
01F000
01B800
01B800
039800
039C00
031C00
070C00
070E00
060E00
0E0600
0E0700
0C0700
1FFF00
1FFF80
1FFF80
380380
3801C0
3801C0
7001C0
7001E0
7000E0
E000E0
ENDCHAR
STARTCHAR uni0411
ENCODING 1041
SWIDTH 600 0
DWIDTH 22 0
BBX 16 24 4 0
BITMAP
FFFC
FFFC
FFFC
E000
E000
E000
E000
E000
E000
E000
FFE0
FFF8
FFFC
E03E
E00E
E007
E007
E007
E00F
E00E
E03E
FFFC
FFF8
FFE0
ENDCHAR
STARTCHAR uni0412
ENCODING 1042
SWIDTH 600 0
DWIDTH 22 0
BBX 16 24 4 0
BITMAP
FFC0
FFF0
FFF8
E07C
E01C
E01C
E01C
E01C
E01C
E078
FFF0
FFE0
FFF8
E03E
E00E
E007
E007
E007
E00F
E00E
E03E
FFFC
FFF8
FFE0
ENDCHAR
STARTCHAR uni0413
ENCODING 1043
SWIDTH 600 0
DWIDTH 22 0
BBX 14 24 5 0
BITMAP
FFFC
FFFC
FFFC
E000
E000
E000
E000
E000
E000
E000
E000
E000
E000
E000
E000
E000
E000
E000
E000
E000
E000
E000
E000
E000
ENDCHAR
STARTCHAR uni0414
ENCODING 1044
SWIDTH 600 0
DWIDTH 22 0
BBX 20 31 1 -7
BITMAP
03FF80
03FF80
03FF80
070380
070380
070380
070380
070380
060380
0E0380
0E0380
0E0380
0E0380
0E0380
1C0380
1C0380
1C0380
1C0380
380380
380380
700380
FFFFF0
FFFFF0
FFFFF0
E00070
E00070
E00070
E00070
E00070
E00070
E00070
ENDCHAR
STARTCHAR uni0415
ENCODING 1045
SWIDTH 600 0
DWIDTH 22 0
BBX 15 24 4 0
BITMAP
FFFE
FFFE
FFFE
E000
E000
E000
E000
E000
E000
E000
FFF8
FFF8
FFF8
E000
E000
E000
E000
E000
E000
E000
E000
FFFE
FFFE
FFFE
ENDCHAR
STARTCHAR uni0416
ENCODING 1046
SWIDTH 600 0
DWIDTH 22 0
BBX 22 24 0 0
BITMAP
F0703C
F87078
F870F8
3C70E0
1C70E0
1C71C0
0E71C0
0E71C0
0E7380
067380
07FF80
07FF80
07FF80
0E7380
0E71C0
1C71C0
1C70E0
1C70E0
3870E0
387070
787070
707078
707038
E0703C
ENDCHAR
STARTCHAR uni0417
ENCODING 1047
SWIDTH 600 0
DWIDTH 22 0
BBX 17 24 2 0
BITMAP
03F000
1FFC00
3FFE00
7C1F00
300700
000700
000700
000700
000700
001E00
07FC00
07F800
07FE00
000F00
000380
000380
000380
000380
400380
700780
FC0F00
3FFF00
1FFC00
07F000
ENDCHAR
STARTCHAR uni0418
ENCODING 1048
SWIDTH 600 0
DWIDTH 22 0
BBX 16 24 3 0
BITMAP
E00F
E00F
E01F
E01F
E03F
E03F
E077
E077
E0E7
E0E7
E1C7
E3C7
E387
E787
E707
EF07
EE07
CE07
DC07
D807
F807
F007
F007
E007
ENDCHAR
STARTCHAR uni0419
ENCODING 1049
SWIDTH 600 0
DWIDTH 22 0
BBX 16 30 3 0
BITMAP
3818
1838
1C38
0FF0
07E0
0000
E00F
E00F
E01F
E01F
E03F
E03F
E077
E077
E0E7
E0E7
E1C7
E3C7
E387
E787
E707
EF07
EE07
CE07
DC07
D807
F807
F007
F007
E007
ENDCHAR
STARTCHAR uni041A
ENCODING 1050
SWIDTH 600 0
DWIDTH 22 0
BBX 17 24 4 0
BITMAP
E00700
E01F00
E01F00
E03C00
E03800
E07000
E0F000
E0E000
E1C000
E1C000
FF8000
FF8000
FFC000
E1C000
E1E000
E0F000
E07000
E07800
E03800
E01C00
E01E00
E00E00
E00700
E00780
ENDCHAR
STARTCHAR uni041B
ENCODING 1051
SWIDTH 600 0
DWIDTH 22 0
BBX 19 24 0 0
BITMAP
01FFE0
01FFE0
01FFE0
01C0E0
01C0E0
0380E0
0380E0
0380E0
0380E0
0380E0
0380E0
0700E0
0700E0
0700E0
0700E0
0700E0
0E00E0
0E00E0
0E00E0
1E00E0
1C00E0
7C00E0
F800E0
F000E0
ENDCHAR
STARTCHAR uni041C
ENCODING 1052
SWIDTH 600 0
DWIDTH 22 0
BBX 16 24 3 0
BITMAP
E00F
F00F
F00F
F01F
F81B
D81F
D83F
DC37
DC37
CC77
CE67
CE67
C6E7
C7C7
C3C7
C3C7
C387
C187
C007
C007
C007
C007
C007
C007
ENDCHAR
STARTCHAR uni041D
ENCODING 1053
SWIDTH 600 0
DWIDTH 22 0
BBX 16 24 3 0
BITMAP
E007
E007
E007
E007
E007
E007
E007
E007
E007
E007
FFFF
FFFF
FFFF
E007
E007
E007
E007
E007
E007
E007
E007
E007
E007
E007
ENDCHAR
STARTCHAR uni041E
ENCODING 1054
SWIDTH 600 0
DWIDTH 22 0
BBX 18 24 2 0
BITMAP
03F000
0FFC00
1FFE00
3E1F00
780F00
700780
700380
E00380
E003C0
E003C0
E001C0
E001C0
E001C0
E001C0
E001C0
E003C0
E00380
700380
700780
780F00
3E1F00
1FFE00
0FFC00
03F000
ENDCHAR
STARTCHAR uni041F
ENCODING 1055
SWIDTH 600 0
DWIDTH 22 0
BBX 16 24 3 0
BITMAP
FFFF
FFFF
FFFF
E007
E007
E007
E007
E007
E007
E007
E007
E007
E007
E007
E007
E007
E007
E007
E007
E007
E007
E007
E007
E007
ENDCHAR
STARTCHAR uni0420
ENCODING 1056
SWIDTH 600 0
DWIDTH 22 0
BBX 16 24 4 0
BITMAP
FFE0
FFF8
FFFC
E03E
E00E
E00E
E007
E00F
E00E
E00E
E03E
FFFC
FFF8
FFE0
E000
E000
E000
E000
E000
E000
E000
E000
E000
E000
ENDCHAR
STARTCHAR uni0421
ENCODING 1057
SWIDTH 600 0
DWIDTH 22 0
BBX 18 24 2 0
BITMAP
00FC00
07FE00
0FFF80
1F0780
3C0100
380000
780000
700000
700000
F00000
F00000
E00000
E00000
F00000
700000
700000
700000
780000
380100
3C0180
1F07C0
0FFF80
07FE00
01FC00
ENDCHAR
STARTCHAR uni0422
ENCODING 1058
SWIDTH 600 0
DWIDTH 22 0
BBX 18 24 2 0
BITMAP
FFFFC0
FFFFC0
FFFFC0
01C000
01C000
01C000
01C000
01C000
01C000
01C000
01C000
01C000
01C000
01C000
01C000
01C000
01C000
01C000
01C000
01C000
01C000
01C000
01C000
01C000
ENDCHAR
STARTCHAR uni0423
ENCODING 1059
SWIDTH 600 0
DWIDTH 22 0
BBX 18 24 2 0
BITMAP
E001C0
F00380
700380
700380
380700
380700
1C0E00
1C0E00
1C0E00
0E1C00
0E1C00
071800
073800
033800
03F000
01F000
01E000
00E000
00E000
01C000
03C000
1F8000
3F0000
3E0000
ENDCHAR
STARTCHAR uni0424
ENCODING 1060
SWIDTH 600 0
DWIDTH 22 0
BBX 20 24 1 0
BITMAP
00E000
00E000
00E000
03FC00
1FFF00
3FFF80
7CE3C0
70E1E0
F0E0E0
E0E0E0
E0E070
E0E070
E0E070
E0E070
E0E0E0
F0E0E0
78E1E0
7CE7C0
3FFF80
1FFF00
03FC00
00E000
00E000
00E000
ENDCHAR
STARTCHAR uni0425
ENCODING 1061
SWIDTH 600 0
DWIDTH 22 0
BBX 18 24 2 0
BITMAP
F00380
780700
380700
3C0E00
1C0E00
0E1C00
0E1C00
073800
073000
03F000
03E000
01E000
03E000
03F000
077000
073800
0E3800
0E1C00
1C1C00
3C0E00
380F00
700700
700380
E003C0
ENDCHAR
STARTCHAR uni0426
ENCODING 1062
SWIDTH 600 0
DWIDTH 22 0
BBX 18 31 3 -7
BITMAP
E00700
E00700
E00700
E00700
E00700
E00700
E00700
E00700
E00700
E00700
E00700
E00700
E00700
E00700
E00700
E00700
E00700
E00700
E00700
E00700
E00700
FFFFC0
FFFFC0
FFFFC0
0001C0
0001C0
0001C0
0001C0
0001C0
0001C0
0001C0
ENDCHAR
STARTCHAR uni0427
ENCODING 1063
SWIDTH 600 0
DWIDTH 22 0
BBX 17 24 2 0
BITMAP
E00380
E00380
E00380
E00380
E00380
E00380
E00380
E00380
700380
700380
7C0380
3FFF80
1FFF80
07FF80
000380
000380
000380
000380
000380
000380
000380
000380
000380
000380
ENDCHAR
STARTCHAR uni0428
ENCODING 1064
SWIDTH 600 0
DWIDTH 22 0
BBX 19 24 1 0
BITMAP
E0E0E0
E0E0E0
E0E0E0
E0E0E0
E0E0E0
E0E0E0
E0E0E0
E0E0E0
E0E0E0
E0E0E0
E0E0E0
E0E0E0
E0E0E0
E0E0E0
E0E0E0
E0E0E0
E0E0E0
E0E0E0
E0E0E0
E0E0E0
E0E0E0
FFFFE0
FFFFE0
FFFFE0
ENDCHAR
STARTCHAR uni0429
ENCODING 1065
SWIDTH 600 0
DWIDTH 22 0
BBX 20 31 1 -7
BITMAP
E0E1C0
E0E1C0
E0E1C0
E0E1C0
E0E1C0
E0E1C0
E0E1C0
E0E1C0
E0E1C0
E0E1C0
E0E1C0
E0E1C0
E0E1C0
E0E1C0
E0E1C0
E0E1C0
E0E1C0
E0E1C0
E0E1C0
E0E1C0
E0E1C0
FFFFF0
FFFFF0
FFFFF0
000030
000030
000030
000030
000030
000030
000030
ENDCHAR
STARTCHAR uni042A
ENCODING 1066
SWIDTH 600 0
DWIDTH 22 0
BBX 20 24 1 0
BITMAP
FF8000
FF8000
FF8000
038000
038000
038000
038000
038000
038000
03FE00
03FF80
03FFC0
0383E0
0380E0
0380E0
038070
038070
038070
0380E0
0380E0
0383E0
03FFC0
03FF80
03FE00
ENDCHAR
STARTCHAR uni042B
ENCODING 1067
SWIDTH 600 0
DWIDTH 22 0
BBX 18 24 2 0
BITMAP
E001C0
E001C0
E001C0
E001C0
E001C0
E001C0
E001C0
E001C0
E001C0
FF01C0
FF81C0
FFC1C0
E1E1C0
E0F1C0
E071C0
E071C0
E071C0
E071C0
E071C0
E0E1C0
E1E1C0
FFC1C0
FF81C0
FE01C0
ENDCHAR
STARTCHAR uni042C
ENCODING 1068
SWIDTH 600 0
DWIDTH 22 0
BBX 16 24 4 0
BITMAP
E000
E000
E000
E000
E000
E000
E000
E000
E000
FFE0
FFF8
FFFC
E03E
E00E
E00E
E007
E007
E007
E00E
E00E
E03E
FFFC
FFF8
FFE0
ENDCHAR
STARTCHAR uni042D
ENCODING 1069
SWIDTH 600 0
DWIDTH 22 0
BBX 17 24 2 0
BITMAP
0FE000
3FF800
7FFC00
F83E00
600E00
000700
000700
000380
000380
000380
0FFF80
0FFF80
0FFF80
000380
000380
000380
000380
000700
800700
E00E00
F03E00
7FFC00
3FF800
0FE000
ENDCHAR
STARTCHAR uni042E
ENCODING 1070
SWIDTH 600 0
DWIDTH 22 0
BBX 18 24 2 0
BITMAP
E07C00
E0FE00
E1FF00
E1C780
E38380
E383C0
E381C0
E301C0
E701C0
E701C0
FF01C0
FF01C0
FF01C0
E701C0
E701C0
E701C0
E301C0
E381C0
E383C0
E38380
E1C780
E1FF00
E0FE00
E07C00
ENDCHAR
STARTCHAR uni042F
ENCODING 1071
SWIDTH 600 0
DWIDTH 22 0
BBX 17 24 1 0
BITMAP
03FF80
0FFF80
1FFF80
3E0380
380380
780380
700380
700380
780380
380380
3E0380
1FFF80
0FFF80
03FF80
038380
078380
070380
0F0380
0E0380
1C0380
3C0380
380380
700380
F00380
ENDCHAR
STARTCHAR uni0430
ENCODING 1072
SWIDTH 600 0
DWIDTH 22 0
BBX 16 18 3 0
BITMAP
07F0
1FF8
7FFC
783E
600E
000E
0007
00FF
0FFF
3FFF
7F07
F007
E007
E00F
F03F
7FF7
7FE7
1F87
ENDCHAR
STARTCHAR uni0431
ENCODING 1073
SWIDTH 600 0
DWIDTH 22 0
BBX 16 26 3 0
BITMAP
0006
00FE
07FE
0FFC
1F80
3C00
7000
7000
E000
E3F0
EFF8
FFFC
FC3E
F00E
E00F
E007
E007
E007
E007
E007
700F
700E
7C3E
3FFC
1FF8
07E0
ENDCHAR
STARTCHAR uni0432
ENCODING 1074
SWIDTH 600 0
DWIDTH 22 0
BBX 15 18 4 0
BITMAP
FFF0
FFF8
FFFC
E01E
E00E
E00E
E01C
FFF8
FFF0
FFFC
E01E
E00E
E00E
E00E
E01E
FFFE
FFFC
FFF0
ENDCHAR
STARTCHAR uni0433
ENCODING 1075
SWIDTH 600 0
DWIDTH 22 0
BBX 14 18 5 0
BITMAP
FFFC
FFFC
FFFC
E000
E000
E000
E000
E000
E000
E000
E000
E000
E000
E000
E000
E000
E000
E000
ENDCHAR
STARTCHAR uni0434
ENCODING 1076
SWIDTH 600 0
DWIDTH 22 0
BBX 18 25 2 -7
BITMAP
0FFF00
0FFF00
1FFF00
1C0700
1C0700
1C0700
1C0700
1C0700
180700
180700
380700
380700
380700
300700
700700
FFFFC0
FFFFC0
FFFFC0
C001C0
C001C0
C001C0
C001C0
C001C0
C001C0
C001C0
ENDCHAR
STARTCHAR uni0435
ENCODING 1077
SWIDTH 600 0
DWIDTH 22 0
BBX 17 18 2 0
BITMAP
03F000
0FFC00
1FFE00
3E0F00
380380
700380
700180
7FFF80
FFFF80
FFFF80
700000
700000
700000
380100
3E0700
1FFF80
0FFE00
01F800
ENDCHAR
STARTCHAR uni0436
ENCODING 1078
SWIDTH 600 0
DWIDTH 22 0
BBX 21 18 0 0
BITMAP
F07038
787078
7870F8
1C70E0
1C71C0
0E71C0
0E7380
07FF80
07FF80
0FFF80
0E71C0
1C71C0
1C70E0
3870E0
387070
787070
707038
F07038
ENDCHAR
STARTCHAR uni0437
ENCODING 1079
SWIDTH 600 0
DWIDTH 22 0
BBX 16 18 2 0
BITMAP
07F0
1FFC
7FFE
781E
2007
000E
001E
07FC
07F8
07FE
000F
0007
0007
4007
F80F
7FFE
3FFC
07F0
ENDCHAR
STARTCHAR uni0438
ENCODING 1080
SWIDTH 600 0
DWIDTH 22 0
BBX 14 18 4 0
BITMAP
C01C
C03C
C03C
C07C
C0FC
C0DC
C1DC
C39C
C31C
C71C
CE1C
CE1C
DC1C
D81C
F81C
F01C
E01C
E01C
ENDCHAR
STARTCHAR uni0439
ENCODING 1081
SWIDTH 600 0
DWIDTH 22 0
BBX 14 26 4 0
BITMAP
3038
3038
3830
3870
1FE0
07C0
0000
0000
C01C
C03C
C03C
C07C
C0FC
C0DC
C1DC
C39C
C31C
C71C
CE1C
CE1C
DC1C
D81C
F81C
F01C
E01C
E01C
ENDCHAR
STARTCHAR uni043A
ENCODING 1082
SWIDTH 600 0
DWIDTH 22 0
BBX 16 18 4 0
BITMAP
E00E
E01E
E03E
E038
E070
E0F0
E0E0
FFC0
FFC0
FFC0
E0E0
E070
E070
E038
E01C
E01C
E00E
E007
ENDCHAR
STARTCHAR uni043B
ENCODING 1083
SWIDTH 600 0
DWIDTH 22 0
BBX 17 18 1 0
BITMAP
07FF80
07FF80
07FF80
060380
060380
0E0380
0E0380
0E0380
0E0380
0E0380
0C0380
0C0380
0C0380
1C0380
1C0380
F80380
F80380
F00380
ENDCHAR
STARTCHAR uni043C
ENCODING 1084
SWIDTH 600 0
DWIDTH 22 0
BBX 17 18 2 0
BITMAP
F00780
F80780
F80780
F80F80
FC0D80
EC0D80
EC1D80
EE1980
E63980
E73B80
E73380
E37380
E3E380
E1E380
E1E380
E1C380
E00380
E00380
ENDCHAR
STARTCHAR uni043D
ENCODING 1085
SWIDTH 600 0
DWIDTH 22 0
BBX 15 18 3 0
BITMAP
E00E
E00E
E00E
E00E
E00E
E00E
E00E
FFFE
FFFE
FFFE
E00E
E00E
E00E
E00E
E00E
E00E
E00E
E00E
ENDCHAR
STARTCHAR uni043E
ENCODING 1086
SWIDTH 600 0
DWIDTH 22 0
BBX 17 18 2 0
BITMAP
03F000
0FFC00
1FFE00
3C1F00
780700
700780
F00380
E00380
E00380
E00380
E00380
F00380
700780
780700
3C1F00
1FFE00
0FFC00
03F000
ENDCHAR
STARTCHAR uni043F
ENCODING 1087
SWIDTH 600 0
DWIDTH 22 0
BBX 15 18 3 0
BITMAP
FFFE
FFFE
FFFE
E00E
E00E
E00E
E00E
E00E
E00E
E00E
E00E
E00E
E00E
E00E
E00E
E00E
E00E
E00E
ENDCHAR
STARTCHAR uni0440
ENCODING 1088
SWIDTH 600 0
DWIDTH 22 0
BBX 16 25 3 -7
BITMAP
E1F0
E7FC
FFFE
FC1E
F80F
E007
E007
E007
E007
E007
E007
E007
E00F
F00E
FC3E
FFFC
EFF8
E3E0
E000
E000
E000
E000
E000
E000
E000
ENDCHAR
STARTCHAR uni0441
ENCODING 1089
SWIDTH 600 0
DWIDTH 22 0
BBX 16 18 3 0
BITMAP
03F0
0FFC
1FFE
3E0F
7802
F000
E000
E000
E000
E000
E000
E000
F000
7803
3E0F
3FFF
0FFC
03F0
ENDCHAR
STARTCHAR uni0442
ENCODING 1090
SWIDTH 600 0
DWIDTH 22 0
BBX 17 18 2 0
BITMAP
FFFF80
FFFF80
FFFF80
01C000
01C000
01C000
01C000
01C000
01C000
01C000
01C000
01C000
01C000
01C000
01C000
01C000
01C000
01C000
ENDCHAR
STARTCHAR uni0443
ENCODING 1091
SWIDTH 600 0
DWIDTH 22 0
BBX 18 25 2 -7
BITMAP
E001C0
E00380
700380
700300
380700
380700
1C0E00
1C0E00
0E0C00
0E1C00
061C00
071800
033800
03B000
03F000
01F000
01E000
00E000
00C000
01C000
038000
078000
7F0000
7E0000
F80000
ENDCHAR
STARTCHAR uni0444
ENCODING 1092
SWIDTH 600 0
DWIDTH 22 0
BBX 19 33 1 -7
BITMAP
00E000
00E000
00E000
00E000
00E000
00E000
00E000
00E000
0FEF00
3FFF80
3FFFC0
78F1E0
70E0E0
70E0E0
E0E0E0
E0E0E0
E0E0E0
E0E0E0
E0E0E0
E0E0E0
F0E0E0
70E0E0
78F1C0
3FFFC0
3FFF80
0EEF00
00E000
00E000
00E000
00E000
00E000
00E000
00E000
ENDCHAR
STARTCHAR uni0445
ENCODING 1093
SWIDTH 600 0
DWIDTH 22 0
BBX 17 18 2 0
BITMAP
700780
380700
1C0E00
1E1C00
0E1C00
073800
07F000
03F000
01E000
03E000
03F000
077000
0E3800
0E1C00
1C1E00
380E00
780700
F00380
ENDCHAR
STARTCHAR uni0446
ENCODING 1094
SWIDTH 600 0
DWIDTH 22 0
BBX 17 25 3 -7
BITMAP
E00E00
E00E00
E00E00
E00E00
E00E00
E00E00
E00E00
E00E00
E00E00
E00E00
E00E00
E00E00
E00E00
E00E00
E00E00
FFFF80
FFFF80
FFFF80
000180
000180
000180
000180
000180
000180
000180
ENDCHAR
STARTCHAR uni0447
ENCODING 1095
SWIDTH 600 0
DWIDTH 22 0
BBX 15 18 3 0
BITMAP
E00E
E00E
E00E
E00E
E00E
E00E
F00E
780E
7FFE
3FFE
0FFE
000E
000E
000E
000E
000E
000E
000E
ENDCHAR
STARTCHAR uni0448
ENCODING 1096
SWIDTH 600 0
DWIDTH 22 0
BBX 18 18 2 0
BITMAP
E1C1C0
E1C1C0
E1C1C0
E1C1C0
E1C1C0
E1C1C0
E1C1C0
E1C1C0
E1C1C0
E1C1C0
E1C1C0
E1C1C0
E1C1C0
E1C1C0
E1C1C0
FFFFC0
FFFFC0
FFFFC0
ENDCHAR
STARTCHAR uni0449
ENCODING 1097
SWIDTH 600 0
DWIDTH 22 0
BBX 19 25 2 -7
BITMAP
E1C380
E1C380
E1C380
E1C380
E1C380
E1C380
E1C380
E1C380
E1C380
E1C380
E1C380
E1C380
E1C380
E1C380
E1C380
FFFFE0
FFFFE0
FFFFE0
000060
000060
000060
000060
000060
000060
000060
ENDCHAR
STARTCHAR uni044A
ENCODING 1098
SWIDTH 600 0
DWIDTH 22 0
BBX 19 18 1 0
BITMAP
FF8000
FF8000
FF8000
038000
038000
038000
03FE00
03FF80
03FFC0
0383C0
0380E0
0380E0
0380E0
0380E0
0383C0
03FFC0
03FF80
03FE00
ENDCHAR
STARTCHAR uni044B
ENCODING 1099
SWIDTH 600 0
DWIDTH 22 0
BBX 16 18 3 0
BITMAP
C007
C007
C007
C007
C007
C007
FF07
FF87
FFC7
C1E7
C0E7
C0E7
C0E7
C0E7
C1E7
FFC7
FF87
FF07
ENDCHAR
STARTCHAR uni044C
ENCODING 1100
SWIDTH 600 0
DWIDTH 22 0
BBX 15 18 4 0
BITMAP
E000
E000
E000
E000
E000
E000
FFE0
FFF8
FFFC
E03C
E01E
E00E
E00E
E01E
E03C
FFFC
FFF8
FFE0
ENDCHAR
STARTCHAR uni044D
ENCODING 1101
SWIDTH 600 0
DWIDTH 22 0
BBX 17 18 2 0
BITMAP
0FE000
3FF800
7FFC00
703E00
200F00
000700
000300
07FF80
07FF80
07FF80
000380
000300
000700
400F00
F03E00
7FFC00
3FF800
0FE000
ENDCHAR
STARTCHAR uni044E
ENCODING 1102
SWIDTH 600 0
DWIDTH 22 0
BBX 18 18 2 0
BITMAP
E07C00
E0FF00
E1FF80
E3C780
E383C0
E381C0
E301C0
FF01C0
FF01C0
FF01C0
E701C0
E301C0
E381C0
E383C0
E3C780
E1FF80
E0FF00
E07C00
ENDCHAR
STARTCHAR uni044F
ENCODING 1103
SWIDTH 600 0
DWIDTH 22 0
BBX 16 18 2 0
BITMAP
0FFF
3FFF
7FFF
7807
7007
7007
7007
7807
3FFF
1FFF
0FFF
0707
0E07
1E07
3C07
3807
7007
F007
ENDCHAR
STARTCHAR uni0450
ENCODING 1104
SWIDTH 600 0
DWIDTH 22 0
BBX 17 28 2 0
BITMAP
020000
070000
0F8000
038000
01C000
00E000
007000
002000
000000
000000
03F000
0FFC00
1FFE00
3E0F00
380380
700380
700180
7FFF80
FFFF80
FFFF80
700000
700000
700000
380100
3E0700
1FFF80
0FFE00
01F800
ENDCHAR
STARTCHAR uni0451
ENCODING 1105
SWIDTH 600 0
DWIDTH 22 0
BBX 17 25 2 0
BITMAP
060C00
0F1E00
0F1E00
061C00
000000
000000
000000
03F000
0FFC00
1FFE00
3E0F00
380380
700380
700180
7FFF80
FFFF80
FFFF80
700000
700000
700000
380100
3E0700
1FFF80
0FFE00
01F800
ENDCHAR
STARTCHAR uni0452
ENCODING 1106
SWIDTH 600 0
DWIDTH 22 0
BBX 18 33 1 -7
BITMAP
380000
380000
380000
FFF800
FFF800
FFF800
380000
380000
380000
387C00
39FF00
3BFF00
3F0780
3E0380
3C03C0
3801C0
3801C0
3801C0
3801C0
3801C0
3801C0
3801C0
3801C0
3801C0
3801C0
3801C0
0001C0
0003C0
000380
000780
007F00
007E00
007C00
ENDCHAR
STARTCHAR uni0453
ENCODING 1107
SWIDTH 600 0
DWIDTH 22 0
BBX 14 28 5 0
BITMAP
0020
0070
00F0
00E0
01C0
0380
0700
0200
0000
0000
FFFC
FFFC
FFFC
E000
E000
E000
E000
E000
E000
E000
E000
E000
E000
E000
E000
E000
E000
E000
ENDCHAR
STARTCHAR uni0454
ENCODING 1108
SWIDTH 600 0
DWIDTH 22 0
BBX 16 18 3 0
BITMAP
03F8
0FFC
3FFF
3C0F
7002
E000
E000
FFF0
FFF0
FFF0
E000
E000
F000
7003
7C0F
3FFF
0FFC
03F0
ENDCHAR
STARTCHAR uni0455
ENCODING 1109
SWIDTH 600 0
DWIDTH 22 0
BBX 16 18 3 0
BITMAP
0FE0
3FF8
7FFC
781E
7004
7000
7800
3F00
1FF0
03FC
003E
000F
0007
C007
F81F
7FFE
3FFC
07F0
ENDCHAR
STARTCHAR uni0456
ENCODING 1110
SWIDTH 600 0
DWIDTH 22 0
BBX 12 26 3 0
BITMAP
00E0
01F0
01F0
01F0
00E0
0000
0000
0000
FFE0
FFE0
FFE0
00E0
00E0
00E0
00E0
00E0
00E0
00E0
00E0
00E0
00E0
00E0
00E0
00E0
00E0
00E0
ENDCHAR
STARTCHAR uni0457
ENCODING 1111
SWIDTH 600 0
DWIDTH 22 0
BBX 15 25 3 0
BITMAP
060C
0F1E
0F1E
060C
0000
0000
0000
FFE0
FFE0
FFE0
00E0
00E0
00E0
00E0
00E0
00E0
00E0
00E0
00E0
00E0
00E0
00E0
00E0
00E0
00E0
ENDCHAR
STARTCHAR uni0458
ENCODING 1112
SWIDTH 600 0
DWIDTH 22 0
BBX 13 33 2 -7
BITMAP
0070
00F8
00F8
00F8
0070
0000
0000
0000
7FF0
7FF0
7FF0
0070
0070
0070
0070
0070
0070
0070
0070
0070
0070
0070
0070
0070
0070
0070
0070
0070
0070
40F0
FFE0
FFC0
3F00
ENDCHAR
STARTCHAR uni0459
ENCODING 1113
SWIDTH 600 0
DWIDTH 22 0
BBX 20 18 0 0
BITMAP
0FF800
0FF800
0FF800
0E3800
0E3800
0C3800
0C3F00
0C3FC0
1C3FE0
1C38F0
1C3870
1C3870
1C3870
1C3870
3838F0
F83FE0
F03FC0
E03F00
ENDCHAR
STARTCHAR uni045A
ENCODING 1114
SWIDTH 600 0
DWIDTH 22 0
BBX 18 18 2 0
BITMAP
E0C000
E0C000
E0C000
E0C000
E0C000
E0C000
E0FE00
FFFF00
FFFF80
FFC3C0
E0C1C0
E0C1C0
E0C1C0
E0C1C0
E0C3C0
E0FF80
E0FF00
E0FC00
ENDCHAR
STARTCHAR uni045B
ENCODING 1115
SWIDTH 600 0
DWIDTH 22 0
BBX 18 26 1 0
BITMAP
380000
380000
380000
FFF800
FFF800
FFF800
380000
380000
380000
387E00
39FF00
3BFF80
3F8780
3E03C0
3C01C0
3801C0
3801C0
3801C0
3801C0
3801C0
3801C0
3801C0
3801C0
3801C0
3801C0
3801C0
ENDCHAR
STARTCHAR uni045C
ENCODING 1116
SWIDTH 600 0
DWIDTH 22 0
BBX 16 28 4 0
BITMAP
0020
0070
00F0
00E0
01C0
0380
0700
0200
0000
0000
E00E
E01E
E03E
E038
E070
E0F0
E0E0
FFC0
FFC0
FFC0
E0E0
E070
E070
E038
E01C
E01C
E00E
E007
ENDCHAR
STARTCHAR uni045D
ENCODING 1117
SWIDTH 600 0
DWIDTH 22 0
BBX 14 28 4 0
BITMAP
0800
1C00
3C00
0E00
0700
0380
03C0
0100
0000
0000
C01C
C03C
C03C
C07C
C0FC
C0DC
C1DC
C39C
C31C
C71C
CE1C
CE1C
DC1C
D81C
F81C
F01C
E01C
E01C
ENDCHAR
STARTCHAR uni045E
ENCODING 1118
SWIDTH 600 0
DWIDTH 22 0
BBX 18 33 2 -7
BITMAP
1C0E00
1C0C00
0C0C00
0E1C00
07F800
03F000
000000
000000
E001C0
E00380
700380
700300
380700
380700
1C0E00
1C0E00
0E0C00
0E1C00
061C00
071800
033800
03B000
03F000
01F000
01E000
00E000
00C000
01C000
038000
078000
7F0000
7E0000
F80000
ENDCHAR
STARTCHAR uni045F
ENCODING 1119
SWIDTH 600 0
DWIDTH 22 0
BBX 14 25 4 -7
BITMAP
E01C
E01C
E01C
E01C
E01C
E01C
E01C
E01C
E01C
E01C
E01C
E01C
E01C
E01C
E01C
FFFC
FFFC
FFFC
0700
0700
0700
0700
0700
0700
0700
ENDCHAR
STARTCHAR uni0462
ENCODING 1122
SWIDTH 600 0
DWIDTH 22 0
BBX 19 26 1 0
BITMAP
070000
070000
070000
070000
070000
FFFF00
FFFF00
FFFF00
070000
070000
070000
070000
07FC00
07FF00
07FFC0
0703C0
0701E0
0700E0
0700E0
0700E0
0700E0
0701C0
0707C0
07FF80
07FF00
07FC00
ENDCHAR
STARTCHAR uni0463
ENCODING 1123
SWIDTH 600 0
DWIDTH 22 0
BBX 19 22 1 0
BITMAP
038000
038000
038000
038000
FFFF00
FFFF00
FFFF00
038000
038000
038000
03FE00
03FF80
03FFC0
0383C0
0381C0
0380E0
0380E0
0381C0
0383C0
03FFC0
03FF80
03FE00
ENDCHAR
STARTCHAR uni0472
ENCODING 1138
SWIDTH 600 0
DWIDTH 22 0
BBX 18 24 2 0
BITMAP
03F000
0FFC00
1FFE00
3C1F00
780700
700780
F00380
E00380
E001C0
E001C0
FFFFC0
FFFFC0
FFFFC0
E001C0
E001C0
E001C0
E00380
700380
700780
780700
3C1F00
1FFE00
0FFC00
03F000
ENDCHAR
STARTCHAR uni0473
ENCODING 1139
SWIDTH 600 0
DWIDTH 22 0
BBX 17 18 2 0
BITMAP
03F000
0FFC00
1FFE00
3C0F00
700700
700380
E00380
FFFF80
FFFF80
FFFF80
E00180
E00380
700380
780700
3C1F00
3FFE00
0FFC00
03F000
ENDCHAR
STARTCHAR uni0474
ENCODING 1140
SWIDTH 600 0
DWIDTH 22 0
BBX 21 24 1 0
BITMAP
F00078
7000F0
7001F0
7801C0
380380
380380
380380
1C0700
1C0700
1C0700
0E0700
0E0E00
0E0E00
070E00
071C00
071C00
031C00
039800
03B800
01B800
01F800
01F000
01F000
00F000
ENDCHAR
STARTCHAR uni0475
ENCODING 1141
SWIDTH 600 0
DWIDTH 22 0
BBX 17 18 3 0
BITMAP
E00380
E00F80
E00F80
700E00
701C00
701C00
381800
383800
183800
1C3000
1C7000
0C7000
0E6000
0EE000
06E000
07C000
07C000
03C000
ENDCHAR
STARTCHAR uni0490
ENCODING 1168
SWIDTH 600 0
DWIDTH 22 0
BBX 14 30 5 0
BITMAP
000C
000C
001C
001C
001C
001C
FFFC
FFFC
FFFC
E000
E000
E000
E000
E000
E000
E000
E000
E000
E000
E000
E000
E000
E000
E000
E000
E000
E000
E000
E000
E000
ENDCHAR
STARTCHAR uni0491
ENCODING 1169
SWIDTH 600 0
DWIDTH 22 0
BBX 12 24 6 0
BITMAP
0030
0030
0070
0070
0070
0070
FFF0
FFF0
FFF0
E000
E000
E000
E000
E000
E000
E000
E000
E000
E000
E000
E000
E000
E000
E000
ENDCHAR
STARTCHAR uni0492
ENCODING 1170
SWIDTH 600 0
DWIDTH 22 0
BBX 17 24 2 0
BITMAP
1FFF80
1FFF80
1FFF80
1C0000
1C0000
1C0000
1C0000
1C0000
1C0000
1C0000
FFF000
FFF000
FFF000
1C0000
1C0000
1C0000
1C0000
1C0000
1C0000
1C0000
1C0000
1C0000
1C0000
1C0000
ENDCHAR
STARTCHAR uni0493
ENCODING 1171
SWIDTH 600 0
DWIDTH 22 0
BBX 16 18 3 0
BITMAP
3FFF
3FFF
3FFF
3800
3800
3800
3800
3800
FFE0
FFE0
FFE0
3800
3800
3800
3800
3800
3800
3800
ENDCHAR
STARTCHAR uni0496
ENCODING 1174
SWIDTH 600 0
DWIDTH 22 0
BBX 22 31 0 -7
BITMAP
F0703C
F87078
F870F8
3C70E0
1C70E0
1C71C0
0E71C0
0E71C0
0E7380
067380
07FF80
07FF80
07FF80
0E7380
0E71C0
1C71C0
1C70E0
1C70E0
3870F0
387070
787070
70707C
70703C
E0703C
00000C
00000C
00000C
00000C
00000C
00000C
00000C
ENDCHAR
STARTCHAR uni0497
ENCODING 1175
SWIDTH 600 0
DWIDTH 22 0
BBX 22 25 0 -7
BITMAP
F07038
787078
7870F8
1C70E0
1C71C0
0E71C0
0E7380
07FF80
07FF80
0FFF80
0E71C0
1C71C0
1C70E0
3870E0
387070
78707C
70703C
F0703C
00001C
00001C
00001C
00001C
00001C
00001C
00001C
ENDCHAR
STARTCHAR uni0498
ENCODING 1176
SWIDTH 600 0
DWIDTH 22 0
BBX 17 31 2 -7
BITMAP
03F000
1FFC00
3FFE00
7C1F00
300700
000700
000700
000700
000700
001E00
07FC00
07F800
07FE00
000F00
000380
000380
000380
000380
400380
700780
FC0F80
3FFF00
1FFE00
07F000
01C000
01C000
01C000
01C000
01C000
01C000
01C000
ENDCHAR
STARTCHAR uni0499
ENCODING 1177
SWIDTH 600 0
DWIDTH 22 0
BBX 16 25 2 -7
BITMAP
07F0
1FFC
7FFE
781E
2007
000E
001E
07FC
07F8
07FE
000F
0007
0007
4007
F80F
7FFF
3FFC
0FF0
01C0
01C0
01C0
01C0
01C0
01C0
01C0
ENDCHAR
STARTCHAR uni049A
ENCODING 1178
SWIDTH 600 0
DWIDTH 22 0
BBX 17 31 4 -7
BITMAP
E00700
E01F00
E01F00
E03C00
E03800
E07000
E0F000
E0E000
E1C000
E1C000
FF8000
FF8000
FFC000
E1C000
E1E000
E0F000
E07000
E07800
E03C00
E01C00
E01E00
E00F80
E00780
E00780
000380
000380
000380
000380
000380
000380
000380
ENDCHAR
STARTCHAR uni049B
ENCODING 1179
SWIDTH 600 0
DWIDTH 22 0
BBX 17 25 4 -7
BITMAP
E00E00
E01E00
E03E00
E03800
E07000
E0F000
E0E000
FFC000
FFC000
FFE000
E0E000
E0F000
E07800
E03800
E01C00
E01F80
E00F80
E00780
000380
000380
000380
000300
000300
000300
000300
ENDCHAR
STARTCHAR uni04A0
ENCODING 1184
SWIDTH 600 0
DWIDTH 22 0
BBX 21 24 1 0
BITMAP
FF8070
FF80F0
FF81F0
0381C0
038380
038300
038700
038600
038E00
038C00
03FC00
03FC00
03FC00
038E00
038E00
038700
038780
038380
0381C0
0381C0
0380E0
0380E0
038070
038078
ENDCHAR
STARTCHAR uni04A1
ENCODING 1185
SWIDTH 600 0
DWIDTH 22 0
BBX 20 18 1 0
BITMAP
FF80E0
FF81E0
FF83E0
038380
038700
038700
038600
03FE00
03FE00
03FE00
038700
038700
038380
038380
0381C0
0380E0
0380E0
038070
ENDCHAR
STARTCHAR uni04A2
ENCODING 1186
SWIDTH 600 0
DWIDTH 22 0
BBX 18 31 3 -7
BITMAP
E00700
E00700
E00700
E00700
E00700
E00700
E00700
E00700
E00700
E00700
FFFF00
FFFF00
FFFF00
E00700
E00700
E00700
E00700
E00700
E00700
E00700
E00700
E007C0
E007C0
E007C0
0000C0
0000C0
0000C0
0000C0
0000C0
0000C0
0000C0
ENDCHAR
STARTCHAR uni04A3
ENCODING 1187
SWIDTH 600 0
DWIDTH 22 0
BBX 17 25 3 -7
BITMAP
E00E00
E00E00
E00E00
E00E00
E00E00
E00E00
E00E00
FFFE00
FFFE00
FFFE00
E00E00
E00E00
E00E00
E00E00
E00E00
E00F80
E00F80
E00F80
000180
000180
000180
000180
000180
000180
000180
ENDCHAR
STARTCHAR uni04AA
ENCODING 1194
SWIDTH 600 0
DWIDTH 22 0
BBX 18 31 2 -7
BITMAP
00FC00
07FE00
0FFF80
1F0780
3C0100
380000
780000
700000
700000
700000
F00000
E00000
E00000
F00000
F00000
700000
700000
780000
380100
3C0180
1F07C0
0FFF80
07FF00
01FC00
007000
007000
007000
007000
007000
007000
007000
ENDCHAR
STARTCHAR uni04AB
ENCODING 1195
SWIDTH 600 0
DWIDTH 22 0
BBX 16 25 3 -7
BITMAP
03F0
0FFC
1FFE
3E0F
7802
7000
E000
E000
E000
E000
E000
E000
F000
7803
7E0F
3FFF
0FFC
03F8
00E0
00E0
00E0
00E0
00E0
00C0
00C0
ENDCHAR
STARTCHAR uni04AE
ENCODING 1198
SWIDTH 600 0
DWIDTH 22 0
BBX 19 24 1 0
BITMAP
F000E0
7001C0
3801C0
380380
1C0380
1C0700
0E0700
0E0600
070E00
070C00
039C00
039800
01F800
01F000
00F000
00E000
00E000
00E000
00E000
00E000
00E000
00E000
00E000
00E000
ENDCHAR
STARTCHAR uni04AF
ENCODING 1199
SWIDTH 600 0
DWIDTH 22 0
BBX 18 25 2 -7
BITMAP
E001C0
E00380
700380
700700
380700
380700
1C0E00
1C0E00
1C1C00
0E1C00
0E1800
073800
073800
033000
03F000
03E000
01E000
01E000
01C000
01C000
01C000
01C000
01C000
01C000
01C000
ENDCHAR
STARTCHAR uni04B0
ENCODING 1200
SWIDTH 600 0
DWIDTH 22 0
BBX 19 24 1 0
BITMAP
F000E0
7001C0
3801C0
380380
1C0380
1C0700
0E0700
0E0600
070E00
070C00
039C00
019800
01F800
1FFF80
1FFF80
1FFF80
00E000
00E000
00E000
00E000
00E000
00E000
00E000
00E000
ENDCHAR
STARTCHAR uni04B1
ENCODING 1201
SWIDTH 600 0
DWIDTH 22 0
BBX 18 25 2 -7
BITMAP
E001C0
E00380
700380
700700
380700
380600
1C0E00
1C0E00
0C1C00
0E1C00
0E1800
073800
073000
033000
03F000
3FFF00
3FFF00
3FFF00
01C000
01C000
01C000
01C000
01C000
01C000
01C000
ENDCHAR
STARTCHAR uni04B2
ENCODING 1202
SWIDTH 600 0
DWIDTH 22 0
BBX 18 31 2 -7
BITMAP
F00380
780700
380700
3C0E00
1C0E00
0E1C00
0E1C00
073800
073000
03F000
03E000
01E000
01E000
03F000
077000
073800
0E3800
0E1C00
1C1E00
3C0E00
380F00
7007C0
7003C0
E003C0
0000C0
0000C0
0000C0
0000C0
0000C0
0000C0
0000C0
ENDCHAR
STARTCHAR uni04B3
ENCODING 1203
SWIDTH 600 0
DWIDTH 22 0
BBX 18 25 2 -7
BITMAP
700780
380700
1C0E00
1E1C00
0E1C00
073800
07F000
03F000
01E000
03E000
03F000
077800
0E3800
0E1C00
1C1E00
380FC0
7807C0
7003C0
8001C0
0001C0
0001C0
0001C0
0001C0
0001C0
0001C0
ENDCHAR
STARTCHAR uni04B6
ENCODING 1206
SWIDTH 600 0
DWIDTH 22 0
BBX 19 31 2 -7
BITMAP
E00700
E00700
E00700
E00700
E00700
E00700
E00700
E00700
700700
700700
7C0700
3FFF00
1FFF00
07FF00
000700
000700
000700
000700
000700
000700
000700
0007E0
0007E0
0007E0
0000E0
0000E0
0000E0
0000E0
0000E0
0000E0
0000E0
ENDCHAR
STARTCHAR uni04B7
ENCODING 1207
SWIDTH 600 0
DWIDTH 22 0
BBX 17 25 3 -7
BITMAP
E01C00
E01C00
E01C00
E01C00
E01C00
E01C00
F01C00
781C00
7FFC00
3FFC00
0FFC00
001C00
001C00
001C00
001C00
001F80
001F80
001F80
000380
000380
000380
000380
000380
000380
000380
ENDCHAR
STARTCHAR uni04BA
ENCODING 1210
SWIDTH 600 0
DWIDTH 22 0
BBX 16 24 3 0
BITMAP
E000
E000
E000
E000
E000
E000
E000
E000
E000
FFE0
FFFC
FFFE
E01E
E00F
E007
E007
E007
E007
E007
E007
E007
E007
E007
E007
ENDCHAR
STARTCHAR uni04BB
ENCODING 1211
SWIDTH 600 0
DWIDTH 22 0
BBX 16 26 3 0
BITMAP
E000
E000
E000
E000
E000
E000
E000
E000
E1F8
E7FC
EFFE
FE1E
F80F
F007
E007
E007
E007
E007
E007
E007
E007
E007
E007
E007
E007
E007
ENDCHAR
STARTCHAR uni04C0
ENCODING 1216
SWIDTH 600 0
DWIDTH 22 0
BBX 15 24 3 0
BITMAP
FFFE
FFFE
FFFE
0380
0380
0380
0380
0380
0380
0380
0380
0380
0380
0380
0380
0380
0380
0380
0380
0380
0380
FFFE
FFFE
FFFE
ENDCHAR
STARTCHAR uni04C1
ENCODING 1217
SWIDTH 600 0
DWIDTH 22 0
BBX 22 30 0 0
BITMAP
070300
030700
038F00
01FE00
00FC00
000000
F0703C
F87078
F870F8
3C70E0
1C70E0
1C71C0
0E71C0
0E71C0
0E7380
067380
07FF80
07FF80
07FF80
0E7380
0E71C0
1C71C0
1C70E0
1C70E0
3870E0
387070
787070
707078
707038
E0703C
ENDCHAR
STARTCHAR uni04C2
ENCODING 1218
SWIDTH 600 0
DWIDTH 22 0
BBX 21 26 0 0
BITMAP
070300
070300
030700
038700
01FE00
00F800
000000
000000
F07038
787078
7870F8
1C70E0
1C71C0
0E71C0
0E7380
07FF80
07FF80
0FFF80
0E71C0
1C71C0
1C70E0
3870E0
387070
787070
707038
F07038
ENDCHAR
STARTCHAR uni04CF
ENCODING 1231
SWIDTH 600 0
DWIDTH 22 0
BBX 16 26 3 0
BITMAP
FF80
FF80
FF80
0380
0380
0380
0380
0380
0380
0380
0380
0380
0380
0380
0380
0380
0380
0380
0380
0380
0380
0380
03C1
01FF
01FF
007E
ENDCHAR
STARTCHAR uni04D0
ENCODING 1232
SWIDTH 600 0
DWIDTH 22 0
BBX 19 30 1 0
BITMAP
0E0600
060E00
071E00
03FC00
01F800
000000
00F000
00F000
01F000
01B800
01B800
039800
039C00
031C00
070C00
070E00
060E00
0E0600
0E0700
0C0700
1FFF00
1FFF80
1FFF80
380380
3801C0
3801C0
7001C0
7001E0
7000E0
E000E0
ENDCHAR
STARTCHAR uni04D1
ENCODING 1233
SWIDTH 600 0
DWIDTH 22 0
BBX 16 26 3 0
BITMAP
180C
1C1C
1C1C
0E38
07F0
03E0
0000
0000
07F0
1FF8
7FFC
783E
600E
000E
0007
00FF
0FFF
3FFF
7F07
F007
E007
E00F
F03F
7FF7
7FE7
1F87
ENDCHAR
STARTCHAR uni04D4
ENCODING 1236
SWIDTH 600 0
DWIDTH 22 0
BBX 21 24 0 0
BITMAP
007FF8
007FF8
00FFF8
00FC00
00FC00
01DC00
01DC00
039C00
039C00
039C00
071FE0
071FE0
071FE0
0E1C00
0E1C00
1FFC00
1FFC00
1FFC00
3C1C00
381C00
781C00
701FF8
701FF8
E01FF8
ENDCHAR
STARTCHAR uni04D5
ENCODING 1237
SWIDTH 600 0
DWIDTH 22 0
BBX 20 18 1 0
BITMAP
1F0780
7F9FE0
FFDFE0
61F870
00F030
00E030
006030
03FFF0
1FFFF0
7C7FF0
F06000
E06000
C07000
C07000
E1F820
FFBFF0
7F1FE0
3E07C0
ENDCHAR
STARTCHAR uni04D6
ENCODING 1238
SWIDTH 600 0
DWIDTH 22 0
BBX 15 30 4 0
BITMAP
3818
1838
1C38
0FF0
07E0
0000
FFFE
FFFE
FFFE
E000
E000
E000
E000
E000
E000
E000
FFF8
FFF8
FFF8
E000
E000
E000
E000
E000
E000
E000
E000
FFFE
FFFE
FFFE
ENDCHAR
STARTCHAR uni04D7
ENCODING 1239
SWIDTH 600 0
DWIDTH 22 0
BBX 17 26 2 0
BITMAP
0C0600
0C0E00
0E0E00
071C00
07F800
01F000
000000
000000
03F000
0FFC00
1FFE00
3E0F00
380380
700380
700180
7FFF80
FFFF80
FFFF80
700000
700000
700000
380100
3E0700
1FFF80
0FFE00
01F800
ENDCHAR
STARTCHAR uni04D8
ENCODING 1240
SWIDTH 600 0
DWIDTH 22 0
BBX 18 24 2 0
BITMAP
03F000
0FFC00
1FFE00
3C1F00
080700
000380
000380
000380
0001C0
0001C0
FFFFC0
FFFFC0
FFFFC0
E001C0
E001C0
600380
700380
700380
700780
380F00
1E1E00
1FFE00
0FF800
03F000
ENDCHAR
STARTCHAR uni04D9
ENCODING 1241
SWIDTH 600 0
DWIDTH 22 0
BBX 17 18 2 0
BITMAP
07F000
1FFC00
3FFE00
381F00
200700
000380
000380
000380
7FFF80
FFFF80
7FFF80
600380
700380
700700
3C0F00
3FFE00
0FFC00
03F000
ENDCHAR
STARTCHAR uni04E2
ENCODING 1250
SWIDTH 600 0
DWIDTH 22 0
BBX 16 28 3 0
BITMAP
1FF8
1FF8
0000
0000
E00F
E00F
E01F
E01F
E03F
E03F
E077
E077
E0E7
E0E7
E1C7
E3C7
E387
E787
E707
EF07
EE07
CE07
DC07
D807
F807
F007
F007
E007
ENDCHAR
STARTCHAR uni04E3
ENCODING 1251
SWIDTH 600 0
DWIDTH 22 0
BBX 14 24 4 0
BITMAP
3FF0
3FF0
0000
0000
0000
0000
C01C
C03C
C03C
C07C
C0FC
C0DC
C1DC
C39C
C31C
C71C
CE1C
CE1C
DC1C
D81C
F81C
F01C
E01C
E01C
ENDCHAR
STARTCHAR uni04E6
ENCODING 1254
SWIDTH 600 0
DWIDTH 22 0
BBX 18 30 2 0
BITMAP
0E1800
0E3C00
0E3C00
0E1800
000000
000000
03F000
0FFC00
1FFE00
3E1F00
780F00
700780
700380
E00380
E003C0
E003C0
E001C0
E001C0
E001C0
E001C0
E001C0
E003C0
E00380
700380
700780
780F00
3E1F00
1FFE00
0FFC00
03F000
ENDCHAR
STARTCHAR uni04E7
ENCODING 1255
SWIDTH 600 0
DWIDTH 22 0
BBX 17 25 2 0
BITMAP
0E1C00
1E3C00
1E3C00
0E1C00
000000
000000
000000
03F000
0FFC00
1FFE00
3C1F00
780700
700780
F00380
E00380
E00380
E00380
E00380
F00380
700780
780700
3C1F00
1FFE00
0FFC00
03F000
ENDCHAR
STARTCHAR uni04E8
ENCODING 1256
SWIDTH 600 0
DWIDTH 22 0
BBX 18 24 2 0
BITMAP
03F000
0FFC00
1FFE00
3C1F00
780700
700780
F00380
E00380
E001C0
E001C0
FFFFC0
FFFFC0
FFFFC0
E001C0
E001C0
E001C0
E00380
700380
700780
780700
3C1F00
1FFE00
0FFC00
03F000
ENDCHAR
STARTCHAR uni04E9
ENCODING 1257
SWIDTH 600 0
DWIDTH 22 0
BBX 17 18 2 0
BITMAP
03F000
0FFC00
1FFE00
3C0F00
700700
700380
E00380
FFFF80
FFFF80
FFFF80
E00180
E00380
700380
780700
3C1F00
3FFE00
0FFC00
03F000
ENDCHAR
STARTCHAR uni04EE
ENCODING 1262
SWIDTH 600 0
DWIDTH 22 0
BBX 18 28 2 0
BITMAP
0FFC00
0FFC00
000000
000000
E001C0
F00380
700380
700380
380700
380700
1C0E00
1C0E00
1C0E00
0E1C00
0E1C00
071800
073800
033800
03F000
01F000
01E000
00E000
00E000
01C000
03C000
1F8000
3F0000
3E0000
ENDCHAR
STARTCHAR uni04EF
ENCODING 1263
SWIDTH 600 0
DWIDTH 22 0
BBX 18 31 2 -7
BITMAP
0FFC00
0FFC00
000000
000000
000000
000000
E001C0
E00380
700380
700300
380700
380700
1C0E00
1C0E00
0E0C00
0E1C00
061C00
071800
033800
03B000
03F000
01F000
01E000
00E000
00C000
01C000
038000
078000
7F0000
7E0000
F80000
ENDCHAR
STARTCHAR uni04F2
ENCODING 1266
SWIDTH 600 0
DWIDTH 22 0
BBX 18 31 2 0
BITMAP
008200
01C700
018E00
030C00
071800
061800
000000
E001C0
F00380
700380
700380
380700
380700
1C0E00
1C0E00
1C0E00
0E1C00
0E1C00
071800
073800
033800
03F000
01F000
01E000
00E000
00E000
01C000
03C000
1F8000
3F0000
3E0000
ENDCHAR
STARTCHAR uni04F3
ENCODING 1267
SWIDTH 600 0
DWIDTH 22 0
BBX 18 34 2 -7
BITMAP
008200
00C700
01C600
018C00
030C00
031800
061800
000000
000000
E001C0
E00380
700380
700300
380700
380700
1C0E00
1C0E00
0E0C00
0E1C00
061C00
071800
033800
03B000
03F000
01F000
01E000
00E000
00C000
01C000
038000
078000
7F0000
7E0000
F80000
ENDCHAR
STARTCHAR a.sups
ENCODING 7491
SWIDTH 600 0
DWIDTH 22 0
BBX 10 12 6 14
BITMAP
1F00
7F80
E1C0
01C0
00C0
0FC0
78C0
C0C0
C0C0
E3C0
FFC0
7CC0
ENDCHAR
STARTCHAR b.sups
ENCODING 7495
SWIDTH 600 0
DWIDTH 22 0
BBX 11 17 6 14
BITMAP
E000
E000
E000
E000
E000
CF00
DFC0
F1C0
E0E0
E0E0
E060
E060
E0E0
E0E0
E1C0
FF80
CF00
ENDCHAR
STARTCHAR d.sups
ENCODING 7496
SWIDTH 600 0
DWIDTH 22 0
BBX 11 17 5 14
BITMAP
00E0
00E0
00E0
00E0
00E0
1EE0
3FE0
70E0
E0E0
E0E0
C0E0
C0E0
C0E0
E0E0
71E0
7F60
1E60
ENDCHAR
STARTCHAR e.sups
ENCODING 7497
SWIDTH 600 0
DWIDTH 22 0
BBX 11 12 5 14
BITMAP
0F80
3FC0
70E0
6060
E060
FFE0
FFE0
C000
6000
7040
3FE0
0F80
ENDCHAR
STARTCHAR g.sups
ENCODING 7501
SWIDTH 600 0
DWIDTH 22 0
BBX 12 17 5 9
BITMAP
1FF0
3FF0
71C0
60C0
60C0
71C0
3F80
3F00
6000
6000
7FE0
3FF0
6030
C030
E070
7FE0
3F80
ENDCHAR
STARTCHAR k.sups
ENCODING 7503
SWIDTH 600 0
DWIDTH 22 0
BBX 11 17 7 14
BITMAP
C000
C000
C000
C000
C000
C1E0
C380
C700
CE00
DC00
FE00
F600
E300
C380
C1C0
C0C0
C0E0
ENDCHAR
STARTCHAR m.sups
ENCODING 7504
SWIDTH 600 0
DWIDTH 22 0
BBX 16 12 3 14
BITMAP
9E1C
FF7E
E3C7
C183
C183
C183
C183
C183
C183
C183
C183
C183
ENDCHAR
STARTCHAR o.sups
ENCODING 7506
SWIDTH 600 0
DWIDTH 22 0
BBX 11 12 5 14
BITMAP
1F00
3FC0
70E0
60E0
E060
E060
C060
E060
60E0
70E0
3FC0
1F00
ENDCHAR
STARTCHAR p.sups
ENCODING 7510
SWIDTH 600 0
DWIDTH 22 0
BBX 11 16 6 10
BITMAP
CF00
DFC0
F1C0
E0E0
E0E0
E060
E060
E0E0
E0E0
E1C0
FF80
CF00
C000
E000
E000
E000
ENDCHAR
STARTCHAR t.sups
ENCODING 7511
SWIDTH 600 0
DWIDTH 22 0
BBX 11 16 6 14
BITMAP
1800
1800
1800
1800
FFC0
FFC0
1800
1800
1800
1800
1800
1800
1800
1C40
0FC0
07E0
ENDCHAR
STARTCHAR u.sups
ENCODING 7512
SWIDTH 600 0
DWIDTH 22 0
BBX 10 12 6 14
BITMAP
C0C0
C0C0
C0C0
C0C0
C0C0
C0C0
C0C0
C1C0
E3C0
FFC0
FEC0
7CC0
ENDCHAR
STARTCHAR v.sups
ENCODING 7515
SWIDTH 600 0
DWIDTH 22 0
BBX 11 12 5 14
BITMAP
E060
6060
60C0
70C0
30C0
3180
3980
1980
1B00
1F00
0F00
0E00
ENDCHAR
STARTCHAR c.sups
ENCODING 7580
SWIDTH 600 0
DWIDTH 22 0
BBX 10 12 7 14
BITMAP
1F00
7F80
7180
E000
C000
C000
C000
C000
E000
F080
7FC0
1F00
ENDCHAR
STARTCHAR f.sups
ENCODING 7584
SWIDTH 600 0
DWIDTH 22 0
BBX 11 18 7 14
BITMAP
07E0
0FE0
1C00
1800
1800
1800
FFC0
FFC0
1800
1800
1800
1800
1800
1800
1800
1800
1800
1800
ENDCHAR
STARTCHAR z.sups
ENCODING 7611
SWIDTH 600 0
DWIDTH 22 0
BBX 11 12 5 14
BITMAP
7FE0
7FE0
01C0
0180
0300
0600
0E00
1C00
3800
7000
FFE0
FFE0
ENDCHAR
STARTCHAR uni1E06
ENCODING 7686
SWIDTH 600 0
DWIDTH 22 0
BBX 16 30 4 -6
BITMAP
FFC0
FFF0
FFF8
E07C
E01C
E01C
E01C
E01C
E01C
E078
FFF0
FFE0
FFF8
E03E
E00E
E007
E007
E007
E00F
E00E
E03E
FFFC
FFF8
FFE0
0000
0000
0000
0000
3FF0
3FF0
ENDCHAR
STARTCHAR uni1E07
ENCODING 7687
SWIDTH 600 0
DWIDTH 22 0
BBX 16 32 3 -6
BITMAP
E000
E000
E000
E000
E000
E000
E000
E000
E1F0
E7FC
FFFE
FC1E
F80F
E007
E007
E007
E007
E007
E007
E007
E00F
F00E
FC3E
FFFC
EFF8
E3E0
0000
0000
0000
0000
1FF8
1FF8
ENDCHAR
STARTCHAR uni1E0C
ENCODING 7692
SWIDTH 600 0
DWIDTH 22 0
BBX 17 32 3 -8
BITMAP
FFC000
FFF000
FFFC00
E07C00
E01E00
E00F00
E00700
E00700
E00780
E00380
E00380
E00380
E00380
E00380
E00380
E00780
E00700
E00700
E00F00
E01E00
E07C00
FFF800
FFF000
FFC000
000000
000000
000000
038000
07C000
07C000
07C000
038000
ENDCHAR
STARTCHAR uni1E0D
ENCODING 7693
SWIDTH 600 0
DWIDTH 22 0
BBX 16 34 2 -8
BITMAP
0007
0007
0007
0007
0007
0007
0007
0007
07E7
0FF7
1FFF
3C1F
780F
7007
F007
E007
E007
E007
E007
F007
7007
780F
7C1F
3FFB
1FF3
07C3
0000
0000
0000
01C0
01E0
01E0
01E0
01C0
ENDCHAR
STARTCHAR uni1E0E
ENCODING 7694
SWIDTH 600 0
DWIDTH 22 0
BBX 17 30 3 -6
BITMAP
FFC000
FFF000
FFFC00
E07C00
E01E00
E00F00
E00700
E00700
E00780
E00380
E00380
E00380
E00380
E00380
E00380
E00780
E00700
E00700
E00F00
E01E00
E07C00
FFF800
FFF000
FFC000
000000
000000
000000
000000
1FF000
1FF000
ENDCHAR
STARTCHAR uni1E0F
ENCODING 7695
SWIDTH 600 0
DWIDTH 22 0
BBX 16 32 2 -6
BITMAP
0007
0007
0007
0007
0007
0007
0007
0007
07E7
0FF7
1FFF
3C1F
780F
7007
F007
E007
E007
E007
E007
F007
7007
780F
7C1F
3FFB
1FF3
07C3
0000
0000
0000
0000
0FFC
0FFC
ENDCHAR
STARTCHAR uni1E10
ENCODING 7696
SWIDTH 600 0
DWIDTH 22 0
BBX 17 33 3 -9
BITMAP
FFC000
FFF000
FFFC00
E07C00
E01E00
E00F00
E00700
E00700
E00780
E00380
E00380
E00380
E00380
E00380
E00380
E00780
E00700
E00700
E00F00
E01E00
E07C00
FFF800
FFF000
FFC000
030000
030000
030000
078000
01C000
00C000
00C000
038000
0E0000
ENDCHAR
STARTCHAR uni1E11
ENCODING 7697
SWIDTH 600 0
DWIDTH 22 0
BBX 16 35 2 -9
BITMAP
0007
0007
0007
0007
0007
0007
0007
0007
07E7
0FF7
1FFF
3C1F
780F
7007
F007
E007
E007
E007
E007
F007
7007
780F
7C1F
3FFB
1FF3
07C3
00C0
0180
0180
01C0
02E0
0060
0060
00E0
0780
ENDCHAR
STARTCHAR uni1E16
ENCODING 7702
SWIDTH 600 0
DWIDTH 22 0
BBX 15 34 4 0
BITMAP
0020
0070
00E0
0380
0100
0000
1FF8
1FF8
0000
0000
FFFE
FFFE
FFFE
E000
E000
E000
E000
E000
E000
E000
FFF8
FFF8
FFF8
E000
E000
E000
E000
E000
E000
E000
E000
FFFE
FFFE
FFFE
ENDCHAR
STARTCHAR uni1E17
ENCODING 7703
SWIDTH 600 0
DWIDTH 22 0
BBX 17 31 2 0
BITMAP
001000
003800
00F000
01E000
008000
000000
000000
07FC00
07FC00
000000
000000
000000
000000
03F000
0FFC00
1FFE00
3E0F00
380380
700380
700180
7FFF80
FFFF80
FFFF80
700000
700000
700000
380100
3E0700
1FFF80
0FFE00
01F800
ENDCHAR
STARTCHAR uni1E20
ENCODING 7712
SWIDTH 600 0
DWIDTH 22 0
BBX 17 28 2 0
BITMAP
07FE00
07FE00
000000
000000
01F800
07FE00
0FFF00
1F0780
3C0300
780000
700000
F00000
E00000
E00000
E00000
E03F80
E03F80
E03F80
E00380
E00380
F00380
700380
780380
3C0380
3F0780
1FFF80
07FF00
01F800
ENDCHAR
STARTCHAR uni1E21
ENCODING 7713
SWIDTH 600 0
DWIDTH 22 0
BBX 17 31 3 -7
BITMAP
1FF800
1FF800
000000
000000
000000
000000
07FF80
1FFF80
3FFF80
783F80
701800
601C00
601C00
701C00
783C00
3FF800
1FF000
37C000
600000
600000
700000
7FFE00
3FFF00
7FFF80
E00380
C00380
C00380
F00F80
FFFF00
7FFC00
1FF000
ENDCHAR
STARTCHAR uni1E24
ENCODING 7716
SWIDTH 600 0
DWIDTH 22 0
BBX 16 32 3 -8
BITMAP
E007
E007
E007
E007
E007
E007
E007
E007
E007
E007
FFFF
FFFF
FFFF
E007
E007
E007
E007
E007
E007
E007
E007
E007
E007
E007
0000
0000
0000
0380
03C0
07C0
03C0
0380
ENDCHAR
STARTCHAR uni1E25
ENCODING 7717
SWIDTH 600 0
DWIDTH 22 0
BBX 16 34 3 -8
BITMAP
E000
E000
E000
E000
E000
E000
E000
E000
E1F8
E7FC
EFFE
FE1E
F80F
F007
E007
E007
E007
E007
E007
E007
E007
E007
E007
E007
E007
E007
0000
0000
0000
01C0
03E0
03E0
03E0
01C0
ENDCHAR
STARTCHAR uni1E26
ENCODING 7718
SWIDTH 600 0
DWIDTH 22 0
BBX 16 30 3 0
BITMAP
1C30
1C78
1C78
1C30
0000
0000
E007
E007
E007
E007
E007
E007
E007
E007
E007
E007
FFFF
FFFF
FFFF
E007
E007
E007
E007
E007
E007
E007
E007
E007
E007
E007
ENDCHAR
STARTCHAR uni1E27
ENCODING 7719
SWIDTH 600 0
DWIDTH 22 0
BBX 19 32 0 0
BITMAP
E18000
E3C000
E3C000
E18000
000000
000000
1C0000
1C0000
1C0000
1C0000
1C0000
1C0000
1C0000
1C0000
1C3F00
1CFF80
1DFFC0
1FC3C0
1F01E0
1E00E0
1C00E0
1C00E0
1C00E0
1C00E0
1C00E0
1C00E0
1C00E0
1C00E0
1C00E0
1C00E0
1C00E0
1C00E0
ENDCHAR
STARTCHAR uni1E28
ENCODING 7720
SWIDTH 600 0
DWIDTH 22 0
BBX 18 33 1 -9
BITMAP
3801C0
3801C0
3801C0
3801C0
3801C0
3801C0
3801C0
3801C0
3801C0
3801C0
3FFFC0
3FFFC0
3FFFC0
3801C0
3801C0
3801C0
3801C0
3801C0
3801C0
3801C0
3801C0
3801C0
3801C0
3801C0
300000
300000
300000
780000
1C0000
0C0000
0C0000
180000
F00000
ENDCHAR
STARTCHAR uni1E29
ENCODING 7721
SWIDTH 600 0
DWIDTH 22 0
BBX 18 35 1 -9
BITMAP
380000
380000
380000
380000
380000
380000
380000
380000
387E00
39FF00
3BFF80
3F8780
3E03C0
3C01C0
3801C0
3801C0
3801C0
3801C0
3801C0
3801C0
3801C0
3801C0
3801C0
3801C0
3801C0
3801C0
180000
380000
300000
380000
1C0000
0E0000
0E0000
1C0000
F00000
ENDCHAR
STARTCHAR uni1E2A
ENCODING 7722
SWIDTH 600 0
DWIDTH 22 0
BBX 16 32 3 -8
BITMAP
E007
E007
E007
E007
E007
E007
E007
E007
E007
E007
FFFF
FFFF
FFFF
E007
E007
E007
E007
E007
E007
E007
E007
E007
E007
E007
0000
0000
0000
3018
3818
1C38
0FF0
07C0
ENDCHAR
STARTCHAR uni1E2B
ENCODING 7723
SWIDTH 600 0
DWIDTH 22 0
BBX 16 34 3 -8
BITMAP
E000
E000
E000
E000
E000
E000
E000
E000
E1F8
E7FC
EFFE
FE1E
F80F
F007
E007
E007
E007
E007
E007
E007
E007
E007
E007
E007
E007
E007
0000
0000
0000
180C
181C
1C38
0FF0
03E0
ENDCHAR
STARTCHAR uni1E32
ENCODING 7730
SWIDTH 600 0
DWIDTH 22 0
BBX 17 32 4 -8
BITMAP
E00F00
E01E00
E01C00
E03800
E07000
E0F000
E1E000
E3C000
E38000
E78000
EF8000
FFC000
FDC000
F8E000
F0F000
E07000
E07800
E03800
E01C00
E01C00
E00E00
E00E00
E00700
E00780
000000
000000
000000
01C000
03C000
03E000
03C000
01C000
ENDCHAR
STARTCHAR uni1E33
ENCODING 7731
SWIDTH 600 0
DWIDTH 22 0
BBX 17 34 4 -8
BITMAP
E00000
E00000
E00000
E00000
E00000
E00000
E00000
E00000
E00F00
E01C00
E03800
E07000
E0E000
E1C000
E38000
E78000
EFC000
FDC000
F8E000
F07000
E07800
E03800
E01C00
E00E00
E00F00
E00700
000080
000000
000000
01C000
03C000
03C000
03C000
01C000
ENDCHAR
STARTCHAR uni1E34
ENCODING 7732
SWIDTH 600 0
DWIDTH 22 0
BBX 17 30 4 -6
BITMAP
E00F00
E01E00
E01C00
E03800
E07000
E0F000
E1E000
E3C000
E38000
E78000
EF8000
FFC000
FDC000
F8E000
F0F000
E07000
E07800
E03800
E01C00
E01C00
E00E00
E00E00
E00700
E00780
000000
000000
000000
000000
1FF800
1FF800
ENDCHAR
STARTCHAR uni1E35
ENCODING 7733
SWIDTH 600 0
DWIDTH 22 0
BBX 17 32 4 -6
BITMAP
E00000
E00000
E00000
E00000
E00000
E00000
E00000
E00000
E00F00
E01C00
E03800
E07000
E0E000
E1C000
E38000
E78000
EFC000
FDC000
F8E000
F07000
E07800
E03800
E01C00
E00E00
E00F00
E00700
000080
000000
000000
000000
1FF800
1FF800
ENDCHAR
STARTCHAR uni1E36
ENCODING 7734
SWIDTH 600 0
DWIDTH 22 0
BBX 14 32 5 -8
BITMAP
E000
E000
E000
E000
E000
E000
E000
E000
E000
E000
E000
E000
E000
E000
E000
E000
E000
E000
E000
E000
E000
FFFC
FFFC
FFFC
0000
0000
0000
0380
07C0
07C0
07C0
0380
ENDCHAR
STARTCHAR uni1E37
ENCODING 7735
SWIDTH 600 0
DWIDTH 22 0
BBX 16 34 3 -8
BITMAP
FF80
FF80
FF80
0380
0380
0380
0380
0380
0380
0380
0380
0380
0380
0380
0380
0380
0380
0380
0380
0380
0380
0380
03C1
01FF
01FF
007E
0000
0000
0000
0070
0078
00F8
0078
0070
ENDCHAR
STARTCHAR uni1E38
ENCODING 7736
SWIDTH 600 0
DWIDTH 22 0
BBX 17 36 2 -8
BITMAP
FFC000
FFC000
000000
000000
1C0000
1C0000
1C0000
1C0000
1C0000
1C0000
1C0000
1C0000
1C0000
1C0000
1C0000
1C0000
1C0000
1C0000
1C0000
1C0000
1C0000
1C0000
1C0000
1C0000
1C0000
1FFF80
1FFF80
1FFF80
000000
000000
000000
007000
00F800
00F800
00F800
007000
ENDCHAR
STARTCHAR uni1E39
ENCODING 7737
SWIDTH 600 0
DWIDTH 22 0
BBX 16 38 3 -8
BITMAP
3FF0
3FF0
0000
0000
FF80
FF80
FF80
0380
0380
0380
0380
0380
0380
0380
0380
0380
0380
0380
0380
0380
0380
0380
0380
0380
0380
0380
03C1
01FF
01FF
007E
0000
0000
0000
0070
0078
00F8
0078
0070
ENDCHAR
STARTCHAR uni1E3A
ENCODING 7738
SWIDTH 600 0
DWIDTH 22 0
BBX 14 30 5 -6
BITMAP
E000
E000
E000
E000
E000
E000
E000
E000
E000
E000
E000
E000
E000
E000
E000
E000
E000
E000
E000
E000
E000
FFFC
FFFC
FFFC
0000
0000
0000
0000
1FF0
1FF0
ENDCHAR
STARTCHAR uni1E3B
ENCODING 7739
SWIDTH 600 0
DWIDTH 22 0
BBX 16 32 3 -6
BITMAP
FF80
FF80
FF80
0380
0380
0380
0380
0380
0380
0380
0380
0380
0380
0380
0380
0380
0380
0380
0380
0380
0380
0380
03C1
01FF
01FF
007E
0000
0000
0000
0000
03FF
03FF
ENDCHAR
STARTCHAR uni1E3E
ENCODING 7742
SWIDTH 600 0
DWIDTH 22 0
BBX 16 31 3 0
BITMAP
0020
0070
00E0
01C0
0780
0200
0000
E00F
F00F
F00F
F01F
F81B
D81F
D83F
DC37
DC37
CC77
CE67
CE67
C6E7
C7C7
C3C7
C3C7
C387
C187
C007
C007
C007
C007
C007
C007
ENDCHAR
STARTCHAR uni1E3F
ENCODING 7743
SWIDTH 600 0
DWIDTH 22 0
BBX 18 28 2 0
BITMAP
000800
001C00
003C00
007800
007000
00E000
01C000
008000
000000
000000
E78F00
EF9F80
FFFFC0
F9F3C0
F0E1C0
E0E1C0
E0C1C0
E0C1C0
E0C1C0
E0C1C0
E0C1C0
E0C1C0
E0C1C0
E0C1C0
E0C1C0
E0C1C0
E0C1C0
E0C1C0
ENDCHAR
STARTCHAR uni1E40
ENCODING 7744
SWIDTH 600 0
DWIDTH 22 0
BBX 16 30 3 0
BITMAP
0380
03C0
03C0
0380
0000
0000
E00F
F00F
F00F
F01F
F81B
D81F
D83F
DC37
DC37
CC77
CE67
CE67
C6E7
C7C7
C3C7
C3C7
C387
C187
C007
C007
C007
C007
C007
C007
ENDCHAR
STARTCHAR uni1E41
ENCODING 7745
SWIDTH 600 0
DWIDTH 22 0
BBX 18 26 2 0
BITMAP
00E000
01F000
01F000
01F000
00E000
000000
000000
000000
E78F00
EF9F80
FFFFC0
F9F3C0
F0E1C0
E0E1C0
E0C1C0
E0C1C0
E0C1C0
E0C1C0
E0C1C0
E0C1C0
E0C1C0
E0C1C0
E0C1C0
E0C1C0
E0C1C0
E0C1C0
ENDCHAR
STARTCHAR uni1E42
ENCODING 7746
SWIDTH 600 0
DWIDTH 22 0
BBX 16 32 3 -8
BITMAP
E00F
F00F
F00F
F01F
F81B
D81F
D83F
DC37
DC37
CC77
CE67
CE67
C6E7
C7C7
C3C7
C3C7
C387
C187
C007
C007
C007
C007
C007
C007
0000
0000
0000
0380
03C0
07C0
03C0
0380
ENDCHAR
STARTCHAR uni1E43
ENCODING 7747
SWIDTH 600 0
DWIDTH 22 0
BBX 18 26 2 -8
BITMAP
E78F00
EF9F80
FFFFC0
F9F3C0
F0E1C0
E0E1C0
E0C1C0
E0C1C0
E0C1C0
E0C1C0
E0C1C0
E0C1C0
E0C1C0
E0C1C0
E0C1C0
E0C1C0
E0C1C0
E0C1C0
000000
000000
000000
00E000
01E000
01E000
01E000
00E000
ENDCHAR
STARTCHAR uni1E44
ENCODING 7748
SWIDTH 600 0
DWIDTH 22 0
BBX 16 30 3 0
BITMAP
01C0
03C0
03C0
01C0
0000
0000
F007
F007
F807
F807
DC07
FC07
EE07
EE07
E707
E707
E387
E387
E1C7
E1C7
E0E7
E0E7
E067
E077
E037
E03F
E01F
E01F
E00F
E00F
ENDCHAR
STARTCHAR uni1E45
ENCODING 7749
SWIDTH 600 0
DWIDTH 22 0
BBX 16 26 3 0
BITMAP
01C0
03E0
03E0
03E0
01C0
0000
0000
0000
E1F8
E7FC
EFFE
FE1E
F80F
F007
E007
E007
E007
E007
E007
E007
E007
E007
E007
E007
E007
E007
ENDCHAR
STARTCHAR uni1E46
ENCODING 7750
SWIDTH 600 0
DWIDTH 22 0
BBX 16 32 3 -8
BITMAP
F007
F007
F807
F807
DC07
FC07
EE07
EE07
E707
E707
E387
E387
E1C7
E1C7
E0E7
E0E7
E067
E077
E037
E03F
E01F
E01F
E00F
E00F
0000
0000
0000
0380
03C0
07C0
03C0
0380
ENDCHAR
STARTCHAR uni1E47
ENCODING 7751
SWIDTH 600 0
DWIDTH 22 0
BBX 16 26 3 -8
BITMAP
E1F8
E7FC
EFFE
FE1E
F80F
F007
E007
E007
E007
E007
E007
E007
E007
E007
E007
E007
E007
E007
0000
0000
0000
01C0
03C0
03E0
03C0
01C0
ENDCHAR
STARTCHAR uni1E48
ENCODING 7752
SWIDTH 600 0
DWIDTH 22 0
BBX 16 30 3 -6
BITMAP
F007
F007
F807
F807
DC07
FC07
EE07
EE07
E707
E707
E387
E387
E1C7
E1C7
E0E7
E0E7
E067
E077
E037
E03F
E01F
E01F
E00F
E00F
0000
0000
0000
0000
1FF8
1FF8
ENDCHAR
STARTCHAR uni1E49
ENCODING 7753
SWIDTH 600 0
DWIDTH 22 0
BBX 16 24 3 -6
BITMAP
E1F8
E7FC
EFFE
FE1E
F80F
F007
E007
E007
E007
E007
E007
E007
E007
E007
E007
E007
E007
E007
0000
0000
0000
0000
1FF8
1FF8
ENDCHAR
STARTCHAR uni1E52
ENCODING 7762
SWIDTH 600 0
DWIDTH 22 0
BBX 18 34 2 0
BITMAP
001000
003800
00F000
01C000
008000
000000
0FFC00
0FFC00
000000
000000
03F000
0FFC00
1FFE00
3E1F00
780F00
700780
700380
E00380
E003C0
E003C0
E001C0
E001C0
E001C0
E001C0
E001C0
E003C0
E00380
700380
700780
780F00
3E1F00
1FFE00
0FFC00
03F000
ENDCHAR
STARTCHAR uni1E53
ENCODING 7763
SWIDTH 600 0
DWIDTH 22 0
BBX 17 31 2 0
BITMAP
001000
007000
00F800
01C000
030000
000000
000000
0FFC00
0FFC00
000000
000000
000000
000000
03F000
0FFC00
1FFE00
3C1F00
780700
700780
F00380
E00380
E00380
E00380
E00380
F00380
700780
780700
3C1F00
1FFE00
0FFC00
03F000
ENDCHAR
STARTCHAR uni1E58
ENCODING 7768
SWIDTH 600 0
DWIDTH 22 0
BBX 16 30 4 0
BITMAP
0700
0780
0780
0700
0000
0000
FFE0
FFF8
FFFC
E03E
E01E
E00E
E00E
E00E
E00E
E01E
E03C
FFFC
FFF0
FFC0
E1C0
E0E0
E0F0
E070
E078
E038
E03C
E01C
E00E
E00F
ENDCHAR
STARTCHAR uni1E59
ENCODING 7769
SWIDTH 600 0
DWIDTH 22 0
BBX 14 26 5 0
BITMAP
0380
07C0
07C0
07C0
0380
0000
0000
0000
E0FC
E3FC
E7FC
EF04
FC00
F800
F000
E000
E000
E000
E000
E000
E000
E000
E000
E000
E000
E000
ENDCHAR
STARTCHAR uni1E5A
ENCODING 7770
SWIDTH 600 0
DWIDTH 22 0
BBX 16 32 4 -8
BITMAP
FFE0
FFF8
FFFC
E03E
E01E
E00E
E00E
E00E
E00E
E01E
E03C
FFFC
FFF0
FFC0
E1C0
E0E0
E0F0
E070
E078
E038
E03C
E01C
E00E
E00F
0000
0000
0000
0380
07C0
07C0
07C0
0380
ENDCHAR
STARTCHAR uni1E5B
ENCODING 7771
SWIDTH 600 0
DWIDTH 22 0
BBX 14 26 5 -8
BITMAP
E0FC
E3FC
E7FC
EF04
FC00
F800
F000
E000
E000
E000
E000
E000
E000
E000
E000
E000
E000
E000
0000
0000
0000
7000
F000
F800
F000
7000
ENDCHAR
STARTCHAR uni1E5C
ENCODING 7772
SWIDTH 600 0
DWIDTH 22 0
BBX 16 36 4 -8
BITMAP
3FF0
3FF0
0000
0000
FFE0
FFF8
FFFC
E03E
E01E
E00E
E00E
E00E
E00E
E01E
E03C
FFFC
FFF0
FFC0
E1C0
E0E0
E0F0
E070
E078
E038
E03C
E01C
E00E
E00F
0000
0000
0000
0380
07C0
07C0
07C0
0380
ENDCHAR
STARTCHAR uni1E5D
ENCODING 7773
SWIDTH 600 0
DWIDTH 22 0
BBX 14 32 5 -8
BITMAP
1FF0
1FF0
0000
0000
0000
0000
E0FC
E3FC
E7FC
EF04
FC00
F800
F000
E000
E000
E000
E000
E000
E000
E000
E000
E000
E000
E000
0000
0000
0000
7000
F000
F800
F000
7000
ENDCHAR
STARTCHAR uni1E5E
ENCODING 7774
SWIDTH 600 0
DWIDTH 22 0
BBX 16 30 4 -6
BITMAP
FFE0
FFF8
FFFC
E03E
E01E
E00E
E00E
E00E
E00E
E01E
E03C
FFFC
FFF0
FFC0
E1C0
E0E0
E0F0
E070
E078
E038
E03C
E01C
E00E
E00F
0000
0000
0000
0000
1FF0
1FF0
ENDCHAR
STARTCHAR uni1E5F
ENCODING 7775
SWIDTH 600 0
DWIDTH 22 0
BBX 17 24 2 -6
BITMAP
1C1F80
1C7F80
1CFF80
1DE080
1F8000
1F0000
1E0000
1C0000
1C0000
1C0000
1C0000
1C0000
1C0000
1C0000
1C0000
1C0000
1C0000
1C0000
000000
000000
000000
000000
FFC000
FFC000
ENDCHAR
STARTCHAR uni1E60
ENCODING 7776
SWIDTH 600 0
DWIDTH 22 0
BBX 17 30 2 0
BITMAP
00E000
01E000
01F000
00E000
000000
000000
03F000
0FFC00
1FFF00
3E0F80
380300
380000
380000
380000
3C0000
1F0000
0FC000
07F800
00FE00
003F00
000F80
000380
000380
000380
200380
700780
FC0F00
3FFF00
1FFE00
03F000
ENDCHAR
STARTCHAR uni1E61
ENCODING 7777
SWIDTH 600 0
DWIDTH 22 0
BBX 16 26 3 0
BITMAP
0380
03C0
03C0
03C0
0380
0000
0000
0000
0FE0
3FF8
7FFC
781E
7004
7000
7800
3F00
1FF0
03FC
003E
000F
0007
C007
F81F
7FFE
3FFC
07F0
ENDCHAR
STARTCHAR uni1E62
ENCODING 7778
SWIDTH 600 0
DWIDTH 22 0
BBX 17 32 2 -8
BITMAP
03F000
0FFC00
1FFF00
3E0F80
380300
380000
380000
380000
3C0000
1F0000
0FC000
07F800
00FE00
003F00
000F80
000380
000380
000380
200380
700780
FC0F00
3FFF00
1FFE00
03F000
000000
000000
000000
00E000
01E000
01F000
01E000
00E000
ENDCHAR
STARTCHAR uni1E63
ENCODING 7779
SWIDTH 600 0
DWIDTH 22 0
BBX 16 26 3 -8
BITMAP
0FE0
3FF8
7FFC
781E
7004
7000
7800
3F00
1FF0
03FC
003E
000F
0007
C007
F81F
7FFE
3FFC
07F0
0000
0000
0000
01C0
03C0
03E0
03C0
01C0
ENDCHAR
STARTCHAR uni1E6C
ENCODING 7788
SWIDTH 600 0
DWIDTH 22 0
BBX 18 32 2 -8
BITMAP
FFFFC0
FFFFC0
FFFFC0
01C000
01C000
01C000
01C000
01C000
01C000
01C000
01C000
01C000
01C000
01C000
01C000
01C000
01C000
01C000
01C000
01C000
01C000
01C000
01C000
01C000
000000
000000
000000
01C000
01E000
03E000
01E000
01C000
ENDCHAR
STARTCHAR uni1E6D
ENCODING 7789
SWIDTH 600 0
DWIDTH 22 0
BBX 18 32 2 -8
BITMAP
030000
030000
030000
030000
030000
030000
FFFF80
FFFF80
FFFF80
070000
070000
070000
070000
070000
070000
070000
070000
070000
078000
038000
03C080
03FF80
01FFC0
007F00
000000
000000
000000
003800
007C00
007C00
007C00
003800
ENDCHAR
STARTCHAR uni1E6E
ENCODING 7790
SWIDTH 600 0
DWIDTH 22 0
BBX 18 30 2 -6
BITMAP
FFFFC0
FFFFC0
FFFFC0
01C000
01C000
01C000
01C000
01C000
01C000
01C000
01C000
01C000
01C000
01C000
01C000
01C000
01C000
01C000
01C000
01C000
01C000
01C000
01C000
01C000
000000
000000
000000
000000
0FFC00
0FFC00
ENDCHAR
STARTCHAR uni1E6F
ENCODING 7791
SWIDTH 600 0
DWIDTH 22 0
BBX 18 30 2 -6
BITMAP
030000
030000
030000
030000
030000
030000
FFFF80
FFFF80
FFFF80
070000
070000
070000
070000
070000
070000
070000
070000
070000
078000
038000
03C080
03FF80
01FFC0
007F00
000000
000000
000000
000000
01FF00
01FF00
ENDCHAR
STARTCHAR uni1E7E
ENCODING 7806
SWIDTH 600 0
DWIDTH 22 0
BBX 18 32 2 -8
BITMAP
E001C0
E001C0
E00380
700380
700380
700700
380700
380700
380600
180E00
1C0E00
1C0C00
1C1C00
0E1C00
0E1C00
0E1800
063800
073800
073000
037000
03F000
03E000
01E000
01E000
000000
000000
000000
01C000
01E000
03E000
01E000
01C000
ENDCHAR
STARTCHAR uni1E7F
ENCODING 7807
SWIDTH 600 0
DWIDTH 22 0
BBX 18 26 2 -8
BITMAP
E001C0
E00380
700380
700300
380700
380700
380E00
1C0E00
1C0C00
0E1C00
0E1C00
063800
073800
073000
037000
03F000
01E000
01E000
000000
000000
000000
01C000
01E000
03E000
01E000
01C000
ENDCHAR
STARTCHAR Wgrave
ENCODING 7808
SWIDTH 600 0
DWIDTH 22 0
BBX 21 31 0 0
BITMAP
008000
01C000
03E000
00F000
003800
001000
000000
F00038
700038
700038
700038
700078
700070
707070
787870
387870
387870
38F870
38FC70
38DC60
38CC60
19CCE0
1DCEE0
1D8EE0
1D8EE0
1F86E0
1F87C0
1F07C0
0F07C0
0F03C0
0F03C0
ENDCHAR
STARTCHAR wgrave
ENCODING 7809
SWIDTH 600 0
DWIDTH 22 0
BBX 21 28 0 0
BITMAP
010000
018000
03C000
01E000
00F000
007000
003800
001000
000000
000000
E00038
707038
707838
707838
707830
70F870
38DC70
38DC70
38CC70
39CC60
19CCE0
1D8EE0
1D8EE0
1D86E0
1F86C0
0F87C0
0F07C0
0F03C0
ENDCHAR
STARTCHAR Wacute
ENCODING 7810
SWIDTH 600 0
DWIDTH 22 0
BBX 21 31 0 0
BITMAP
000400
000E00
001C00
003800
00F000
004000
000000
F00038
700038
700038
700038
700078
700070
707070
787870
387870
387870
38F870
38FC70
38DC60
38CC60
19CCE0
1DCEE0
1D8EE0
1D8EE0
1F86E0
1F87C0
1F07C0
0F07C0
0F03C0
0F03C0
ENDCHAR
STARTCHAR wacute
ENCODING 7811
SWIDTH 600 0
DWIDTH 22 0
BBX 21 28 0 0
BITMAP
000400
000E00
000F00
001C00
003800
007000
00F000
002000
000000
000000
E00038
707038
707838
707838
707830
70F870
38DC70
38DC70
38CC70
39CC60
19CCE0
1D8EE0
1D8EE0
1D86E0
1F86C0
0F87C0
0F07C0
0F03C0
ENDCHAR
STARTCHAR Wdieresis
ENCODING 7812
SWIDTH 600 0
DWIDTH 22 0
BBX 21 30 0 0
BITMAP
038600
038F00
038F00
038600
000000
000000
F00038
700038
700038
700038
700078
700070
707070
787870
387870
387870
38F870
38FC70
38DC60
38CC60
19CCE0
1DCEE0
1D8EE0
1D8EE0
1F86E0
1F87C0
1F07C0
0F07C0
0F03C0
0F03C0
ENDCHAR
STARTCHAR wdieresis
ENCODING 7813
SWIDTH 600 0
DWIDTH 22 0
BBX 21 25 0 0
BITMAP
038700
078F00
078F00
038700
000000
000000
000000
E00038
707038
707838
707838
707830
70F870
38DC70
38DC70
38CC70
39CC60
19CCE0
1D8EE0
1D8EE0
1D86E0
1F86C0
0F87C0
0F07C0
0F03C0
ENDCHAR
STARTCHAR uni1E8E
ENCODING 7822
SWIDTH 600 0
DWIDTH 22 0
BBX 19 30 1 0
BITMAP
00E000
00F000
00F000
00E000
000000
000000
F000E0
7001C0
3801C0
380380
1C0380
1C0700
0E0700
0E0600
070E00
070C00
039C00
039800
01F800
01F000
00F000
00E000
00E000
00E000
00E000
00E000
00E000
00E000
00E000
00E000
ENDCHAR
STARTCHAR uni1E8F
ENCODING 7823
SWIDTH 600 0
DWIDTH 22 0
BBX 18 33 2 -7
BITMAP
01C000
01E000
01E000
01E000
01C000
000000
000000
000000
E001C0
E00380
700380
700300
380700
380700
1C0E00
1C0E00
0E0C00
0E1C00
061C00
071800
033800
03B000
03F000
01F000
01E000
00E000
00C000
01C000
038000
078000
7F0000
7E0000
F80000
ENDCHAR
STARTCHAR uni1E90
ENCODING 7824
SWIDTH 600 0
DWIDTH 22 0
BBX 17 30 2 0
BITMAP
01E000
03F000
033800
060C00
0C0600
000000
7FFF80
7FFF80
7FFF80
000700
000F00
000E00
001C00
003C00
003800
007000
00E000
00E000
01C000
038000
078000
070000
0E0000
1C0000
1C0000
380000
700000
7FFF80
FFFF80
FFFF80
ENDCHAR
STARTCHAR uni1E91
ENCODING 7825
SWIDTH 600 0
DWIDTH 22 0
BBX 16 27 3 0
BITMAP
01E0
03E0
0770
0E38
1C1C
0808
0000
0000
0000
7FFF
7FFF
7FFE
001E
003C
0078
00F0
01E0
03C0
0780
0700
0E00
1C00
3800
7000
FFFF
FFFF
FFFF
ENDCHAR
STARTCHAR uni1E92
ENCODING 7826
SWIDTH 600 0
DWIDTH 22 0
BBX 17 32 2 -8
BITMAP
7FFF80
7FFF80
7FFF80
000700
000F00
000E00
001C00
003C00
003800
007000
00E000
00E000
01C000
038000
078000
070000
0E0000
1C0000
1C0000
380000
700000
7FFF80
FFFF80
FFFF80
000000
000000
000000
00E000
01E000
01F000
01E000
00E000
ENDCHAR
STARTCHAR uni1E93
ENCODING 7827
SWIDTH 600 0
DWIDTH 22 0
BBX 16 26 3 -8
BITMAP
7FFF
7FFF
7FFE
001E
003C
0078
00F0
01E0
03C0
0780
0700
0E00
1C00
3800
7000
FFFF
FFFF
FFFF
0000
0000
0000
01C0
03E0
03E0
03E0
01C0
ENDCHAR
STARTCHAR uni1E94
ENCODING 7828
SWIDTH 600 0
DWIDTH 22 0
BBX 17 30 2 -6
BITMAP
7FFF80
7FFF80
7FFF80
000700
000F00
000E00
001C00
003C00
003800
007000
00E000
00E000
01C000
038000
078000
070000
0E0000
1C0000
1C0000
380000
700000
7FFF80
FFFF80
FFFF80
000000
000000
000000
000000
0FFC00
0FFC00
ENDCHAR
STARTCHAR uni1E95
ENCODING 7829
SWIDTH 600 0
DWIDTH 22 0
BBX 16 24 3 -6
BITMAP
7FFF
7FFF
7FFE
001E
003C
0078
00F0
01E0
03C0
0780
0700
0E00
1C00
3800
7000
FFFF
FFFF
FFFF
0000
0000
0000
0000
0FF8
0FF8
ENDCHAR
STARTCHAR uni1E96
ENCODING 7830
SWIDTH 600 0
DWIDTH 22 0
BBX 16 32 3 -6
BITMAP
E000
E000
E000
E000
E000
E000
E000
E000
E1F8
E7FC
EFFE
FE1E
F80F
F007
E007
E007
E007
E007
E007
E007
E007
E007
E007
E007
E007
E007
0000
0000
0000
0000
0FF8
0FF8
ENDCHAR
STARTCHAR uni1E97
ENCODING 7831
SWIDTH 600 0
DWIDTH 22 0
BBX 18 30 2 0
BITMAP
183000
3C7800
3C7800
183000
000000
000000
030000
030000
030000
030000
030000
030000
FFFF80
FFFF80
FFFF80
070000
070000
070000
070000
070000
070000
070000
070000
070000
078000
038000
03C080
03FF80
01FFC0
007F00
ENDCHAR
STARTCHAR uni1E9E
ENCODING 7838
SWIDTH 600 0
DWIDTH 22 0
BBX 17 24 3 0
BITMAP
07E000
1FF800
3FFC00
7C3E00
700E00
F00F00
E01C00
E03800
E07000
E0E000
E0F800
E0FE00
E0FF00
E01F80
E00780
E00380
E00380
E00380
E00380
E20380
E38780
E7FF00
E1FE00
E0FC00
ENDCHAR
STARTCHAR uni1EA0
ENCODING 7840
SWIDTH 600 0
DWIDTH 22 0
BBX 19 32 1 -8
BITMAP
00F000
00F000
01F000
01B800
01B800
039800
039C00
031C00
070C00
070E00
060E00
0E0600
0E0700
0C0700
1FFF00
1FFF80
1FFF80
380380
3801C0
3801C0
7001C0
7001E0
7000E0
E000E0
000000
000000
000000
00E000
00F000
01F000
00F000
00E000
ENDCHAR
STARTCHAR uni1EA1
ENCODING 7841
SWIDTH 600 0
DWIDTH 22 0
BBX 16 26 3 -8
BITMAP
07F0
1FF8
7FFC
783E
600E
000E
0007
00FF
0FFF
3FFF
7F07
F007
E007
E00F
F03F
7FF7
7FE7
1F87
0000
0000
0000
0380
03C0
07C0
03C0
0380
ENDCHAR
STARTCHAR uni1EA2
ENCODING 7842
SWIDTH 600 0
DWIDTH 22 0
BBX 19 31 1 0
BITMAP
00E000
01F000
003800
003800
003000
00E000
000000
00F000
00F000
01F000
01B800
01B800
039800
039C00
031C00
070C00
070E00
060E00
0E0600
0E0700
0C0700
1FFF00
1FFF80
1FFF80
380380
3801C0
3801C0
7001C0
7001E0
7000E0
E000E0
ENDCHAR
STARTCHAR uni1EA3
ENCODING 7843
SWIDTH 600 0
DWIDTH 22 0
BBX 16 27 3 0
BITMAP
0380
03E0
00E0
0060
00E0
0180
0000
0000
0000
07F0
1FF8
7FFC
783E
600E
000E
0007
00FF
0FFF
3FFF
7F07
F007
E007
E00F
F03F
7FF7
7FE7
1F87
ENDCHAR
STARTCHAR uni1EA4
ENCODING 7844
SWIDTH 600 0
DWIDTH 22 0
BBX 19 32 1 0
BITMAP
000080
0001C0
000380
00F700
01FA00
039C00
060400
000000
00F000
00F000
01F000
01B800
01B800
039800
039C00
031C00
070C00
070E00
060E00
0E0600
0E0700
0C0700
1FFF00
1FFF80
1FFF80
380380
3801C0
3801C0
7001C0
7001E0
7000E0
E000E0
ENDCHAR
STARTCHAR uni1EA5
ENCODING 7845
SWIDTH 600 0
DWIDTH 22 0
BBX 17 28 3 0
BITMAP
000100
000380
000700
01CE00
03E400
077000
0E3800
080800
000000
000000
07F000
1FF800
7FFC00
783E00
600E00
000E00
000700
00FF00
0FFF00
3FFF00
7F0700
F00700
E00700
E00F00
F03F00
7FF700
7FE700
1F8700
ENDCHAR
STARTCHAR uni1EA6
ENCODING 7846
SWIDTH 600 0
DWIDTH 22 0
BBX 19 32 1 0
BITMAP
100000
380000
1C0000
0CF000
07F800
039C00
060400
000000
00F000
00F000
01F000
01B800
01B800
039800
039C00
031C00
070C00
070E00
060E00
0E0600
0E0700
0C0700
1FFF00
1FFF80
1FFF80
380380
3801C0
3801C0
7001C0
7001E0
7000E0
E000E0
ENDCHAR
STARTCHAR uni1EA7
ENCODING 7847
SWIDTH 600 0
DWIDTH 22 0
BBX 16 28 3 0
BITMAP
4000
E000
7000
39C0
13E0
0770
0E38
0808
0000
0000
07F0
1FF8
7FFC
783E
600E
000E
0007
00FF
0FFF
3FFF
7F07
F007
E007
E00F
F03F
7FF7
7FE7
1F87
ENDCHAR
STARTCHAR uni1EA8
ENCODING 7848
SWIDTH 600 0
DWIDTH 22 0
BBX 19 33 1 0
BITMAP
000700
000780
000180
000180
00F180
01FA00
039C00
060400
000000
00F000
00F000
01F000
01B800
01B800
039800
039C00
031C00
070C00
070E00
060E00
0E0600
0E0700
0C0700
1FFF00
1FFF80
1FFF80
380380
3801C0
3801C0
7001C0
7001E0
7000E0
E000E0
ENDCHAR
STARTCHAR uni1EA9
ENCODING 7849
SWIDTH 600 0
DWIDTH 22 0
BBX 16 28 3 0
BITMAP
000C
0017
0003
01C7
03EC
0770
0E38
0808
0000
0000
07F0
1FF8
7FFC
783E
600E
000E
0007
00FF
0FFF
3FFF
7F07
F007
E007
E00F
F03F
7FF7
7FE7
1F87
ENDCHAR
STARTCHAR uni1EAA
ENCODING 7850
SWIDTH 600 0
DWIDTH 22 0
BBX 19 34 1 0
BITMAP
038600
07E600
067E00
043C00
000000
00F000
01F800
039C00
060C00
000000
00F000
00F000
01F000
01B800
01B800
039800
039C00
031C00
070C00
070E00
060E00
0E0600
0E0700
0C0700
1FFF00
1FFF80
1FFF80
380380
3801C0
3801C0
7001C0
7001E0
7000E0
E000E0
ENDCHAR
STARTCHAR uni1EAB
ENCODING 7851
SWIDTH 600 0
DWIDTH 22 0
BBX 16 29 3 0
BITMAP
0608
0F88
0DF8
0870
01C0
07F0
0E38
0C18
0000
0000
0000
07F0
1FF8
7FFC
783E
600E
000E
0007
00FF
0FFF
3FFF
7F07
F007
E007
E00F
F03F
7FF7
7FE7
1F87
ENDCHAR
STARTCHAR uni1EAC
ENCODING 7852
SWIDTH 600 0
DWIDTH 22 0
BBX 19 38 1 -8
BITMAP
00F000
01F800
039C00
070E00
0C0600
000000
00F000
00F000
01F000
01B800
01B800
039800
039C00
031C00
070C00
070E00
060E00
0E0600
0E0700
0C0700
1FFF00
1FFF80
1FFF80
380380
3801C0
3801C0
7001C0
7001E0
7000E0
E000E0
000000
000000
000000
00E000
00F000
01F000
00F000
00E000
ENDCHAR
STARTCHAR uni1EAD
ENCODING 7853
SWIDTH 600 0
DWIDTH 22 0
BBX 16 35 3 -8
BITMAP
01C0
03E0
0770
0E38
1C1C
0808
0000
0000
0000
07F0
1FF8
7FFC
783E
600E
000E
0007
00FF
0FFF
3FFF
7F07
F007
E007
E00F
F03F
7FF7
7FE7
1F87
0000
0000
0000
0380
03C0
07C0
03C0
0380
ENDCHAR
STARTCHAR uni1EAE
ENCODING 7854
SWIDTH 600 0
DWIDTH 22 0
BBX 19 34 1 0
BITMAP
001800
001C00
003000
006000
04C600
060600
070C00
03FC00
01F000
000000
00F000
00F000
01F000
01B800
01B800
039800
039C00
031C00
070C00
070E00
060E00
0E0600
0E0700
0C0700
1FFF00
1FFF80
1FFF80
380380
3801C0
3801C0
7001C0
7001E0
7000E0
E000E0
ENDCHAR
STARTCHAR uni1EAF
ENCODING 7855
SWIDTH 600 0
DWIDTH 22 0
BBX 16 30 3 0
BITMAP
0020
0070
00E0
00C0
19CC
188C
1C1C
0E38
07F0
03E0
0000
0000
07F0
1FF8
7FFC
783E
600E
000E
0007
00FF
0FFF
3FFF
7F07
F007
E007
E00F
F03F
7FF7
7FE7
1F87
ENDCHAR
STARTCHAR uni1EB0
ENCODING 7856
SWIDTH 600 0
DWIDTH 22 0
BBX 19 34 1 0
BITMAP
010000
038000
01C000
00E000
044600
060600
070C00
03FC00
01F000
000000
00F000
00F000
01F000
01B800
01B800
039800
039C00
031C00
070C00
070E00
060E00
0E0600
0E0700
0C0700
1FFF00
1FFF80
1FFF80
380380
3801C0
3801C0
7001C0
7001E0
7000E0
E000E0
ENDCHAR
STARTCHAR uni1EB1
ENCODING 7857
SWIDTH 600 0
DWIDTH 22 0
BBX 16 30 3 0
BITMAP
0200
0700
0380
0180
19CC
188C
1C1C
0E38
07F0
03E0
0000
0000
07F0
1FF8
7FFC
783E
600E
000E
0007
00FF
0FFF
3FFF
7F07
F007
E007
E00F
F03F
7FF7
7FE7
1F87
ENDCHAR
STARTCHAR uni1EB2
ENCODING 7858
SWIDTH 600 0
DWIDTH 22 0
BBX 19 35 1 0
BITMAP
00E000
00F000
003000
003000
003000
046600
060600
070C00
03FC00
01F000
000000
00F000
00F000
01F000
01B800
01B800
039800
039C00
031C00
070C00
070E00
060E00
0E0600
0E0700
0C0700
1FFF00
1FFF80
1FFF80
380380
3801C0
3801C0
7001C0
7001E0
7000E0
E000E0
ENDCHAR
STARTCHAR uni1EB3
ENCODING 7859
SWIDTH 600 0
DWIDTH 22 0
BBX 16 30 3 0
BITMAP
0380
03E0
00E0
0060
18EC
198C
1C1C
0E38
07F0
03E0
0000
0000
07F0
1FF8
7FFC
783E
600E
000E
0007
00FF
0FFF
3FFF
7F07
F007
E007
E00F
F03F
7FF7
7FE7
1F87
ENDCHAR
STARTCHAR uni1EB4
ENCODING 7860
SWIDTH 600 0
DWIDTH 22 0
BBX 19 34 1 0
BITMAP
038600
07E600
067E00
043C00
000000
060600
070E00
03FC00
01F000
000000
00F000
00F000
01F000
01B800
01B800
039800
039C00
031C00
070C00
070E00
060E00
0E0600
0E0700
0C0700
1FFF00
1FFF80
1FFF80
380380
3801C0
3801C0
7001C0
7001E0
7000E0
E000E0
ENDCHAR
STARTCHAR uni1EB5
ENCODING 7861
SWIDTH 600 0
DWIDTH 22 0
BBX 16 29 3 0
BITMAP
060C
0F88
0DF8
1870
0000
180C
0C18
0FF8
03E0
0000
0000
07F0
1FF8
7FFC
783E
600E
000E
0007
00FF
0FFF
3FFF
7F07
F007
E007
E00F
F03F
7FF7
7FE7
1F87
ENDCHAR
STARTCHAR uni1EB6
ENCODING 7862
SWIDTH 600 0
DWIDTH 22 0
BBX 19 38 1 -8
BITMAP
040600
060600
070C00
03FC00
01F000
000000
00F000
00F000
01F000
01B800
01B800
039800
039C00
031C00
070C00
070E00
060E00
0E0600
0E0700
0C0700
1FFF00
1FFF80
1FFF80
380380
3801C0
3801C0
7001C0
7001E0
7000E0
E000E0
000000
000000
000000
00E000
00F000
01F000
00F000
00E000
ENDCHAR
ENDFONT
